<svg width="34" height="34" viewBox="0 0 34 34" fill="none" xmlns="http://www.w3.org/2000/svg">
<rect x="1" y="1" width="32" height="32" rx="16" fill="white"/>
<path d="M12.333 16.3747C11.9878 16.3747 11.708 16.6545 11.708 16.9997C11.708 17.3449 11.9878 17.6247 12.333 17.6247V16.3747ZM21.6663 16.9997L22.1083 17.4416C22.3524 17.1975 22.3524 16.8018 22.1083 16.5577L21.6663 16.9997ZM17.4416 11.8911C17.1975 11.647 16.8018 11.647 16.5577 11.8911C16.3137 12.1351 16.3137 12.5309 16.5577 12.7749L17.4416 11.8911ZM16.5577 21.2244C16.3137 21.4685 16.3137 21.8642 16.5577 22.1083C16.8018 22.3524 17.1975 22.3524 17.4416 22.1083L16.5577 21.2244ZM12.333 17.6247H21.6663V16.3747H12.333V17.6247ZM16.5577 12.7749L21.2244 17.4416L22.1083 16.5577L17.4416 11.8911L16.5577 12.7749ZM21.2244 16.5577L16.5577 21.2244L17.4416 22.1083L22.1083 17.4416L21.2244 16.5577Z" fill="#004B7F"/>
<rect x="1" y="1" width="32" height="32" rx="16" stroke="#F1F4FA" stroke-width="1.25"/>
</svg>
