<svg width="24" height="24" viewBox="0 0 24 24" fill="none" xmlns="http://www.w3.org/2000/svg">
<path d="M17.0818 8.05383H21.8902C21.9455 8.05383 21.9902 8.0986 21.9902 8.15383V20.2592C21.9902 20.3372 21.9049 20.3852 21.8383 20.3447L18.0094 18.0178C17.9937 18.0083 17.9757 18.0032 17.9574 18.0032H7.65836C7.60313 18.0032 7.55836 17.9585 7.55836 17.9032V13.9951M6.97138 14.0281L2.17447 16.9436C2.10783 16.9841 2.02254 16.9361 2.02254 16.8581V3.08413C2.02254 3.0289 2.06731 2.98413 2.12254 2.98413H16.9161C16.9713 2.98413 17.0161 3.0289 17.0161 3.08413V13.9135C17.0161 13.9688 16.9713 14.0135 16.9161 14.0135H7.02332C7.005 14.0135 6.98703 14.0186 6.97138 14.0281Z" stroke="#878787" stroke-width="1.5" stroke-linecap="round"/>
</svg>
