<svg width="16" height="16" viewBox="0 0 16 16" fill="none" xmlns="http://www.w3.org/2000/svg">
<rect x="0.75" y="0.75" width="14.5" height="14.5" rx="7.25" fill="white"/>
<path d="M6.09891 10.42C6.73891 9.88667 7.24891 9.44333 7.62891 9.09C8.00891 8.73 8.32557 8.35667 8.57891 7.97C8.83224 7.58333 8.95891 7.20333 8.95891 6.83C8.95891 6.49 8.87891 6.22333 8.71891 6.03C8.55891 5.83667 8.31224 5.74 7.97891 5.74C7.64557 5.74 7.38891 5.85333 7.20891 6.08C7.02891 6.3 6.93557 6.60333 6.92891 6.99H5.56891C5.59557 6.19 5.83224 5.58333 6.27891 5.17C6.73224 4.75667 7.30557 4.55 7.99891 4.55C8.75891 4.55 9.34224 4.75333 9.74891 5.16C10.1556 5.56 10.3589 6.09 10.3589 6.75C10.3589 7.27 10.2189 7.76667 9.93891 8.24C9.65891 8.71333 9.33891 9.12667 8.97891 9.48C8.61891 9.82667 8.14891 10.2467 7.56891 10.74H10.5189V11.9H5.57891V10.86L6.09891 10.42Z" fill="#004B7F"/>
<rect x="0.75" y="0.75" width="14.5" height="14.5" rx="7.25" stroke="#004B7F" stroke-width="1.5"/>
</svg>
