<svg width="121" height="100" viewBox="0 0 121 100" fill="none" xmlns="http://www.w3.org/2000/svg">
<rect width="120" height="100" transform="translate(0.5)" fill="white"/>
<g clip-path="url(#clip0_583_9065)">
<path d="M52.5871 64.8745V68.8931C52.5871 70.0345 52.0379 70.6436 51.04 70.6436C50.0365 70.6436 49.484 70.017 49.484 68.8443V64.8789H48.1034V68.8931C48.1034 70.8682 49.1671 72 51.0218 72C52.894 72 53.9677 70.8465 53.9677 68.8352V64.8745H52.5871ZM57.6667 64.8745L54.6681 71.8906H56.0774L56.6562 70.5318L56.6976 70.43H59.8128L60.4237 71.8906H61.8713L58.9006 64.916L58.8739 64.8745L57.6667 64.8745ZM65.8757 64.8745L64.3306 69.702L62.8264 64.8781H61.3571L63.7289 71.895H64.8722L66.4205 67.2855L67.9676 71.895H69.1206L71.4865 64.8781H70.0548L68.5476 69.702L67.002 64.8745H65.8757ZM79.3866 64.8745V71.8846H80.749V64.8745H79.3866ZM40.3086 64.8749V71.8946H41.6896V69.0436H44.8078V71.8946H46.1892V64.8749H44.8078V67.7067H41.6896V64.8749H40.3086ZM72.6 64.8796V71.8898H77.74V70.6116H73.9624V68.8735H76.4743V67.5949H73.9624V66.1578H77.6084V64.8796H72.6ZM58.2517 66.6509L59.2363 69.0012H59.2328L59.2998 69.1634H57.211L57.2772 69.0012H57.2761L58.2517 66.6509Z" fill="#232527"/>
<path d="M57.5063 28.9998C56.9585 29.0498 55.4782 29.3973 55.4782 29.3973H55.4776C52.1412 30.2867 51.3526 33.4094 51.3526 33.4094C51.1896 33.9345 51.1156 34.4727 51.0939 34.9797V35.6697C51.1381 36.7359 51.368 37.5319 51.368 37.5319C52.4825 42.6287 57.9623 51.0035 59.14 52.7627C59.2236 52.8482 59.2905 52.8174 59.2905 52.8174C59.4176 52.7811 59.4076 52.6554 59.4076 52.6554L59.41 52.656C61.224 33.9565 57.5063 28.9999 57.5063 28.9999L57.5063 28.9998ZM63.5 28.9998C63.5 28.9998 59.766 33.9591 61.5814 52.6695H61.5838C61.5978 52.7883 61.6796 52.813 61.6796 52.813C61.801 52.8616 61.8633 52.7412 61.8633 52.7412L61.8639 52.7424C63.0718 50.9382 68.5204 42.6091 69.63 37.5319C69.63 37.5319 70.2315 35.0745 69.6508 33.4093C69.6508 33.4093 68.826 30.2383 65.4853 29.4003C65.4853 29.4003 64.5226 29.1482 63.5001 28.9998L63.5 28.9998ZM46.2771 34.6135C46.2771 34.6135 43.0981 37.7254 42.9401 41.0245H42.9414V41.5244C42.9438 41.5621 42.9456 41.6002 42.9479 41.6385C43.0849 44.2988 45.0253 45.8733 45.0253 45.8733C48.1518 49.0159 55.7222 52.9837 57.4814 53.884C57.506 53.8935 57.5969 53.9241 57.6503 53.8545C57.6503 53.8545 57.6781 53.8328 57.6907 53.7938V53.7109C57.6895 53.7062 57.6871 53.7014 57.6848 53.6962H57.6854C52.8678 42.8421 46.2772 34.6134 46.2772 34.6134L46.2771 34.6135ZM74.7214 34.6135C74.7214 34.6135 68.1507 42.8163 63.3353 53.6485L63.3371 53.6478C63.3371 53.6478 63.2802 53.7734 63.3722 53.8545C63.3722 53.8545 63.3996 53.8759 63.4376 53.8846H63.5042C63.5162 53.881 63.529 53.8763 63.5417 53.8674V53.8685C65.3486 52.9436 72.8604 49.0019 75.9722 45.8738C75.9722 45.8738 77.9428 44.2417 78.046 41.6212C78.2736 37.9817 74.7215 34.6134 74.7215 34.6134L74.7214 34.6135ZM80.6354 45.3893C80.6354 45.3893 69.9231 51.3183 64.3844 55.1715L64.385 55.1721L64.3862 55.1733C64.3862 55.1733 64.2857 55.2412 64.3208 55.3628C64.3208 55.3628 64.3734 55.461 64.4499 55.461V55.4616C66.4338 55.4652 73.9409 55.4739 74.1291 55.4377C74.1291 55.4377 75.0998 55.3977 76.2993 54.9224C76.2993 54.9224 78.9696 54.0469 80.3566 50.9201C80.3566 50.9201 80.9903 49.6127 80.9995 47.7759V47.6981C80.9949 46.9897 80.8981 46.2056 80.6355 45.3893H80.6354ZM40.3601 45.417C39.3855 48.5289 40.6976 51.0364 40.6997 51.0404C42.0672 54.0202 44.6773 54.9231 44.6773 54.9231C45.8824 55.4337 47.0878 55.469 47.0878 55.469C47.276 55.5045 54.5831 55.4726 56.541 55.4631C56.6239 55.4625 56.6695 55.3766 56.6695 55.3766C56.6752 55.3671 56.6803 55.3576 56.6826 55.3489V55.271C56.6664 55.2189 56.6231 55.1821 56.6231 55.1821L56.6244 55.1815C51.0884 51.3296 40.3602 45.4171 40.3602 45.4171L40.3601 45.417ZM56.3174 56.4198L43.7156 56.8755C45.0822 59.388 47.3838 61.3407 49.7813 60.741C51.4358 60.3144 55.1841 57.618 56.4215 56.7068L56.4173 56.7033C56.5136 56.6141 56.4792 56.5426 56.4792 56.5426C56.4475 56.4259 56.3174 56.426 56.3174 56.426L56.3174 56.4198ZM64.6639 56.4293L64.6626 56.434C64.6626 56.434 64.552 56.4485 64.5211 56.5339C64.5211 56.5339 64.4942 56.6507 64.5686 56.7087L64.5674 56.7099C65.7739 57.6022 69.4313 60.2394 71.1933 60.7515C71.1933 60.7515 71.4602 60.8451 71.9076 60.8619H72.1764C73.3569 60.8191 75.4134 60.1937 77.2822 56.8823L64.6639 56.4293Z" fill="#CF0A2C"/>
</g>
<defs>
<clipPath id="clip0_583_9065">
<rect width="41" height="43" fill="white" transform="translate(40 29)"/>
</clipPath>
</defs>
</svg>
