<svg width="121" height="100" viewBox="0 0 121 100" fill="none" xmlns="http://www.w3.org/2000/svg">
<rect width="120" height="100" transform="translate(0.5)" fill="white"/>
<path d="M60.8181 73.64C73.9764 73.64 84.64 62.9764 84.64 49.8219C84.64 36.6675 73.9764 26 60.8181 26C47.6636 26 37 36.6675 37 49.8219C37 62.9764 47.6636 73.64 60.8181 73.64Z" fill="white"/>
<path d="M66.1635 43.618C66.1635 40.9094 67.9971 38.2824 68.9976 38.7772C70.138 39.3489 68.1429 41.9001 66.1635 43.618ZM53.6944 44.6049C53.6944 42.427 55.8431 38.2892 57.1556 38.7267C58.7073 39.2439 55.8703 43.4178 53.6944 44.6049ZM51.5156 60.1802C50.5278 60.225 49.8667 59.593 49.8667 58.5381C49.8667 55.704 53.7994 52.9963 56.7696 51.5428C56.2427 55.4999 54.9058 60.0276 51.5156 60.1802ZM69.6596 50.9449C67.4167 50.9449 65.7026 52.5948 65.7026 54.5733C65.7026 56.2232 66.6943 57.5425 68.0098 57.5425C68.4755 57.5425 68.9363 57.2771 68.9363 56.6879C68.9363 55.8256 67.7988 55.6185 67.8843 54.3361C67.9417 53.4902 68.7389 52.9244 69.5303 52.9244C71.1122 52.9244 71.8521 54.4576 71.8521 56.0394C71.7879 58.4827 69.9892 60.1793 67.8814 60.1793C65.1086 60.1793 63.3274 57.5425 63.3274 54.7046C63.3274 50.4792 66.1003 48.8303 67.5528 48.4365C67.5664 48.4365 71.3465 49.1083 71.2289 47.4419C71.1744 46.7088 70.0845 46.4269 69.297 46.3967C68.421 46.3627 67.5363 46.6777 67.5363 46.6777C67.0774 46.4444 66.7585 45.9884 66.5611 45.4634C69.2669 43.4158 71.1802 41.4383 71.1802 39.1943C71.1802 38.0072 70.3869 36.9514 68.8692 36.9514C66.1635 36.9514 64.1179 40.3824 64.1179 43.4839C64.1179 44.0099 64.1179 44.5397 64.254 45.0006C62.537 46.2528 61.2604 47.0335 58.9533 48.419C58.9533 48.1302 59.0136 47.3845 59.208 46.4201C59.9985 45.5616 61.0844 44.2753 61.0844 43.2846C61.0844 42.8237 60.8229 42.4261 60.2901 42.4261C58.9727 42.4261 57.9849 44.4075 57.7205 45.793C57.1264 46.5221 55.9384 47.4458 54.9467 47.4458C54.1562 47.4458 53.8908 46.7195 53.8237 46.4541C56.3321 45.5956 59.4336 42.1645 59.4336 39.0631C59.4336 38.4049 59.1691 36.9514 57.1906 36.9514C54.2214 36.9514 51.7169 41.3741 51.7169 44.8013C50.6581 44.8013 50.2643 43.6812 50.2643 42.8228C50.2643 41.9633 50.5939 41.1087 50.5939 40.8433C50.5939 40.5788 50.4617 40.2502 50.0641 40.2502C49.0763 40.2502 48.4822 41.5695 48.4822 43.0872C48.5503 45.1989 49.9347 46.5221 51.781 46.6515C52.0455 47.9066 53.1655 49.0947 54.55 49.0947C55.4095 49.0947 56.4643 48.8303 57.1906 48.172C57.1264 48.6329 57.0623 49.0305 56.9942 49.4243C54.0891 50.9449 51.9774 51.9998 50.0641 53.7148C48.5503 55.1022 47.6918 56.9485 47.6918 58.3981C47.6918 60.3805 48.944 62.2268 51.5166 62.2268C54.55 62.2268 56.862 59.7865 57.9849 56.4196C58.5109 54.8378 58.7219 52.5335 58.857 50.4189C61.8885 48.7009 63.3274 47.7112 64.9122 46.5873C65.1095 46.9169 65.3089 47.1804 65.5704 47.3777C64.1859 48.104 60.8871 50.1506 60.8871 54.9661C60.8871 58.3971 63.1942 62.2258 67.7502 62.2258C71.5108 62.2258 74.0834 59.1234 74.0834 56.1532C74.0824 53.4504 72.5647 50.9449 69.6596 50.9449ZM81.0048 56.6131C80.9951 56.6335 80.9581 56.6607 80.8832 56.6364C80.8249 56.616 80.8123 56.5888 80.8123 56.5509C80.8152 56.5139 81.6095 54.165 81.6027 51.4738C81.5959 48.5648 80.4156 46.7827 78.9018 46.7827C77.9753 46.7827 77.3161 47.4448 77.3161 48.4365C77.3161 50.2176 79.492 50.3508 79.492 54.2427C79.492 55.8246 79.1624 57.3423 78.6374 58.9912C76.1931 67.2378 68.4074 71.0665 60.8229 71.0665C57.3238 71.0665 54.8387 70.347 54.0998 70.0155C54.0697 69.998 54.0415 69.9406 54.0658 69.8823C54.0823 69.8385 54.1339 69.8045 54.164 69.8181C54.4635 69.9338 56.5975 70.6056 59.2382 70.6056C62.1403 70.6056 63.8573 69.4185 63.8573 67.965C63.8573 67.0423 63.131 66.3161 62.2084 66.3161C60.4262 66.3161 60.2911 68.559 56.4653 68.559C54.8164 68.559 53.3639 68.2295 51.6498 67.6996C43.4654 65.1931 39.5696 57.4755 39.5726 49.8219C39.5755 46.0924 40.6216 43.1222 40.6381 43.095C40.6518 43.0755 40.6984 43.0541 40.7558 43.0755C40.8141 43.095 40.8268 43.1426 40.8238 43.1601C40.7295 43.4693 40.0363 45.5975 40.0363 48.2382C40.0363 51.1432 41.2234 52.8573 42.7411 52.8573C43.5967 52.8573 44.3229 52.1991 44.3229 51.2754C44.3229 49.4914 42.1441 49.294 42.1441 45.4663C42.1441 43.8164 42.4767 42.3639 43.0026 40.6498C45.511 32.4674 53.2326 28.6328 60.821 28.5735C64.3473 28.5463 67.4322 29.6022 67.5509 29.6965C67.5713 29.714 67.5917 29.7587 67.5713 29.8122C67.5431 29.8763 67.5022 29.8831 67.4828 29.8793C67.4458 29.8763 65.4391 29.0373 62.4018 29.0373C59.5648 29.0344 57.7827 30.2225 57.7827 31.7421C57.7827 32.5977 58.4448 33.3239 59.4316 33.3239C61.2138 33.3239 61.346 31.148 65.1747 31.148C66.8197 31.148 68.2732 31.4737 69.9873 32.0036C78.2378 34.511 81.9916 42.2968 82.0626 49.821C82.1015 53.674 81.0155 56.5888 81.0048 56.6131ZM60.8219 27.1229C48.2848 27.1229 38.1239 37.281 38.1239 49.821C38.1239 62.3581 48.2848 72.5161 60.8219 72.5161C73.3561 72.5161 83.5171 62.3581 83.5171 49.821C83.5171 37.349 73.3561 27.1229 60.8219 27.1229ZM60.8219 73.64C47.6908 73.64 37 63.0173 37 49.8219C37 36.6869 47.6908 26 60.8219 26C73.9492 26 84.64 36.6869 84.64 49.8219C84.64 63.0173 73.9492 73.64 60.8219 73.64Z" fill="#3B73B9"/>
</svg>
