<svg width="121" height="100" viewBox="0 0 121 100" fill="none" xmlns="http://www.w3.org/2000/svg">
<rect width="120" height="100" transform="translate(0.5)" fill="white"/>
<g clip-path="url(#clip0_583_9072)">
<path fill-rule="evenodd" clip-rule="evenodd" d="M23.3145 35V37.0536H37.9216V35H23.3145ZM39.9752 35V37.0536H60.7787C60.7787 37.0536 58.6537 35 55.8323 35H39.9752ZM64.868 35V37.0536H77.4573L76.7073 35H64.868ZM86.4752 35L85.7252 37.0536H98.1895V35H86.4752ZM23.3145 39V41.0536H37.9216V39H23.3145ZM39.9752 39V41.0536H63.1895C63.1895 41.0536 62.9216 39.4821 62.4395 39H39.9752ZM64.868 39V41.0536H78.8323L78.1359 39H64.868ZM84.9752 39L84.2787 41.0536H98.1895V39H84.9752ZM27.5109 42.9821V45.0357H33.8323V42.9821H27.5109ZM44.1716 42.9821V45.0357H50.493V42.9821H44.1716ZM56.6537 42.9821V45.0357H62.9752C62.9752 45.0357 63.368 43.9464 63.368 42.9821H56.6537ZM69.0645 42.9821V45.0357H80.2787L79.5287 42.9821H69.0645ZM83.6002 42.9821L82.8502 45.0357H94.118V42.9821H83.6002ZM27.5109 46.9821V49.0357H33.8323V46.9821H27.5109ZM44.1716 46.9821V49.0357H60.3145C60.3145 49.0357 61.6716 47.9821 62.1002 46.9821H44.1716ZM69.0645 46.9821V49.0357H75.3859V47.8929L75.7787 49.0357H87.368L87.7966 47.8929V49.0357H94.118V46.9821H82.243L81.618 48.7143L80.993 46.9821H69.0645ZM27.5109 50.9643V53.0179H33.8323V50.9643H27.5109ZM44.1716 50.9643V53.0179H62.1002C61.6716 52.0179 60.3145 50.9643 60.3145 50.9643H44.1716ZM69.0645 50.9643V53.0179H75.3859V50.9643H69.0645ZM76.5287 50.9643L77.2966 53.0179H85.9752L86.7073 50.9643H76.5287ZM87.7966 50.9643V53.0179H94.118V50.9643H87.7966ZM27.5109 54.9643V57.0179H33.8323V54.9643H27.5109ZM44.1716 54.9643V57.0179H50.493V54.9643H44.1716ZM56.6537 54.9643V57.0179H63.3859C63.3859 56.0536 62.993 54.9643 62.993 54.9643H56.6537ZM69.0645 54.9643V57.0179H75.3859V54.9643H69.0645ZM77.9752 54.9643L78.7073 57.0179H84.5287L85.2787 54.9643H77.9752ZM87.7966 54.9643V57.0179H94.118V54.9643H87.7966ZM23.4216 58.9464V61H38.0287V58.9464H23.4216ZM39.9752 58.9464V61H62.4573C62.9216 60.5357 63.2073 58.9464 63.2073 58.9464H39.9752ZM64.9752 58.9464V61H75.3859V58.9464H64.9752ZM79.4037 58.9464L80.1716 61H83.1359L83.8502 58.9464H79.4037ZM87.7966 58.9464V61H98.3145V58.9464H87.7966ZM23.4216 62.9464V65H38.0287V62.9464H23.4216ZM39.9752 62.9464V65H55.8323C58.6537 65 60.7787 62.9464 60.7787 62.9464H39.9752ZM64.9752 62.9464V65H75.3859V62.9464H64.9752ZM80.8502 62.9464L81.5823 65H81.7073L82.4573 62.9464H80.8502ZM87.7966 62.9464V65H98.3145V62.9464H87.7966Z" fill="#1F70C1"/>
</g>
<defs>
<clipPath id="clip0_583_9072">
<rect width="75" height="30" fill="white" transform="translate(23 35)"/>
</clipPath>
</defs>
</svg>
