<svg width="121" height="100" viewBox="0 0 121 100" fill="none" xmlns="http://www.w3.org/2000/svg">
<rect width="120" height="100" transform="translate(0.5)" fill="white"/>
<g clip-path="url(#clip0_583_9060)">
<path d="M47.1706 45.0774C47.1503 45.6777 47.2314 46.278 47.3936 46.8583C47.5761 47.3586 47.799 47.8389 48.0423 48.2991C48.1234 48.4392 48.1842 48.5993 48.1842 48.7594C48.164 48.9995 48.022 49.2396 47.799 49.3597L46.5219 50.2001C46.3597 50.3002 46.1773 50.3802 45.9948 50.3802C45.7718 50.3602 45.5488 50.2602 45.3866 50.1001C45.1231 49.8199 44.8596 49.4998 44.6568 49.1596C44.4541 48.8194 44.2514 48.4392 44.0284 47.979C42.4471 49.8199 40.4604 50.7404 38.0683 50.7404C36.3654 50.7404 35.0072 50.2602 34.0138 49.2997C33.0205 48.3391 32.5137 47.0585 32.5137 45.4576C32.5137 43.7567 33.1218 42.3759 34.3585 41.3354C35.5951 40.2948 37.2371 39.7745 39.3252 39.7745C40.0347 39.7745 40.7645 39.8346 41.4741 39.9346C42.2241 40.0347 42.9945 40.1947 43.8054 40.3748V38.9141C43.8054 37.3932 43.481 36.3327 42.8526 35.7123C42.2241 35.092 41.1092 34.7918 39.5482 34.7918C38.8184 34.7918 38.0683 34.8719 37.3588 35.052C36.6087 35.2321 35.8789 35.4522 35.1694 35.7323C34.9464 35.8324 34.7031 35.9124 34.4598 35.9925C34.3585 36.0325 34.2368 36.0525 34.1355 36.0525C33.8516 36.0525 33.7097 35.8524 33.7097 35.4322V34.4516C33.6895 34.2115 33.7503 33.9714 33.8516 33.7513C34.0138 33.5712 34.1963 33.4311 34.4193 33.331C35.2302 32.9308 36.0816 32.6307 36.9736 32.4306C38.0075 32.1704 39.0819 32.0504 40.1361 32.0504C42.5485 32.0504 44.3122 32.5906 45.4475 33.6712C46.5827 34.7518 47.1301 36.3927 47.1301 38.5939V45.0774H47.1706ZM38.94 48.119C39.6496 48.119 40.3591 47.999 41.0281 47.7588C41.7782 47.4987 42.4269 47.0585 42.9539 46.4781C43.2783 46.1179 43.5216 45.6777 43.6432 45.1974C43.7851 44.6371 43.8459 44.0368 43.8459 43.4565V42.6161C43.2378 42.476 42.6093 42.3559 41.9809 42.2759C41.3524 42.1958 40.7037 42.1558 40.0753 42.1558C38.717 42.1558 37.7237 42.4159 37.0547 42.9562C36.3857 43.4965 36.0613 44.2569 36.0613 45.2575C36.0613 46.198 36.3046 46.8984 36.8114 47.3786C37.3182 47.8589 38.0075 48.119 38.94 48.119ZM55.2187 50.2802C54.9552 50.3002 54.6714 50.2402 54.4484 50.0801C54.2457 49.86 54.0835 49.5998 54.0227 49.2997L49.2587 33.8313C49.1573 33.5712 49.0965 33.311 49.0762 33.0309C49.0559 32.7908 49.2181 32.5706 49.4614 32.5306H51.5697C51.9549 32.5306 52.2184 32.5906 52.3603 32.7307C52.5022 32.8708 52.6441 33.1309 52.7658 33.5111L56.1513 46.7583L59.3138 33.5111C59.4151 33.1109 59.5368 32.8508 59.6989 32.7307C59.9422 32.5906 60.226 32.5106 60.5098 32.5306H62.1316C62.5168 32.5306 62.7803 32.5906 62.9425 32.7307C63.1452 32.9508 63.2871 33.211 63.3277 33.5111L66.5307 46.9184L70.0379 33.5111C70.0987 33.211 70.2406 32.9508 70.4433 32.7307C70.6866 32.5906 70.9501 32.5106 71.2339 32.5306H73.1193C73.3625 32.4906 73.5855 32.6707 73.6261 32.9108V33.0309C73.6261 33.1309 73.6058 33.251 73.5855 33.3511C73.545 33.5312 73.5044 33.6912 73.4436 33.8513L68.558 49.3197C68.4363 49.7199 68.2944 49.98 68.1323 50.1001C67.9093 50.2402 67.6254 50.3202 67.3619 50.3002H65.6185C65.2333 50.3002 64.9698 50.2402 64.8076 50.1001C64.6049 49.88 64.4629 49.5998 64.4224 49.2997L61.2802 36.3927L58.1582 49.2797C58.1177 49.5798 57.9758 49.86 57.7731 50.0801C57.5298 50.2402 57.246 50.3002 56.9622 50.2802H55.2187ZM81.2688 50.8205C80.2146 50.8205 79.1604 50.7004 78.1468 50.4603C77.1332 50.2202 76.3426 49.96 75.8155 49.6599C75.5519 49.5398 75.3289 49.3397 75.187 49.0996C75.1059 48.9195 75.0654 48.7394 75.0654 48.5393V47.5187C75.0654 47.0985 75.2276 46.8984 75.5317 46.8984C75.6533 46.8984 75.7749 46.9184 75.8966 46.9584C76.0182 46.9984 76.2007 47.0785 76.4034 47.1585C77.1129 47.4787 77.863 47.6988 78.6333 47.8589C79.424 48.019 80.2349 48.099 81.0458 48.099C82.3229 48.099 83.3163 47.8789 84.0055 47.4387C84.6745 47.0384 85.08 46.3181 85.0597 45.5376C85.08 45.0174 84.8772 44.5171 84.5123 44.1369C84.1474 43.7567 83.4582 43.4165 82.4648 43.0963L79.5253 42.1958C78.0454 41.7356 76.9507 41.0552 76.2817 40.1547C75.633 39.3143 75.2681 38.3137 75.2681 37.2532C75.2479 36.4727 75.4303 35.7123 75.8155 35.032C76.1804 34.3916 76.6669 33.8313 77.2751 33.3911C77.9035 32.9108 78.6131 32.5706 79.3834 32.3505C80.2146 32.1104 81.066 31.9903 81.9377 32.0103C82.3837 32.0103 82.85 32.0303 83.296 32.0904C83.7623 32.1504 84.188 32.2304 84.6137 32.3105C85.0394 32.3905 85.4043 32.5106 85.7692 32.6307C86.0733 32.7307 86.3571 32.8508 86.6207 32.9909C86.8639 33.1109 87.0667 33.271 87.2288 33.4911C87.3707 33.6912 87.4316 33.9114 87.4113 34.1515V35.092C87.4113 35.5122 87.2491 35.7323 86.945 35.7323C86.6815 35.6923 86.4179 35.6123 86.1747 35.4922C84.9583 34.9519 83.6203 34.6918 82.2824 34.7118C81.1268 34.7118 80.2146 34.8919 79.5861 35.2721C78.9577 35.6523 78.6333 36.2326 78.6333 37.0531C78.6131 37.5933 78.8361 38.1136 79.2415 38.4738C79.647 38.854 80.397 39.2342 81.4715 39.5744L84.3502 40.4749C85.8098 40.9351 86.8639 41.5755 87.4924 42.3959C88.1208 43.1964 88.4452 44.1969 88.4249 45.1974C88.4452 45.9979 88.2627 46.7983 87.8978 47.5187C87.5329 48.1991 87.0261 48.7994 86.4179 49.2797C85.7489 49.7999 84.9786 50.1801 84.1677 50.4003C83.2352 50.6804 82.2621 50.8205 81.2688 50.8205Z" fill="#252F3E"/>
<path d="M85.101 60.5457C78.4314 65.4083 68.7412 67.9897 60.4092 67.9897C48.7323 67.9897 38.2109 63.7274 30.2642 56.6436C29.6357 56.0833 30.2034 55.3229 30.9534 55.7631C39.5489 60.6858 50.1514 63.6674 61.1187 63.6674C69.025 63.6274 76.8501 62.0465 84.1279 59.0249C85.2429 58.5246 86.1957 59.7453 85.101 60.5457Z" fill="#FF9900"/>
<path d="M87.8784 57.424C87.0269 56.3434 82.2426 56.9037 80.0735 57.1639C79.4248 57.2439 79.3234 56.6836 79.9113 56.2634C83.7225 53.622 89.9867 54.3824 90.7165 55.2629C91.4463 56.1433 90.5138 62.3467 86.9458 65.3083C86.3985 65.7685 85.8714 65.5284 86.1147 64.9281C86.9256 62.947 88.7298 58.4846 87.8784 57.424Z" fill="#FF9900"/>
</g>
<defs>
<clipPath id="clip0_583_9060">
<rect width="62" height="36" fill="white" transform="translate(30 32)"/>
</clipPath>
</defs>
</svg>
