<svg width="121" height="100" viewBox="0 0 121 100" fill="none" xmlns="http://www.w3.org/2000/svg">
<rect width="120" height="100" transform="translate(0.5)" fill="white"/>
<path d="M78.0109 35.7214L73.3563 34.4874L73.7704 35.473C78.8557 37.0217 82.1603 39.5478 82.1603 42.3224C82.1603 47.0018 72.7931 50.7951 61.2477 50.7951C49.694 50.7951 40.3269 47.0018 40.3269 42.3224C40.3269 39.5313 43.6232 37.0052 48.7582 35.4564L48.3441 34.4708L45.5198 35.1997L41.3125 37.3696C37.3536 38.9432 35.6309 40.9972 35.6309 43.2748C35.6309 48.2607 47.1017 52.3024 61.2477 52.3024C75.3937 52.3024 86.8646 48.2607 86.8646 43.2748C86.8646 40.9972 84.471 38.9432 80.5204 37.3779" fill="#B3B7B8"/>
<path d="M60.7852 51.0684V50.9773H57.3316V50.8862H55.6006V50.7951H54.5984V50.704H53.5052V50.6129H52.6852V50.5218H51.9647V50.4307H51.327V50.3395H50.5981V50.2484H50.0515V50.1573H49.5049V50.0662H48.9582V49.9751H48.5027V49.884H48.0472V49.7929H47.5917V49.7018H47.1362V49.6107H46.7717V49.5196H46.3162V49.4285H45.9518V49.3374H45.5874V49.2463H45.3141V49.1635H44.9579V49.0724H44.5935V48.9813H44.2291V48.8902H43.9558V48.7991H43.6825V48.708H43.4092V48.6168H43.1358V48.5257H42.8625V48.4346H42.5892V48.3435H42.3159V48.2524H42.0426V48.1613H41.8604V48.0702H41.5871V47.9791H41.3138V47.888H41.1316V47.7969H40.8582V47.7058H40.676V47.6147H40.4938V47.5236H40.3116V47.4325H40.1294V47.3414H39.9472V47.2503H39.6739V47.1592H39.4917V47.0681H39.4006V46.977H39.2184V46.8859H39.0362V46.7948H38.8539V46.7037H38.7628V46.6126H38.5806V46.5214H38.3984V46.4303H38.2245V46.3392H38.1334V46.2481H38.0423V46.157H37.8601V46.0659H37.769V45.9748H37.5868V45.8837H37.4957V45.7926H37.4046V45.7015H37.2224V45.6104H37.1312V45.5193H37.0401V45.4282H36.949V45.3371H36.8579V45.246H36.7668V45.1549H36.6757V45.0638H36.5846V44.9727H36.4935V44.8816H36.4024V44.7905H36.3113V44.6994H36.2202V44.6083H36.1291V44.5172H36.038V44.3349H35.9469V44.2438H35.8558V44.1527H35.7647V43.9705H35.6736V43.7883H35.5825V43.6061H35.4914V43.4239H35.4003V43.1506H35.3092V42.7862H35.2181V42.1567H35.127V42.0656H35.2181V41.6101H35.3092V41.1546H35.4003V40.7902H35.4914V40.6991H35.5825V40.5168H35.6736V40.3346H35.7647V40.2435H35.8558V40.0613H35.9469V39.8791H36.038V39.788H36.1291V39.6058H36.3113V39.5147H36.4024V39.4236H36.4935V39.3325H36.5846V39.2414H36.6757V39.1503H36.7668V39.0592H36.8579V38.9681H36.949V38.877H37.0401V38.7859H37.1312V38.6948H37.2224V38.6037H37.3135V38.5126H37.4957V38.4214H37.5868V38.3303H37.769V38.2392H37.8601V38.1481H38.0423V38.057H38.1334V37.9659H38.3156V37.8748H38.3984V37.7837H38.5806V37.6926H38.6717V37.6015H38.8539V37.5104H39.0362V37.4193H39.2184V37.3282H39.4006V37.2371H39.5828V37.146H39.765V37.0549H39.9472V36.9638H40.1294V36.8727H40.3116V36.7816H40.4938V36.6905H40.676V36.5994H40.9493V36.5083H41.1316V36.4172H41.4049V36.3261H41.5871V36.2349H41.8604V36.1438H42.1337V36.0527H42.3159V35.9616H42.5892V35.8705H42.8625V35.7794H43.1358V35.6883H43.4092V35.5972H43.7736V35.5061H44.0469V35.415H44.3202V35.3322H44.6846V35.2411H44.9579V35.15H45.3141V35.0589H45.6785V34.9678H46.0429V34.8767H46.4073V34.7856H46.8628V34.6945H47.2273V34.6034H47.6828V34.5122H48.0472V34.4211H48.4116V34.5122H48.2294V34.6034H47.9561V34.6945H47.6828V34.7856H47.4095V34.8767H47.1362V34.9678H46.8628V35.0589H46.5895V35.15H46.4073V35.2411H46.134V35.3322H45.9518V35.415H45.7696V35.5061H45.4963V35.5972H45.3141V35.6883H45.049V35.7794H44.8668V35.8705H44.6846V35.9616H44.5024V36.0527H44.3202V36.1438H44.2291V36.2349H44.0469V36.3261H43.8647V36.4172H43.6825V36.5083H43.5003V36.5994H43.4092V36.6905H43.227V36.7816H43.1358V36.8727H42.9536V36.9638H42.8625V37.0549H42.6803V37.146H42.5892V37.2371H42.407V37.3282H42.3159V37.4193H42.2248V37.5104H42.1337V37.6015H41.9515V37.6926H41.8604V37.7837H41.7693V37.8748H41.6782V37.9659H41.5871V38.057H41.496V38.1481H41.4049V38.2392H41.3138V38.3303H41.2227V38.4214H41.1316V38.5126H41.0404V38.6948H40.9493V38.7859H40.8582V38.877H40.7671V39.0592H40.676V39.1503H40.5849V39.2414H40.4938V39.5147H40.4027V39.6969H40.3116V39.8791H40.2205V40.0613H40.1294V40.4257H40.0383V41.0635H39.9472V41.4279H40.0383V42.0656H40.1294V42.2478H40.2205V42.5129H40.3116V42.6951H40.4027V42.8773H40.4938V43.0595H40.5849V43.1506H40.676V43.3328H40.7671V43.4239H40.8582V43.6061H40.9493V43.6972H41.0404V43.7883H41.1316V43.8794H41.2227V43.9705H41.3138V44.0616H41.4049V44.2438H41.496V44.3349H41.5871V44.4261H41.7693V44.5172H41.8604V44.6083H41.9515V44.6994H42.0426V44.7905H42.1337V44.8816H42.3159V44.9727H42.407V45.0638H42.4981V45.1549H42.6803V45.246H42.7714V45.3371H42.9536V45.4282H43.0447V45.5193H43.227V45.6104H43.3181V45.7015H43.5003V45.7926H43.6825V45.8837H43.7736V45.9748H43.9558V46.0659H44.138V46.157H44.3202V46.2481H44.5024V46.3392H44.6846V46.4303H44.8668V46.5214H45.049V46.6126H45.3141V46.7037H45.4963V46.7948H45.6785V46.8859H45.8607V46.977H46.134V47.0681H46.4073V47.1592H46.5895V47.2503H46.8628V47.3414H47.1362V47.4325H47.4095V47.5236H47.5917V47.6147H47.9561V47.7058H48.2294V47.7969H48.5938V47.888H48.8671V47.9791H49.1404V48.0702H49.5049V48.1613H49.9604V48.2524H50.3248V48.3435H50.6892V48.4346H51.0536V48.5257H51.6003V48.6168H52.0558V48.708H52.503V48.7991H53.0497V48.8902H53.6874V48.9813H54.3251V49.0724H55.0539V49.1635H55.965V49.2463H56.9671V49.3374H58.5159V49.4285H63.1539V49.3374H64.7027V49.2463H65.7049V49.1635H66.6076V49.0724H67.3365V48.9813H67.9742V48.8902H68.6119V48.7991H69.1585V48.708H69.6141V48.6168H70.0696V48.5257H70.6162V48.4346H70.9806V48.3435H71.345V48.2524H71.7095V48.1613H72.165V48.0702H72.5294V47.9791H72.8027V47.888H73.0677V47.7969H73.4322V47.7058H73.7055V47.6147H74.0699V47.5236H74.2521V47.4325H74.5254V47.3414H74.7987V47.2503H75.072V47.1592H75.3454V47.0681H75.5276V46.977H75.8009V46.8859H75.9831V46.7948H76.1653V46.7037H76.3475V46.6126H76.6208V46.5214H76.803V46.4303H76.9852V46.3392H77.1674V46.2481H77.3497V46.157H77.5319V46.0659H77.7141V45.9748H77.8963V45.8837H77.9874V45.7926H78.1696V45.7015H78.3518V45.6104H78.4429V45.5193H78.6251V45.4282H78.7162V45.3371H78.8984V45.246H78.9895V45.1549H79.1717V45.0638H79.2628V44.9727H79.3539V44.8816H79.5362V44.7905H79.6273V44.6994H79.7184V44.6083H79.8012V44.5172H79.8923V44.4261H80.0745V44.3349H80.1656V44.2438H80.2567V44.0616H80.3478V43.9705H80.4389V43.8794H80.53V43.7883H80.6211V43.6972H80.7122V43.6061H80.8033V43.515H80.8944V43.3328H80.9855V43.1506H81.0766V43.0595H81.1677V42.8773H81.2589V42.7862H81.35V42.5129H81.4411V42.2478H81.5322V42.0656H81.6233V41.4279H81.7144V40.9724H81.6233V40.4257H81.5322V40.0613H81.4411V39.8791H81.35V39.6969H81.2589V39.5147H81.1677V39.2414H81.0766V39.1503H80.9855V39.0592H80.8944V38.877H80.8033V38.7859H80.7122V38.6948H80.6211V38.5126H80.53V38.4214H80.4389V38.3303H80.3478V38.2392H80.2567V38.1481H80.1656V38.057H80.0745V37.9659H79.9834V37.8748H79.8923V37.7837H79.8012V37.6926H79.6273V37.6015H79.5362V37.5104H79.445V37.4193H79.3539V37.3282H79.2628V37.2371H79.0806V37.146H78.9895V37.0549H78.8073V36.9638H78.7162V36.8727H78.534V36.7816H78.4429V36.6905H78.2607V36.5994H78.1696V36.5083H77.9874V36.4172H77.8052V36.3261H77.623V36.2349H77.4408V36.1438H77.2585V36.0527H77.1674V35.9616H76.9852V35.8705H76.803V35.7794H76.5297V35.6883H76.3475V35.5972H76.1653V35.5061H75.892V35.415H75.7098V35.3322H75.5276V35.2411H75.2542V35.15H75.072V35.0589H74.7987V34.9678H74.5254V34.8767H74.2521V34.7856H73.9788V34.6945H73.7055V34.6034H73.4322V34.5122H73.3411V34.4211H73.6144V34.5122H73.9788V34.6034H74.4343V34.6945H74.7987V34.7856H75.1631V34.8767H75.6187V34.9678H75.9831V35.0589H76.3475V35.15H76.7119V35.2411H76.9852V35.3322H77.3497V35.415H77.623V35.5061H77.8963V35.5972H78.2607V35.6883H78.534V35.7794H78.8073V35.8705H79.0806V35.9616H79.3539V36.0527H79.5362V36.1438H79.8012V36.2349H80.0745V36.3261H80.2567V36.4172H80.53V36.5083H80.8033V36.5994H80.9855V36.6905H81.1677V36.7816H81.35V36.8727H81.5322V36.9638H81.7144V37.0549H81.8966V37.146H82.0788V37.2371H82.261V37.3282H82.4432V37.4193H82.6254V37.5104H82.8076V37.6015H82.9898V37.6926H83.0809V37.7837H83.2631V37.8748H83.3543V37.9659H83.5365V38.057H83.6276V38.1481H83.8098V38.2392H83.9009V38.3303H84.0831V38.4214H84.1742V38.5126H84.3564V38.6037H84.4475V38.6948H84.5386V38.7859H84.6297V38.877H84.7208V38.9681H84.8119V39.0592H84.903V39.1503H84.9941V39.2414H85.0852V39.3325H85.1763V39.4236H85.3585V39.5147H85.4496V39.6058H85.5408V39.788H85.6319V39.8791H85.723V40.0613H85.8141V40.2435H85.9052V40.3346H85.9963V40.5168H86.0874V40.6991H86.1785V40.7902H86.2696V41.1546H86.3607V41.6101H86.4518V42.0656H86.5429V42.1567H86.4518V42.7862H86.3607V43.1506H86.2696V43.4239H86.1785V43.6061H86.0874V43.7883H85.9963V43.9705H85.9052V44.1527H85.8141V44.2438H85.723V44.3349H85.6319V44.5172H85.5408V44.6083H85.4496V44.6994H85.3585V44.8816H85.1763V44.9727H85.0852V45.0638H84.9941V45.1549H84.903V45.246H84.8119V45.3371H84.7208V45.4282H84.6297V45.5193H84.5386V45.6104H84.4475V45.7015H84.2653V45.7926H84.1742V45.8837H84.0831V45.9748H83.9009V46.0659H83.8098V46.157H83.6276V46.2481H83.5365V46.3392H83.4454V46.4303H83.2631V46.5214H83.0809V46.6126H82.8987V46.7037H82.8076V46.7948H82.6254V46.8859H82.4432V46.977H82.261V47.0681H82.1699V47.1592H81.9877V47.2503H81.7144V47.3414H81.5322V47.4325H81.35V47.5236H81.1677V47.6147H80.9855V47.7058H80.8033V47.7969H80.53V47.888H80.3478V47.9791H80.0745V48.0702H79.8012V48.1613H79.6273V48.2524H79.3539V48.3435H79.0806V48.4346H78.8984V48.5257H78.534V48.6168H78.2607V48.708H77.9874V48.7991H77.7141V48.8902H77.4408V48.9813H77.0763V49.0724H76.7119V49.1635H76.4386V49.2463H76.0742V49.3374H75.7098V49.4285H75.3454V49.5196H74.8898V49.6107H74.5254V49.7018H74.0699V49.7929H73.6144V49.884H73.1588V49.9751H72.7116V50.0662H72.165V50.1573H71.6184V50.2484H71.0717V50.3395H70.3429V50.4307H69.7052V50.5218H68.9763V50.6129H68.1564V50.704H67.0631V50.7951H66.061V50.8862H64.3383V50.9773H60.8763V51.0684" fill="url(#paint0_linear_583_9090)"/>
<path d="M68.0654 33.6509L68.0488 33.303L68.024 32.9717L67.9825 32.6404L67.9163 32.3092L67.85 31.9862L67.7589 31.6714L67.6513 31.365L67.5436 31.0585L67.4111 30.7687L67.2537 30.4871L67.1046 30.1972L66.9224 29.9404L66.7485 29.6754L66.5497 29.4269L66.3261 29.1868L66.1108 28.9466L65.8871 28.723L65.647 28.5242L65.3819 28.3337L65.1169 28.1349L64.8519 27.9527L64.5703 27.8036L64.2804 27.6711L63.9988 27.5138L63.6924 27.4061L63.3776 27.2984L63.0712 27.2073L62.7399 27.1411L62.4169 27.0748L62.0856 27.0334L61.7543 27.0085H61.0752L60.719 27.0334L60.3878 27.0748L60.0565 27.1411L59.75 27.2073L59.4187 27.2984L59.1123 27.4061L58.8307 27.5138L58.516 27.6711L58.2344 27.8036L57.9694 27.9527L57.6795 28.1349L57.4393 28.3337L57.1743 28.5242L56.9341 28.723L56.7187 28.9466L56.4951 29.1868L56.2715 29.4269L56.0727 29.6754L55.8988 29.9404L55.7249 30.1972L55.5675 30.4871L55.4184 30.7687L55.2859 31.0585L55.1534 31.365L55.0623 31.6714L54.9795 31.9862L54.8884 32.3092L54.847 32.6404L54.7973 32.9717L54.7807 33.303L54.7559 33.6509L54.7807 33.9822L54.7973 34.3383L54.847 34.6696L54.8884 34.9926L54.9795 35.3073L55.0623 35.6303L55.1534 35.945L55.2859 36.2515L55.4184 36.5331L55.5675 36.823L55.7249 37.1046L55.8988 37.3696L56.0727 37.6346L56.2715 37.8748L56.4951 38.1233L56.7187 38.3635L56.9341 38.5788L57.1743 38.7776L57.4393 38.9763L57.6795 39.1751L57.9694 39.3325L58.2344 39.5064L58.516 39.6389L58.8307 39.7714L59.1123 39.9039L59.4187 40.0116L59.75 40.1027L60.0565 40.169L60.3878 40.2352L60.719 40.2766L61.0752 40.2932H61.7543L62.0856 40.2766L62.4169 40.2352L62.7399 40.169L63.0712 40.1027L63.3776 40.0116L63.6924 39.9039L63.9988 39.7714L64.2804 39.6389L64.5703 39.5064L64.8519 39.3325L65.1169 39.1751L65.3819 38.9763L65.647 38.7776L65.8871 38.5788L66.1108 38.3635L66.3261 38.1233L66.5497 37.8748L66.7485 37.6346L66.9224 37.3696L67.1046 37.1046L67.2537 36.823L67.4111 36.5331L67.5436 36.2515L67.6513 35.945L67.7589 35.6303L67.85 35.3073L67.9163 34.9926L67.9825 34.6696L68.024 34.3383L68.0488 33.9822L68.0654 33.6509Z" stroke="#737A7B" stroke-width="2.1239" stroke-miterlimit="10"/>
<path d="M63.03 28.9052L63.0052 28.7892L62.9637 28.6816L62.9223 28.5905L62.8561 28.4828L62.6739 28.3337L62.4585 28.1763L62.2183 28.0438L61.9285 27.9527L61.622 27.9113H61.2907L60.9594 27.9362L60.653 28.019L60.3631 28.1349L60.1229 28.2675L59.9242 28.4414L59.7751 28.6153L59.7337 28.723L59.684 28.8389L59.6426 28.9466V29.1619L59.6674 29.2779L59.7088 29.3855L59.7751 29.4767L59.8414 29.5595L59.9242 29.6506L60.1229 29.8079L60.388 29.9322L60.6779 29.9984L61.0091 30.0481L61.3818 30.0647L61.7297 30.0233L62.0361 29.9322L62.3509 29.8245L62.591 29.6754L62.7898 29.5181L62.8561 29.4104L62.9223 29.3193L62.9886 29.2116L63.0052 29.1205L63.03 29.0128V28.9052Z" stroke="#737A7B" stroke-width="2.1239" stroke-miterlimit="10"/>
<path d="M64.5447 29.1205L64.5282 28.9052L64.4619 28.6567L64.346 28.4579L64.2383 28.2674L64.0809 28.0687L63.907 27.8865L63.7082 27.7125L63.5094 27.58L63.2693 27.4309L63.0291 27.315L62.764 27.2073L62.4825 27.1411L62.1926 27.0748L61.9027 27.0334L61.5963 27.0085H61.265L60.9585 27.0334L60.6521 27.0748L60.3705 27.1411L60.0806 27.2322L59.8156 27.3398L59.5506 27.4723L59.3104 27.6049L59.0867 27.7788L58.8963 27.9527L58.714 28.1349L58.5401 28.3337L58.4076 28.5242L58.2999 28.7478L58.2337 28.988L58.1674 29.2116L58.1426 29.4518L58.1674 29.692L58.2088 29.9156L58.2751 30.1309L58.391 30.3297L58.5153 30.5285L58.6975 30.7273L58.8714 30.8846L59.0867 31.0337L59.3104 31.1662L59.5754 31.2987L59.8404 31.3898L60.1469 31.4727L60.4368 31.5223L60.7598 31.5638L61.091 31.5886L61.4472 31.5638L61.7785 31.5389L62.1015 31.4727L62.4162 31.4064L62.7226 31.3236L63.0042 31.1911L63.2693 31.0834L63.5094 30.926L63.7331 30.7687L63.9318 30.5947L64.1058 30.396L64.2631 30.222L64.3708 29.9984L64.4785 29.8079L64.5282 29.5843L64.5696 29.3441L64.5447 29.1205Z" stroke="#737A7B" stroke-width="2.1239" stroke-miterlimit="10"/>
<path d="M54.7969 33.1042V33.3693L54.8217 33.6095L54.8631 33.8745L54.9128 34.1147L54.9791 34.3549L55.0619 34.6033L55.1779 34.8435L55.2855 35.0837L55.418 35.3073L55.5671 35.5227L55.7245 35.7463L55.8984 35.9616L56.0723 36.1604L56.2711 36.3592L56.4947 36.5331L56.7183 36.7153L56.9585 36.8892L57.1987 37.0383L57.4389 37.1957L57.7039 37.3282L57.9938 37.4607L58.2754 37.5932L58.5653 37.7009L58.8717 37.792L59.1782 37.8748L59.4846 37.9411L59.8159 37.9908L60.1472 38.0322L60.4785 38.0736H61.5303L61.8864 38.0322L62.2343 37.9908L62.5656 37.9411L62.8969 37.8748L63.2282 37.792L63.5594 37.7009L64.1723 37.4773L64.7438 37.2205L65.2987 36.9141L65.8039 36.5828L66.2594 36.2018L66.4582 36.0113L66.657 35.8125L66.8558 35.5889L67.0297 35.3901L67.1871 35.1748L67.3444 34.9512L67.4687 34.711L67.5846 34.4874L67.6923 34.2472L67.7834 34.007L67.8496 33.7668L67.891 33.5184L67.9325 33.2782L67.9573 33.0131V32.5328" stroke="#737A7B" stroke-width="2.1239" stroke-miterlimit="10"/>
<path d="M54.7812 34.0981L54.7978 34.3797L54.8475 34.6695L54.8889 34.9511L54.9552 35.2162L55.0463 35.4812L55.1539 35.7462L55.2616 35.9864L55.3941 36.2266L55.5266 36.4668L55.684 36.7152L55.8579 36.9306L56.0319 37.1294L56.2058 37.3281L56.4046 37.5269L56.6282 37.7257L56.8518 37.8996L57.092 38.057L57.3322 38.206L57.5972 38.3634L57.8622 38.4959L58.1273 38.6284L58.4089 38.7361L58.6987 38.8272L59.0052 38.91L59.3116 39.0011L59.6181 39.0425L59.9493 39.1088L60.2806 39.1337L60.6119 39.1751H61.3159L61.6638 39.1502L62.0199 39.1088L62.3678 39.0674L62.7239 39.0177L63.0552 38.9349L63.3782 38.8686L63.6929 38.761L63.9993 38.645L64.3058 38.5373L64.5957 38.4048L64.8773 38.2723L65.1671 38.1232L65.4322 37.9659L65.6724 37.7919L65.9374 37.618L66.1527 37.4192L66.3763 37.237L66.5917 37.0217L66.7905 36.8229L66.9727 36.5993L67.1466 36.384L67.2957 36.1438L67.4282 35.9202L67.5607 35.68L67.6766 35.4149L67.7843 35.1748L67.8671 34.9097L67.9334 34.6695L67.9831 34.4045L68.0245 34.1146L68.0493 33.8496V33.5846L68.0245 33.303" stroke="#737A7B" stroke-width="2.1239" stroke-miterlimit="10"/>
<path d="M55.2611 31.1248L55.1535 31.4561L55.0706 31.7626L55.0209 32.0938L54.9961 32.4168V32.6653L55.0209 32.8806L55.0458 33.1291L55.112 33.3445L55.1783 33.5681L55.2611 33.7834L55.3522 33.9822L55.4599 34.2058L55.5924 34.4046L55.7249 34.5785L55.8823 34.7773L56.0562 34.9512L56.2301 35.1086L56.4289 35.2825L56.8513 35.5889L57.3068 35.854L57.7955 36.0941L58.3421 36.2929L58.9136 36.4503L59.5099 36.5579L60.1476 36.6491L60.8102 36.6656L61.4645 36.6491L62.1519 36.5828L62.7897 36.4668L63.4025 36.3178L63.9989 36.1438L64.5703 35.8954L65.0755 35.6552L65.5642 35.3487L66.0031 35.0423L66.3924 34.6862L66.7485 34.3383L66.9059 34.1395L67.0301 33.9408L67.1709 33.742L67.2786 33.5184L67.3863 33.3196L67.4774 33.1043L67.5436 32.8806L67.5851 32.6653L67.6265 32.4417L67.6513 32.2015V31.9779L67.6265 31.7377L67.5851 31.4561L67.5188 31.1911L67.4525 30.9012L67.3449 30.6362" stroke="#737A7B" stroke-width="2.1239" stroke-miterlimit="10"/>
<path d="M56.4953 29.1868L56.3213 29.427L56.164 29.6754L56.0149 29.9405L55.8989 30.1972L55.8161 30.4622L55.7499 30.7273L55.7002 30.9923L55.6836 31.2739V31.4975L55.7002 31.6963L55.725 31.8951L55.7913 32.0938L55.8327 32.2926L55.9238 32.4665L56.0149 32.6653L56.0977 32.8392L56.2054 33.0132L56.3379 33.1705L56.6278 33.477L56.9591 33.7834L57.3318 34.0484L57.7541 34.2886L58.2097 34.4874L58.6735 34.6696L59.2035 34.7938L59.7336 34.9098L60.3051 34.976L60.8931 34.9926L61.4894 34.976L62.0857 34.9098L62.6738 34.8187L63.2535 34.6862L63.7753 34.5371L64.2805 34.3383L64.7443 34.0898L65.1833 33.8497L65.6057 33.5681L65.9535 33.2616L66.26 32.9469L66.525 32.5991L66.641 32.4251L66.7486 32.2429L66.8397 32.069L66.906 31.8702L66.9722 31.6714L67.0137 31.4975L67.0302 31.2987V30.9012L67.0137 30.7024L66.9722 30.4622L66.906 30.2469L66.8149 29.9984L66.6824 29.7583L66.5499 29.5429L66.3759 29.2944L66.202 29.0791L65.9784 28.8389" stroke="#737A7B" stroke-width="2.1239" stroke-miterlimit="10"/>
<path d="M59.5343 27.2736L59.2196 27.3812L58.9628 27.5137L58.673 27.6463L58.4328 27.8036L58.1926 27.9775L57.969 28.1515L57.7536 28.3337L57.5466 28.5242L57.3727 28.7478L57.2236 28.9714L57.0911 29.1867L56.9834 29.4269L56.8923 29.6506L56.826 29.8907L56.7763 30.1558L56.7598 30.396L56.7763 30.7272L56.8509 31.0337L56.9585 31.3401L57.0911 31.63L57.2898 31.895L57.53 32.1352L57.795 32.3754L58.1015 32.5742L58.4328 32.7729L58.8055 32.9303L59.1782 33.0794L59.6006 33.1953L60.0395 33.2533L60.5033 33.3196L60.9588 33.3444L61.4641 33.3196L61.9527 33.2782L62.4165 33.1953L62.872 33.1042L63.2944 32.9717L63.7085 32.8144L64.0895 32.6404L64.4374 32.4251L64.7438 32.2015L65.0337 31.9779L65.2987 31.7211L65.4892 31.4561L65.6714 31.1662L65.8039 30.8598L65.8868 30.5699L65.9365 30.2469V29.9321L65.9116 29.7334L65.8702 29.5594L65.8039 29.3855L65.7377 29.1867L65.6466 29.0128L65.5389 28.8555L65.423 28.6815L65.3153 28.5242L65.0337 28.2177L64.7024 27.9527L64.3297 27.7125L63.9322 27.4972" stroke="#737A7B" stroke-width="2.1239" stroke-miterlimit="10"/>
<path d="M60.6113 27.0499L60.6776 27.1162L60.7438 27.2073L60.8101 27.3647L60.9178 27.6048L61.0503 27.9361L61.1828 28.3502L61.3153 28.9051L61.4478 29.4932L61.5969 30.1558L61.8619 31.6962L62.1021 33.2781L62.2181 34.007L62.3009 34.6861L62.3672 35.5226L62.4169 36.2515V37.5269L62.392 38.057L62.3257 38.5125L62.2843 38.9101L62.2181 39.2413L62.1518 39.5312L62.0607 39.7714L61.953 40.1027L61.8619 40.2518" stroke="#737A7B" stroke-width="2.1239" stroke-miterlimit="10"/>
<path d="M55.1542 35.9864L55.0631 35.5226L54.9803 35.0588L54.9141 34.6447V34.2058L54.9306 33.9821L54.9555 33.742L55.0217 33.5183L55.088 33.2616L55.1957 33.0131L55.3282 32.7481L55.4855 32.4665L55.6595 32.1766L55.8831 31.8702L56.1398 31.5637L56.4049 31.2739L56.7196 30.9923L57.026 30.7272L57.3573 30.4622L57.73 30.1972L58.0779 29.9818L58.4754 29.7582L58.873 29.5594L59.2705 29.3855L59.668 29.2282L60.0822 29.1205L60.4963 29.0128L60.9187 28.9466L61.3162 28.9052H62.1279L62.5503 28.9217L62.9395 28.9714L63.3619 29.0128L63.7595 29.0791L64.1322 29.1619L64.5049 29.2779L64.8776 29.4104L65.2337 29.5429L65.565 29.692L65.888 29.8742L66.1779 30.0647L66.4595 30.2634L66.7245 30.5036L66.9481 30.7521L67.1634 31.0171L67.3457 31.2987L67.4947 31.5886L67.6024 31.8702L67.7184 32.1766L67.8012 32.4665L67.8674 32.7481L67.9171 33.038L67.9834 33.5183L68.0248 33.9159V34.272" stroke="#737A7B" stroke-width="2.1239" stroke-miterlimit="10"/>
<path d="M59.4188 39.9868L59.0875 39.788L58.897 39.6638L58.6983 39.5064L58.4995 39.3325L58.3007 39.1337L58.1268 38.8935L57.9694 38.6285L57.8121 38.2972L57.7044 37.9245L57.6381 37.5021L57.6133 36.9969L57.6381 36.4503L57.7044 35.8291L57.8369 35.15L58.0357 34.3549L58.2096 33.8083L58.3918 33.303L58.5823 32.8144L58.8059 32.3754L59.0047 31.9613L59.22 31.5638L59.4436 31.2076L59.6673 30.8846L60.1062 30.2635L60.5452 29.7583L60.9344 29.3193L61.3154 28.9052L61.5805 28.6567L61.7544 28.5242L61.9283 28.4L62.1519 28.2592L62.3673 28.1515L62.6075 28.0438L62.8725 27.9362L63.1375 27.8699L63.4274 27.8202L63.7338 27.8036L64.0403 27.8202L64.3716 27.8699L64.678 27.9776L65.0093 28.1101L65.3654 28.3089" stroke="#737A7B" stroke-width="2.1239" stroke-miterlimit="10"/>
<path d="M55.8574 30.0233L56.1225 29.7168L56.2964 29.5429L56.4952 29.3441L56.7353 29.1453L57.0004 28.9466L57.3068 28.7726L57.6381 28.5904L57.9942 28.4579L58.3918 28.3503L58.8059 28.284H59.2448L59.485 28.3088L59.7335 28.3337L59.9737 28.3751L60.2387 28.4414L60.5037 28.5242L60.7605 28.6401L61.0255 28.7726L61.3154 28.9052L62.1271 29.3607L62.831 29.8245L63.4439 30.2469L63.974 30.661L64.4626 31.0585L64.8519 31.4312L65.208 31.8039L65.4896 32.1601L65.7132 32.5079L65.912 32.8392L66.0694 33.1457L66.2019 33.4521L66.3096 33.7668L66.3758 34.0484L66.5083 34.5785L66.5498 34.8601L66.5912 35.1499V35.7463L66.5746 36.0776L66.5498 36.384L66.4835 36.7153L66.4172 37.0383L66.3096 37.353L66.2019 37.6595L66.0694 37.9659L65.912 38.2558L65.7381 38.5125L65.5642 38.761L65.3405 39.0012L65.1169 39.1999" stroke="#737A7B" stroke-width="2.1239" stroke-miterlimit="10"/>
<path d="M59.9495 29.692L59.817 29.7582L59.4692 29.9984L58.9639 30.3959L58.6741 30.6361L58.3428 30.926L58.0363 31.2739L57.705 31.6548L57.3738 32.0441L57.0673 32.5079L56.7774 33.0131L56.5207 33.5432L56.2971 34.1147L56.206 34.4211L56.1231 34.7275L56.0569 35.0423L55.9906 35.3239L55.9658 35.6137L55.9492 35.8788V36.1189L55.9658 36.3591L55.9906 36.5993L56.032 36.8229L56.1646 37.2205L56.2971 37.5932L56.471 37.9245L56.6698 38.2061L56.8934 38.4711L57.0922 38.6947L57.2909 38.8686L57.4649 39.0177L57.7547 39.1999L57.8624 39.2662" stroke="#737A7B" stroke-width="2.1239" stroke-miterlimit="10"/>
<path d="M60.9179 30.0481L60.7854 30.6361L60.6281 31.2987L60.4541 32.1601L60.2802 33.1456L60.1063 34.2472L59.9738 35.3901L59.9075 35.9864L59.8578 36.5579L59.8164 37.3696V38.0736L59.8827 38.6699L59.9075 38.9101L59.9738 39.1502L60.0152 39.349L60.0814 39.5478L60.1725 39.7052L60.2554 39.8542L60.3465 39.9867L60.4541 40.1027L60.5701 40.1855L60.6943 40.2518" stroke="#737A7B" stroke-width="2.1239" stroke-miterlimit="10"/>
<path d="M62.0605 29.9322L62.1517 29.9984L62.4167 30.2469L62.5658 30.4208L62.7645 30.6362L62.9633 30.9012L63.1786 31.2077L63.4023 31.5638L63.6259 31.9613L63.8412 32.4003L64.0648 32.9055L64.2388 33.4604L64.4127 34.0484L64.5452 34.6862L64.6612 35.3902L64.7274 35.9202L64.744 36.4254V36.8892L64.7274 37.3034L64.6612 37.6843L64.5949 38.0322L64.5038 38.3386L64.3961 38.6285L64.2636 38.8935L64.1063 39.1089L63.9737 39.3325L63.7998 39.5064L63.6424 39.6803L63.4685 39.8129L63.1207 40.0779" stroke="#737A7B" stroke-width="2.1239" stroke-miterlimit="10"/>
<path d="M59.6672 28.7726L59.5513 28.7892L59.2448 28.8141L58.8059 28.8803L58.5408 28.9466L58.2592 29.0128L57.9445 29.1205L57.6132 29.253L57.2902 29.4104L56.9589 29.6091L56.6525 29.8245L56.3212 30.0895L56.0148 30.396L55.7249 30.7521L55.5261 31.0585L55.3522 31.3484L55.2197 31.63L55.0871 31.9199L54.996 32.1766L54.9132 32.4168L54.7973 32.9055L54.7559 33.303V33.8496" stroke="#737A7B" stroke-width="2.1239" stroke-miterlimit="10"/>
<path d="M62.8965 29.3193L63.0704 29.3607L63.5342 29.5595L63.8407 29.692L64.1968 29.8742L64.5943 30.0647L64.9836 30.3131L65.3811 30.5699L65.7787 30.8846L66.1514 31.2076L66.4827 31.5638L66.6566 31.7625L66.7891 31.9779L66.9216 32.1766L67.0542 32.4003L67.1453 32.6404L67.2281 32.8641L67.2943 33.1042L67.344 33.3693L67.4103 33.8745L67.4269 34.3383V34.7938L67.4103 35.1914L67.3606 35.5889L67.2943 35.945L67.2281 36.268L67.1701 36.5579L66.9879 37.0383L66.8388 37.3944L66.7229 37.618L66.6815 37.6843" stroke="#737A7B" stroke-width="2.1239" stroke-miterlimit="10"/>
<path d="M62.8301 28.4579L62.9626 28.4414L63.3104 28.4165H63.8405L64.1718 28.4414L64.5031 28.5076L64.8509 28.5739L65.2071 28.6815L65.5798 28.8389L65.9359 29.0377L66.2838 29.2779L66.4577 29.4104L66.615 29.5594L66.7724 29.7334L66.9215 29.9321L67.054 30.1309L67.1865 30.3545" stroke="#737A7B" stroke-width="2.1239" stroke-miterlimit="10"/>
<path d="M61.6641 27.9113L61.6889 27.8699L61.7552 27.7539L61.8628 27.58L61.9539 27.5137L62.045 27.4309L62.1527 27.3646L62.2852 27.2984L62.4343 27.2321L62.5917 27.2073L62.7904 27.1824L62.9892 27.2073L63.2294 27.2487L63.4696 27.3398" stroke="#737A7B" stroke-width="2.1239" stroke-miterlimit="10"/>
<path d="M60.4794 28.0439L60.3055 27.9113L60.1067 27.7788L59.8417 27.6712L59.6843 27.6049L59.5104 27.5552L59.3365 27.5386H59.1377L58.9389 27.5552L58.7153 27.6049L58.4999 27.6877L58.2598 27.8037" stroke="#737A7B" stroke-width="2.1239" stroke-miterlimit="10"/>
<path d="M55.7333 37.2703C55.783 37.3034 55.783 37.1875 55.8245 37.2372C55.8493 37.2703 55.9321 37.1792 55.957 37.2206C56.0067 37.2951 56.0812 37.204 56.1475 37.2703C56.1889 37.32 56.2468 37.3366 56.2883 37.3863C56.338 37.4359 56.4953 37.5353 56.545 37.585C56.5616 37.6016 56.6195 37.6844 56.6361 37.701C56.7521 37.8252 56.7769 37.6513 56.9011 37.759C56.9674 37.8169 57.1082 37.966 57.1579 38.0157C57.2407 38.1068 57.1745 38.4215 57.2738 38.4961C57.2573 38.5044 57.2241 38.8936 57.2076 38.9019C56.6692 38.4878 56.2054 37.9412 55.783 37.3614C55.7748 37.3448 55.7251 37.262 55.7333 37.2703Z" fill="#0056A4"/>
<path d="M64.1302 31.9448C64.271 31.9282 64.3538 31.9531 64.2544 32.0276C64.2461 32.0276 64.2378 32.069 64.2296 32.069C64.0888 32.1104 63.7575 31.9945 64.1302 31.9448Z" fill="#0056A4"/>
<path d="M62.5336 31.8951C62.7241 31.862 62.575 32.0856 62.5584 32.127C62.5336 32.1187 62.5087 32.1187 62.4839 32.1187C62.4756 32.0939 62.4922 32.0856 62.4673 32.0773C62.4673 32.069 62.4673 32.069 62.4673 32.069C62.3845 32.0359 62.194 32.0856 62.3017 31.9779C62.3679 31.9117 62.3762 31.9697 62.4508 31.9531C62.4673 31.9448 62.5004 31.9034 62.5336 31.8951Z" fill="#0056A4"/>
<path d="M63.6417 31.6964C63.65 31.6964 63.6831 31.7378 63.6914 31.746C63.7411 31.7626 63.8239 31.7543 63.8571 31.7792C63.9233 31.8123 63.8322 31.8454 63.8322 31.8454C63.8239 31.9034 63.8985 31.9365 63.8074 31.9531C63.6997 31.9779 63.5506 31.8371 63.4844 31.7626C63.5175 31.7543 63.5258 31.7543 63.5424 31.746C63.5672 31.7295 63.6169 31.6964 63.6417 31.6964Z" fill="#0056A4"/>
<path d="M61.654 31.4396C61.6705 31.4479 61.7202 31.4561 61.7285 31.4644C61.7533 31.6466 61.803 31.7709 61.6622 31.862C61.5132 31.9531 61.6125 31.746 61.596 31.6715C61.5629 31.5058 61.5049 31.5638 61.654 31.4396Z" fill="#0056A4"/>
<path d="M61.6388 31.1663C61.672 31.2739 61.6554 31.4727 61.498 31.2656C61.5477 31.2325 61.5974 31.1994 61.6388 31.1663Z" fill="#0056A4"/>
<path d="M57.306 28.3007C57.3143 28.3918 57.4965 28.5077 57.3557 28.5657C57.3475 28.5657 57.3226 28.6237 57.3723 28.6154C57.3723 28.6154 57.5711 28.5491 57.4882 28.5823C57.4551 28.5905 57.4137 28.6899 57.3971 28.7148C57.4303 28.6899 57.5959 28.5988 57.6125 28.574C57.5711 28.6402 57.4303 28.9715 57.3557 28.9632C57.3557 28.9632 57.3806 29.0626 57.3806 29.0709C57.306 29.2448 57.2563 29.0709 57.2895 29.3028C57.3309 29.3028 57.3889 29.3277 57.4634 29.3111C57.3226 29.5099 57.3557 29.5099 57.4882 29.6921C57.48 29.7086 57.4137 29.7666 57.4386 29.7915C57.2978 29.924 57.2895 29.9488 57.1818 29.7997C57.0741 29.8826 57.0576 29.8908 56.9416 29.866C56.9416 29.8494 56.983 29.7915 56.9333 29.7915C56.8588 29.7997 56.8091 29.9074 56.7594 29.9737C56.7428 29.9654 56.6849 29.9323 56.6683 29.9405C56.718 29.8577 56.7428 29.808 56.8008 29.7252C56.776 29.6921 56.7428 29.7252 56.7677 29.6672C56.7925 29.6092 57.0079 29.3608 57.0741 29.2697C57.3475 28.8887 56.8588 29.4519 56.7594 29.5181C56.5772 29.6341 56.4613 29.7252 56.3039 29.9157C56.3536 29.8991 56.3453 29.8826 56.4116 29.8826C56.4116 29.8826 56.3287 29.9737 56.3619 29.9819C56.279 30.0979 56.1631 30.2221 56.1051 30.3961C56.2294 30.2553 56.395 30.3546 56.279 30.57C56.2459 30.6362 56.1217 30.6528 56.072 30.6942C55.9395 30.8102 55.8567 30.9841 55.7655 31.1415C55.7655 31.1415 55.7241 31.0586 55.7324 31.0586C55.7738 30.9592 55.8484 30.8516 55.9063 30.7605C55.9312 30.7936 55.956 30.6528 55.9643 30.6362C55.8815 30.7688 55.7738 30.9344 55.6827 31.0669C55.4757 31.3816 55.3514 30.8267 55.0781 31.3237C55.368 30.7191 55.6165 30.2304 55.7987 29.9488C56.2045 29.3194 56.5606 28.9881 57.306 28.3007Z" fill="#0056A4"/>
<path d="M59.5102 29.485C59.5267 29.485 59.5599 29.5181 59.5764 29.5181C59.7752 29.5678 59.6344 29.6092 59.6344 29.7003C59.6261 29.7831 59.651 29.7666 59.6178 29.8494C59.4274 29.8577 59.3777 29.9074 59.2286 29.9405C59.1458 29.808 59.1789 29.8411 59.2783 29.7417C59.0712 29.6755 59.2866 29.6175 59.3859 29.6175C59.3942 29.5264 59.3942 29.485 59.5102 29.485Z" fill="#0056A4"/>
<path d="M59.8407 29.0378C60.0229 29.0461 60.2299 29.0378 59.9732 29.1454L59.9815 29.1869C60.2548 29.2283 60.172 29.2117 60.0643 29.3442C60.0146 29.4105 60.0394 29.4105 60.1223 29.4353C60.0063 29.4685 60.2631 29.6175 60.2879 29.6341C60.2631 29.6921 60.2796 29.7086 60.2548 29.7666C60.3459 29.8163 60.6109 29.8826 60.437 29.982C60.3624 30.0234 60.4784 30.0151 60.5032 30.0151C60.5032 30.0234 60.495 30.0565 60.495 30.0565C60.3542 30.1724 60.1554 30.0979 59.9649 30.1145C59.9401 30.1145 59.8158 30.189 59.8324 30.1807C59.791 30.189 59.5508 30.2553 59.6005 30.2139C59.6502 30.1724 59.7247 30.0731 59.7827 30.0565C59.8407 30.0399 59.9069 30.0648 59.9649 30.0482C59.9649 30.0482 59.998 30.0234 60.0063 30.0151C60.0063 30.0151 60.0146 29.982 60.0146 29.9737C59.9152 29.9654 59.7496 29.9571 59.675 29.9571C59.7744 29.8908 59.8904 29.8577 59.733 29.7915C59.9235 29.7583 59.9069 29.7335 60.0146 29.6589C59.998 29.6507 59.9401 29.6424 59.9318 29.6341C59.9152 29.6175 59.9401 29.5844 59.9401 29.5678C59.8738 29.5596 59.8407 29.5513 59.7993 29.5347C59.8158 29.5016 59.8655 29.4105 59.8075 29.3774C59.7993 29.3856 59.7578 29.3774 59.7496 29.3856C59.7413 29.4602 59.7578 29.5181 59.6916 29.4436C59.675 29.4188 59.6585 29.4022 59.6419 29.3691C59.6667 29.3442 59.7578 29.278 59.7661 29.2531C59.7744 29.22 59.7413 29.1786 59.7496 29.1454C59.7413 29.1372 59.8324 29.0543 59.8407 29.0378Z" fill="#0056A4"/>
<path d="M62.1014 27.2488C62.1097 27.3482 61.6873 27.2157 61.7039 27.2902C61.7204 27.2571 61.7536 27.5304 61.6128 27.3647C61.6128 27.3813 61.621 27.3896 61.621 27.4062C61.3643 27.3316 60.9999 27.0583 60.8177 27.1743C60.7266 27.2322 60.7431 27.4559 60.6603 27.547C60.6355 27.5718 60.71 27.2239 60.3124 27.2654C59.9894 27.0914 60.3042 27.0086 60.3373 27.0003C60.4864 26.9424 62.0434 26.7353 62.1014 27.2488Z" fill="#0056A4"/>
<path d="M58.7554 28.0273C58.7554 28.077 58.7554 28.1019 58.7554 28.135C58.8879 28.1184 58.9708 28.1516 59.0867 28.1267C59.1612 28.1184 59.0867 28.077 59.2441 28.1019C59.2275 28.1764 59.2275 28.193 59.2772 28.2592C59.2192 28.2841 58.9459 28.4 58.83 28.3918C58.7803 28.3835 58.6643 28.3172 58.6146 28.3007C58.6229 28.2675 58.6312 28.2758 58.6395 28.2344C58.5152 28.1847 58.5566 28.1847 58.6809 28.1764C58.4076 28.1599 58.6974 28.0605 58.7554 28.0273Z" fill="#0056A4"/>
<path d="M64.2968 27.5552C64.5452 27.6795 65.2327 28.0439 65.7627 28.516C66.5827 29.2531 67.502 30.2221 67.8995 31.8288C67.9658 32.0939 68.0569 32.4914 68.1066 32.8227C68.0817 32.8144 68.0238 32.8393 68.0072 32.8227C67.8913 32.9304 67.8416 32.889 67.7173 32.9221C67.7008 32.8227 67.6759 32.7979 67.6014 32.7647C67.5683 32.8144 67.5186 32.8558 67.4854 32.9055C67.444 32.8061 67.3363 32.7399 67.2287 32.6902C67.1956 32.6736 67.1459 32.6819 67.121 32.6571C67.0713 32.6157 67.0465 32.5246 67.0051 32.4831C66.9719 32.5577 66.9471 32.5742 66.8725 32.5742C66.914 32.773 67.0133 32.9055 67.121 33.038C67.121 33.038 67.2121 32.9966 67.1624 32.9966C67.1624 32.9966 67.2287 33.0049 67.237 33.0049C67.2701 33.0877 67.3529 33.2368 67.4523 33.1209C67.5268 33.0298 67.5268 32.9718 67.6262 32.8973C67.6345 33.0712 67.6511 33.1706 67.8002 33.1292C67.8333 33.1623 67.8581 33.2368 67.8995 33.2617C67.9078 33.27 67.8498 33.3942 67.8498 33.4107C67.9409 33.4522 67.8084 33.5433 67.8002 33.5433C67.8002 33.7006 67.7587 33.6344 67.7173 33.7172C67.6759 33.8 67.7256 33.8414 67.6676 33.916C67.6262 33.9657 67.5268 33.9988 67.4937 34.0485C67.4606 34.0899 67.4606 34.181 67.4606 34.2307C67.4357 34.2307 67.4192 34.2224 67.386 34.239L67.3695 34.2555C67.3281 34.2887 67.3115 34.3549 67.2701 34.388C67.2121 34.446 67.1293 34.4792 67.0713 34.5371C67.0548 34.5537 67.0548 34.5951 67.0299 34.6034C66.9968 34.62 66.9554 34.6034 66.9305 34.6117C66.8891 34.62 66.8311 34.6696 66.7814 34.6862C66.7235 34.7193 66.6986 34.7442 66.6738 34.8022C66.6572 34.7939 66.6158 34.8104 66.5992 34.8104C66.5827 34.7773 66.5413 34.7193 66.533 34.6862C66.5247 34.6531 66.5578 34.6448 66.5413 34.6117L66.4833 34.5785C66.4916 34.4543 66.475 34.3301 66.4087 34.2473C66.3839 34.2141 66.3259 34.2141 66.3011 34.181C66.2431 34.0816 66.3011 33.9739 66.2431 33.8994L66.1851 33.8911C66.1437 33.8663 66.0112 33.7338 65.9946 33.6841C65.9698 33.6178 66.0029 33.5267 65.9781 33.477C65.9615 33.4356 65.8538 33.419 65.8373 33.3776C65.8041 33.2865 65.8538 33.2203 65.7793 33.1457C65.7462 33.1209 65.6219 33.0795 65.5888 33.0546C65.5143 32.9884 65.5474 32.9055 65.5143 32.8393C65.5143 32.8393 65.4149 32.7482 65.3735 32.715L65.3486 32.6653C65.3569 32.6653 65.3569 32.6653 65.3652 32.6653C65.3983 32.5328 65.3735 32.4334 65.3238 32.3009C65.3155 32.2761 65.2575 32.1684 65.2575 32.1684C65.3155 32.1187 65.3735 32.0193 65.39 31.9531C65.3983 31.92 65.3735 31.8951 65.3983 31.8785C65.4149 31.8537 65.4729 31.8537 65.506 31.8454C65.506 31.746 65.5143 31.7212 65.564 31.6466C65.2492 31.5638 65.4232 31.7212 65.2492 31.7046C65.1416 31.6963 65.1333 31.5224 65.0505 31.481C64.9511 31.423 64.8848 31.4727 64.8434 31.5307C64.7606 31.4479 64.744 31.4893 64.6115 31.481C64.6115 31.481 64.5535 31.4644 64.5535 31.4561C64.4459 31.3899 64.4624 31.1994 64.3465 31.1414C64.3962 31.1249 64.4293 31.1083 64.4624 31.0917C64.4624 31.0917 64.4956 31.0338 64.4459 31.0255C64.4376 31.0255 64.4293 31.0089 64.421 31.0089L64.4044 30.9592C64.4376 30.9427 64.4624 30.9095 64.4956 30.9095C64.5701 30.9012 64.6198 30.9344 64.6695 30.9509C64.6778 30.9427 64.7026 30.9509 64.7109 30.9509L64.7357 30.8847C64.8268 30.9012 64.8765 30.9012 64.9511 30.9178L64.9594 30.8681C64.9925 30.8433 65.1084 30.8184 65.1664 30.8267C65.2244 30.835 65.3817 30.9012 65.4232 30.9427C65.4397 30.9592 65.448 31.0172 65.4729 31.0338C65.5143 31.0586 65.5722 31.042 65.6302 31.0503C65.6551 31.0503 65.7296 31.0917 65.7379 31.0917C65.8621 31.1 65.9118 31.0172 66.0692 31.0006C65.9781 30.9095 65.9201 30.7687 65.8207 30.6776C65.7793 30.6445 65.7296 30.6362 65.6965 30.5948C65.6219 30.512 65.5805 30.5285 65.4729 30.4788C65.4397 30.4623 65.4066 30.4126 65.3735 30.396C65.2492 30.338 65.0256 30.3132 64.8848 30.2801C64.8931 30.1973 64.8848 30.2055 64.9511 30.1476V30.0979C64.9345 30.0896 64.8931 30.0979 64.8765 30.1061C64.8765 30.0896 64.8517 30.0813 64.86 30.0565C64.8682 30.015 65.009 29.9902 64.8848 29.9405C64.8186 29.9819 64.7606 30.0482 64.6943 30.0979C64.6529 30.1227 64.537 30.1476 64.6115 30.1807C64.6363 30.1973 64.6529 30.2055 64.6943 30.2138C64.6943 30.2138 64.7357 30.2718 64.686 30.2801C64.6032 30.2884 64.5038 30.2055 64.421 30.2221C64.3548 30.2304 64.2305 30.3546 64.1725 30.396C64.214 30.4126 64.0566 30.8433 64.3216 30.9509L64.3713 30.9841C64.3879 30.9841 64.3796 31.0089 64.3962 31.0006L64.4044 31.0338C64.2636 31.0255 64.1808 31.1828 64.098 31.2408C64.1394 31.1 64.0814 31.1166 63.9489 31.0834C63.8909 31.1828 63.9572 31.1497 63.7916 31.1746L63.7998 31.216C63.833 31.2077 63.8909 31.3071 63.6508 31.2657C63.659 31.2905 63.6425 31.3071 63.659 31.3319C63.6673 31.3568 63.7419 31.3733 63.7584 31.3899C63.775 31.423 63.7502 31.5058 63.7998 31.5307C63.8247 31.539 63.8661 31.5224 63.8909 31.5224C63.9158 31.5307 63.9655 31.5969 63.9903 31.6052C64.0152 31.6135 63.9986 31.6135 64.0069 31.6466C63.8992 31.6135 63.6342 31.6301 63.5348 31.6301C63.5431 31.5969 63.5431 31.5887 63.5597 31.5473C63.5265 31.539 63.3775 31.5224 63.3443 31.481C63.3278 31.4644 63.336 31.4065 63.336 31.3899C63.2863 31.3816 63.2284 31.3485 63.1952 31.3319C63.2118 31.2408 63.2449 31.1828 63.1787 31.1331C63.1207 31.0917 63.0627 31.1 62.9882 31.0834C62.8557 31.042 62.6155 30.9012 62.5492 30.7853C62.425 30.8267 62.4416 30.8433 62.3339 30.8101C62.3339 30.8101 62.3173 30.7687 62.3173 30.7604C62.3422 30.7687 62.3256 30.7356 62.3256 30.7273C62.2676 30.7273 62.2511 30.7107 62.1765 30.7356C62.2179 30.8184 62.2097 30.8433 62.1848 30.9344C62.2428 30.9675 62.3256 30.9923 62.3753 31.042C62.4333 31.0917 62.4581 31.1663 62.5244 31.1994C62.5906 31.2325 62.6321 31.2077 62.7314 31.2242C62.806 31.2408 62.8971 31.3402 62.9716 31.365C63.0627 31.3982 63.1621 31.3982 63.2367 31.4396L63.2284 31.4893C63.1373 31.4727 63.0544 31.4727 62.9716 31.481C62.9799 31.5058 62.9633 31.5141 62.9633 31.539C63.0048 31.5555 63.071 31.5804 63.1207 31.5887C63.0627 31.7129 63.0379 31.8123 62.9219 31.8951C62.9136 31.8703 62.8888 31.8703 62.8722 31.8537C62.8805 31.8123 62.9136 31.7626 62.9054 31.7046C62.8888 31.6301 62.7646 31.5058 62.69 31.481C62.6652 31.4727 62.6321 31.481 62.6155 31.4727C62.6072 31.4727 62.6155 31.423 62.6155 31.423C62.5492 31.4065 62.4664 31.3568 62.4084 31.3485C62.3256 31.3319 62.2676 31.365 62.1931 31.3319C62.1848 31.3319 62.1765 31.2822 62.1765 31.2822C62.1186 31.2657 62.0523 31.2988 62.0026 31.2657C61.8949 31.2077 61.9198 30.9841 61.7624 30.9758C61.6796 30.9758 61.456 31.0172 61.4311 31.0669C61.4229 31.0917 61.4477 31.1497 61.4311 31.1746C61.4229 31.1828 61.3566 31.1828 61.34 31.1911C61.2986 31.216 61.2821 31.2822 61.2489 31.3153L61.2324 31.3402C61.0667 31.4065 60.8762 31.3236 60.7023 31.3816C60.5946 31.4147 60.6278 31.5224 60.6692 31.6052C60.6278 31.6301 60.5863 31.6632 60.5532 31.6798C60.4621 31.7295 60.1888 31.804 60.164 31.8785C60.1557 31.9034 60.1805 31.9282 60.1722 31.9531C60.1391 32.0442 60.1143 32.0359 60.1557 32.1684C60.1308 32.1767 60.0894 32.1601 60.0646 32.1767C60.0149 32.2015 59.9155 32.4086 59.8078 32.4252C59.7498 32.4334 59.6753 32.3755 59.6173 32.3755C59.4848 32.3755 59.402 32.4417 59.2778 32.4666C59.2281 32.4169 59.1452 32.3672 59.1038 32.3175C59.0956 32.3009 59.0955 32.2512 59.079 32.2347L58.9879 32.2181C58.8968 32.2181 58.8057 32.2512 58.7146 32.2347C58.7394 32.1353 58.7643 32.1022 58.8057 32.0193C58.7063 31.9945 58.7311 32.0276 58.6897 31.9448C58.7725 31.862 58.8636 31.7377 58.9216 31.6384C58.9796 31.5307 58.9051 31.4644 58.8802 31.3236C58.9051 31.3236 58.9796 31.3236 59.0127 31.3153C59.0376 31.3071 59.0376 31.2491 59.079 31.2408C59.1204 31.2325 59.137 31.2574 59.1618 31.2657C59.2032 31.2739 59.2695 31.3153 59.3026 31.3236C59.3606 31.3236 59.402 31.2988 59.4351 31.2988C59.5594 31.3071 59.725 31.4561 59.9321 31.3733C59.9817 31.3485 59.9817 31.2574 60.0066 31.2077C60.0397 31.1249 60.048 31.1166 60.1474 31.1331C60.0646 31.0089 60.0232 30.9427 59.8824 30.8764C59.9155 30.8101 59.9238 30.7687 59.8492 30.7273C59.7913 30.7025 59.6919 30.7107 59.6422 30.6776C59.6008 30.6528 59.6008 30.5782 59.6008 30.5617C59.6753 30.57 59.7747 30.5451 59.8741 30.57C60.0149 30.6031 60.0232 30.5782 59.9238 30.4788C59.9486 30.4623 59.9735 30.454 60.0066 30.4292C60.0563 30.4871 60.1557 30.5617 60.2799 30.5285C60.3627 30.5037 60.3213 30.454 60.2965 30.4043C60.3627 30.3546 60.3959 30.2801 60.4621 30.2304C60.4952 30.2055 60.5367 30.2055 60.5615 30.189C60.6112 30.1476 60.6692 30.0233 60.7271 30.0068C60.7934 29.9819 60.8845 29.9902 60.9425 29.9736C60.9425 29.9736 60.9508 29.9074 60.9508 29.8908C60.9425 29.8908 60.9011 29.8991 60.8928 29.8991C60.8928 29.8577 60.9011 29.7997 60.8928 29.7417C60.9673 29.7252 61.1164 29.7417 61.1661 29.7252C61.2158 29.7086 61.133 29.6589 61.1744 29.6341C61.2158 29.6092 61.34 29.6009 61.3897 29.5926C61.3897 29.4684 61.3483 29.4436 61.2903 29.3607C61.1827 29.2117 61.5057 29.2862 61.2738 29.2448C61.2738 29.2282 61.2821 29.1868 61.2821 29.1868C61.4146 29.1454 61.4891 29.1123 61.456 29.2448C61.4808 29.2531 61.5222 29.2531 61.5554 29.2614C61.5554 29.2696 61.5554 29.2945 61.5636 29.3028C61.5388 29.3359 61.4725 29.3773 61.4643 29.427C61.4394 29.543 61.5802 29.485 61.6216 29.5595C61.6299 29.5761 61.6133 29.6009 61.6299 29.6092C61.7873 29.5844 61.8618 29.5595 62.0026 29.6009C62.0854 29.4933 62.2676 29.4436 62.367 29.3525C62.3836 29.3607 62.4084 29.3442 62.425 29.3442C62.4416 29.3442 62.4664 29.3939 62.4747 29.3939C62.5824 29.4022 62.5492 29.3359 62.5492 29.3359V29.3111C62.5989 29.3111 62.6652 29.3276 62.6569 29.2945C62.6486 29.2779 62.6652 29.2779 62.6403 29.2862L62.6486 29.2448C62.6817 29.2448 62.69 29.2614 62.7314 29.2531C62.6403 29.1951 62.6155 29.1371 62.5989 28.9963C62.6072 28.9963 62.6569 28.9715 62.6735 28.9632C62.6155 28.839 62.69 28.7893 62.8391 28.7644C62.8557 28.7644 62.9468 28.7561 62.9468 28.7561C62.9633 28.7396 62.9799 28.7065 62.9882 28.6899C63.0876 28.7065 63.1373 28.6982 63.0296 28.6485C62.6983 28.4994 62.7397 28.9135 62.4084 28.7147C62.3587 28.6816 62.4084 28.6485 62.367 28.5988C62.3173 28.5325 62.1931 28.5491 62.2262 28.4249C62.2428 28.3586 62.3173 28.2758 62.3587 28.2178C62.2594 28.1433 62.2842 28.1184 62.1848 28.1764C62.1765 28.1847 62.1351 28.1764 62.1186 28.1764C62.102 28.2592 62.1268 28.3338 62.0606 28.3917C62.0275 28.4166 62.0109 28.4331 61.9529 28.4497C61.9281 28.7065 62.0275 28.6816 62.2262 28.7893C62.2097 28.8224 62.1931 28.8473 62.1848 28.8721C62.1103 28.8473 62.0771 28.8473 61.9778 28.8555C61.9778 28.8555 61.9778 28.8887 61.9778 28.8969C62.0275 28.8969 62.1683 28.9218 62.1683 28.9218C62.0771 28.9549 62.0109 28.9715 61.9446 29.0129C62.0192 29.1206 62.1103 29.2448 61.9281 29.3193C61.9529 29.3525 61.9612 29.3856 61.9695 29.3939C61.8618 29.4022 61.7376 29.4104 61.7127 29.3276C61.7044 29.2945 61.7376 29.3028 61.721 29.2779C61.7044 29.2448 61.6299 29.2282 61.6051 29.2034C61.5554 29.1454 61.5388 29.0792 61.4891 29.0295C61.4725 29.0129 61.456 28.9798 61.456 28.9798C61.3897 28.7893 61.4311 28.9384 61.2903 29.0295C61.2655 29.046 61.2324 29.0957 61.2075 29.0957C61.0419 29.1371 60.959 29.0295 60.9839 28.9218C60.9011 28.8721 60.8845 28.8804 60.9756 28.8307C60.9839 28.8224 60.9673 28.7976 60.9756 28.7893C60.9425 28.7561 60.8762 28.7396 60.8265 28.723C60.8928 28.6816 60.9011 28.6402 60.8845 28.5739C60.9259 28.5657 61.0087 28.5657 61.0584 28.5491L61.0502 28.4994C61.0502 28.4994 61.0998 28.5077 61.1164 28.5077C61.1247 28.4911 61.1081 28.458 61.1081 28.4414C61.1661 28.4249 61.2158 28.4083 61.2903 28.3917C61.2489 28.3255 61.2489 28.3338 61.3069 28.2592C61.3649 28.2675 61.4063 28.2758 61.4311 28.2675C61.4477 28.2592 61.4311 28.1764 61.4229 28.1764C61.4477 28.077 61.5057 28.0687 61.5222 27.9362C61.4725 27.9279 61.4229 27.9031 61.3897 27.8948C61.4643 27.8782 61.5057 27.8865 61.5636 27.8948V27.9362C61.5802 27.9445 61.6133 27.9279 61.6299 27.9362C61.6548 27.8865 61.6796 27.8534 61.7127 27.812C61.8038 27.8285 61.8701 27.8285 61.9115 27.7623C61.9363 27.7292 61.9198 27.7292 61.9363 27.6795C62.0357 27.6795 62.102 27.6877 62.1765 27.7043C62.2097 27.6712 62.1765 27.6712 62.2014 27.6546C62.2842 27.6877 62.2925 27.6877 62.2925 27.754C62.3836 27.7292 62.4333 27.6795 62.5078 27.7126C62.5161 27.7126 62.5575 27.7623 62.5575 27.7623C62.5989 27.7706 62.6652 27.7457 62.7314 27.754C62.9054 27.7706 62.9965 27.8037 63.1041 27.8782C63.1373 27.9031 63.2035 27.9942 63.1455 27.9528C63.1373 27.9528 63.1538 28.0025 63.1538 28.0025C62.9468 28.0439 62.7894 27.9942 62.6321 27.9445C62.6569 27.9859 62.6403 28.0107 62.69 28.0356C62.7563 28.0687 62.8391 28.0522 62.8971 28.0853C62.9633 28.1267 62.9965 28.1764 63.0793 28.2095C63.1787 28.2426 63.2367 28.2509 63.3692 28.2592C63.3526 28.2426 63.3278 28.2095 63.3195 28.2012C63.3195 28.2012 63.2946 28.1681 63.2863 28.1515C63.2946 28.1433 63.3443 28.1433 63.3443 28.135C63.3443 28.1267 63.336 28.1019 63.336 28.0936C63.1952 28.0439 63.2367 28.0025 63.2367 27.8865C63.1124 27.8368 63.2035 27.8948 63.1373 27.812C63.0959 27.7706 62.9054 27.7043 63.0627 27.7126C63.1621 27.7209 63.1373 27.7623 63.1952 27.7954C63.2118 27.8037 63.2201 27.7954 63.2449 27.8037C63.3278 27.8203 63.3775 27.8534 63.4851 27.87C63.4768 27.8617 63.452 27.8285 63.452 27.8285C63.4271 27.812 63.4023 27.7954 63.3857 27.7788C63.4271 27.696 63.4768 27.6712 63.4851 27.6132C63.5431 27.696 63.6259 27.7457 63.6922 27.812C63.6922 27.8037 63.6922 27.7623 63.6922 27.7623C63.6756 27.7209 63.6342 27.638 63.6094 27.5966C63.6259 27.5966 63.7833 27.5884 63.7833 27.5884C63.7253 27.5801 63.7087 27.5387 63.6673 27.5304C63.6673 27.5304 63.6176 27.5387 63.6094 27.5469C63.5845 27.4641 63.5514 27.4724 63.6259 27.4144C63.7584 27.4558 63.8578 27.5304 63.9986 27.5469C64.0814 27.5552 64.0235 27.5387 63.9821 27.5221C63.9986 27.5138 63.9903 27.5055 63.9986 27.5055C64.0235 27.4973 64.0649 27.5055 64.0897 27.4973M65.3321 32.6653C65.3238 32.6571 65.3403 32.6819 65.3403 32.6819C65.3817 32.773 65.506 33.2782 65.3321 33.1623C65.2658 33.1209 65.183 33.038 65.125 32.9801C65.1333 33.1954 65.2575 33.1126 65.3238 33.2368C65.3403 33.2617 65.3238 33.3114 65.3321 33.3445C65.3403 33.3528 65.564 33.5598 65.5888 33.5764C65.6219 33.5847 65.6716 33.5764 65.6965 33.593C65.7379 33.6261 65.7959 33.7669 65.8456 33.8166C65.887 33.858 65.9781 33.8828 66.0195 33.916C66.0526 33.9574 66.0443 34.0071 66.0609 34.0568C66.1106 34.181 66.152 34.3052 66.2182 34.4377C66.2265 34.4626 66.2845 34.4874 66.2928 34.5123C66.3342 34.5785 66.3176 34.6779 66.3756 34.7276C66.417 34.7607 66.5081 34.7442 66.5413 34.7856C66.6324 34.8767 66.533 34.8519 66.6903 34.9181C66.6821 35.0423 66.7069 35.1417 66.7483 35.2246C66.8643 35.1583 66.8808 35.092 66.9471 35.0506C66.9802 35.0341 67.0051 35.0506 67.0299 35.0258C67.0713 34.9927 67.0713 34.9098 67.1127 34.8767C67.2121 34.7939 67.3115 34.8104 67.3529 34.6779C67.3529 34.8601 67.3032 35.0009 67.2867 35.15C67.2867 35.1666 67.3032 35.2163 67.2949 35.266C67.2784 35.3239 67.2038 35.3902 67.1873 35.4399C67.1541 35.5144 67.179 35.5724 67.1541 35.6469C67.1376 35.6966 67.0713 35.796 67.0299 35.854C66.9968 35.8954 66.9222 35.9368 66.8891 35.9782C66.8394 36.0445 66.8228 36.1107 66.7814 36.1853C66.74 36.2515 66.6572 36.3261 66.6158 36.3923C66.5909 36.4503 66.5992 36.5 66.5661 36.5497C66.5413 36.5911 66.4833 36.6242 66.4584 36.6657C66.4087 36.7485 66.3756 36.8561 66.3425 36.9058C66.3259 36.9307 66.2845 36.9473 66.2762 36.9638C66.2265 37.0301 66.2017 37.1046 66.1603 37.1709C66.1437 37.1874 66.0857 37.2206 66.0775 37.2454C66.0609 37.2951 66.1023 37.3034 66.094 37.3448C66.094 37.3614 66.0526 37.3862 66.0443 37.4028C66.0857 37.4276 66.036 37.4939 66.036 37.5104V37.5436C66.0609 37.5436 66.0692 37.5353 66.094 37.527C66.0526 37.7258 66.0443 37.8997 65.9201 38.0488C65.829 38.1565 65.6716 38.2227 65.564 38.3304C65.5308 38.3552 65.5391 38.3966 65.5143 38.4298C65.4646 38.496 65.3735 38.5374 65.3155 38.5871C65.2824 38.612 65.3569 38.9019 65.3569 38.9101C65.2824 38.993 65.2492 39.1752 65.1581 39.2497C64.7606 39.5644 64.2802 39.7632 63.717 39.9703C63.6176 40.0117 63.3775 39.8626 63.2367 39.8543C63.187 39.8543 63.071 39.7715 63.0296 39.7384C63.0379 39.6721 63.0296 39.6721 63.0627 39.6058C62.9302 39.581 62.9385 39.5644 62.8971 39.4485C62.864 39.4485 62.8308 39.4568 62.7977 39.4568C62.8225 39.4402 62.748 39.3408 62.748 39.3325C62.748 39.3325 62.7397 39.2911 62.748 39.2911C62.7646 39.2828 62.806 38.993 62.8308 38.9515C62.8557 38.9019 62.9385 38.8687 62.9882 38.8439C62.9302 38.7279 62.9551 38.6285 62.8971 38.4877C62.8888 38.4712 62.8143 38.4215 62.806 38.4049C62.7811 38.3304 62.8308 38.2973 62.8225 38.2476C62.7977 38.1565 62.3422 37.8914 62.2262 37.8417C62.2262 37.8169 62.2097 37.792 62.2179 37.7672C62.2345 37.7175 62.425 37.6347 62.4416 37.5767C62.4581 37.527 62.4498 37.469 62.4581 37.4359C62.4333 37.4193 62.3753 37.4028 62.367 37.3779C62.3339 37.3034 62.3836 37.2868 62.3256 37.2371C62.2345 37.1626 62.0689 37.1709 61.9032 37.2206C61.8618 37.2288 61.8121 37.2785 61.7707 37.2868C61.5471 37.3034 61.6382 37.204 61.5802 37.088C61.5802 37.088 61.3649 36.9224 61.3235 36.8727L61.3069 36.8479C61.2655 36.8396 61.1827 36.8561 61.133 36.8644C60.9425 36.8976 60.8762 36.9887 60.8265 37.1129C60.8182 37.1377 60.8348 37.1626 60.8182 37.1792C60.7768 37.2123 60.7023 37.1957 60.6526 37.2206C60.6195 37.2371 60.5863 37.2785 60.5615 37.2951C60.4124 37.3614 60.2302 37.2868 60.048 37.32C60.0066 37.3282 59.8906 37.3365 59.8327 37.3531C59.7416 37.3862 59.667 37.527 59.5179 37.527C59.3606 37.5187 58.7974 37.0798 58.64 36.9804C58.5572 36.9224 58.4495 36.8976 58.3584 36.8479C58.2673 36.7899 58.3005 36.7071 58.1679 36.6242L58.1514 36.5994C58.1348 36.558 58.1514 36.5249 58.1514 36.4834C58.0768 36.4752 58.0437 36.4586 58.0023 36.4338C58.0271 36.3509 58.0354 36.3178 58.0603 36.2433C57.9775 36.1604 57.9112 36.1273 57.8532 36.0114C57.8781 35.9865 57.9526 35.9203 57.9526 35.8954C57.9609 35.8209 57.8698 35.7795 57.8532 35.7298C57.8284 35.6635 57.8781 35.4896 57.8863 35.3985C57.8698 35.3902 57.8698 35.3902 57.8532 35.3902C57.8532 35.3819 57.8532 35.3819 57.8532 35.3736C57.7621 35.266 57.8035 35.3736 57.8035 35.2163C57.8035 35.1914 57.7787 35.15 57.7787 35.15C57.7621 35.0755 57.7207 34.9927 57.7207 34.943C57.7207 34.8601 57.9029 34.7111 57.9609 34.6531C58.0023 34.62 58.0851 34.5868 58.11 34.5371C58.1183 34.5123 58.1762 34.2969 58.1845 34.2887C58.1845 34.2555 58.1597 34.2141 58.1679 34.181C58.1928 34.123 58.3419 34.0816 58.3916 34.0402C58.5241 33.9408 58.64 33.7917 58.7643 33.6758C58.814 33.6261 58.8636 33.5681 58.9216 33.5184C58.8554 33.4522 58.7891 33.3942 58.8471 33.3031C58.8885 33.2451 59.0873 33.1623 59.0707 33.0877C59.0707 33.0877 59.0707 33.0795 59.0707 33.0712C59.1287 33.038 59.2032 33.038 59.2612 33.0049C59.344 32.9469 59.286 32.8724 59.3275 32.8061C59.3771 32.7233 59.5014 32.6736 59.5594 32.5908C59.5676 32.5991 59.609 32.5908 59.6173 32.5908C59.6505 32.6405 59.6422 32.6819 59.725 32.6902C59.7995 32.6902 60.2054 32.6405 60.2882 32.6074C60.3296 32.5908 60.371 32.5246 60.4124 32.508C60.5367 32.4417 60.6857 32.3589 60.8348 32.3341C60.8845 32.3258 61.0087 32.3009 61.0584 32.3175C61.0667 32.3175 61.0833 32.3589 61.0916 32.3589C61.1992 32.3672 61.2075 32.3092 61.2489 32.2927C61.3069 32.2761 61.4394 32.2678 61.4891 32.2595C61.4974 32.2678 61.5222 32.2927 61.5222 32.3009C61.6051 32.3009 61.5968 32.2512 61.6465 32.243C61.7707 32.2015 61.8287 32.243 61.9115 32.2761C61.9612 32.2264 61.9446 32.2347 62.0275 32.2015C62.0192 32.3009 62.0275 32.2844 61.9612 32.3341C61.9695 32.3341 61.9695 32.3755 61.9695 32.3838C62.1186 32.4086 62.1268 32.4003 62.1517 32.5577C62.0192 32.5991 62.0026 32.5991 61.9695 32.715C61.9943 32.7316 62.1848 32.8641 62.1931 32.8724C62.3173 32.8973 62.4581 32.8393 62.5824 32.831C62.6321 32.889 62.7232 32.9884 62.806 32.9966C62.8722 33.0049 62.9468 32.9552 63.0296 32.9635C63.0379 32.9635 63.0544 32.9966 63.0627 32.9966C63.1373 33.0132 63.2532 33.0463 63.3526 33.0132C63.4768 32.9718 63.4023 32.8476 63.3609 32.7896C63.4106 32.7068 63.4354 32.6239 63.6176 32.6405C63.6425 32.6405 63.8495 32.6571 63.8909 32.6736C63.9241 32.6819 63.9406 32.7399 63.9738 32.7482C64.0649 32.7647 64.1891 32.7233 64.2885 32.7233C64.4541 32.7316 64.6363 32.7647 64.802 32.7896C64.8186 32.7647 64.8434 32.6902 64.8683 32.6819C64.9842 32.6322 65.125 32.715 65.1995 32.7316C65.2161 32.7233 65.2409 32.6819 65.2575 32.6736C65.2906 32.6653 65.3072 32.6571 65.3403 32.6653H65.3321Z" fill="#0056A4"/>
<path d="M35.8555 62.9865H39.276C43.1107 62.9865 46.4981 64.0218 46.4981 67.989C46.4981 71.9644 43.1107 72.9914 39.276 72.9914H35.8555M38.365 71.4178H39.7647C41.8601 71.4178 43.8892 70.1672 43.8892 67.989C43.8892 65.8107 41.8684 64.5601 39.7647 64.5601H38.365V71.4178Z" fill="#737A80"/>
<path d="M67.6086 72.8507C66.5568 73.0246 65.4139 73.1654 64.3206 73.1654C59.6412 73.1654 56.3945 71.5421 56.3945 68.1629C56.3945 64.7341 59.4175 62.8209 64.3206 62.8209C65.2731 62.8209 66.532 62.9452 67.5921 63.235L67.385 64.9246C66.2918 64.4939 65.2979 64.3945 64.2626 64.3945C61.281 64.3945 59.4175 65.9764 59.4175 68.0221C59.4175 70.0596 61.2396 71.5918 64.3206 71.5918C65.4553 71.5918 66.8053 71.4179 67.4844 71.1777" fill="#737A80"/>
<path d="M83.6853 62.9866H81.1758V72.9915H83.6853V62.9866Z" fill="#737A80"/>
<defs>
<linearGradient id="paint0_linear_583_9090" x1="35.2177" y1="42.7433" x2="86.4504" y2="42.7433" gradientUnits="userSpaceOnUse">
<stop stop-color="#0056A4"/>
<stop offset="0.1472" stop-color="#6A83C0"/>
<stop offset="0.3222" stop-color="#BCC3E2"/>
<stop offset="0.4458" stop-color="#EDEFF8"/>
<stop offset="0.5056" stop-color="white"/>
<stop offset="0.555" stop-color="#FEF4EE"/>
<stop offset="0.6528" stop-color="#F9D3BE"/>
<stop offset="0.7897" stop-color="#EF9972"/>
<stop offset="0.9589" stop-color="#E44222"/>
<stop offset="1" stop-color="#E12014"/>
</linearGradient>
</defs>
</svg>
