<svg width="24" height="24" viewBox="0 0 24 24" fill="none" xmlns="http://www.w3.org/2000/svg">
<path d="M6.43242 14.0865L5.73625 16.6854L3.19176 16.7393C2.43133 15.3288 2 13.7151 2 12.0003C2 10.342 2.40328 8.77828 3.11812 7.40137H3.11867L5.38398 7.81668L6.37633 10.0684C6.16863 10.6739 6.05543 11.3239 6.05543 12.0003C6.05551 12.7343 6.18848 13.4377 6.43242 14.0865Z" fill="#FBBB00"/>
<path d="M21.8252 10.1318C21.94 10.7368 21.9999 11.3615 21.9999 12C21.9999 12.7159 21.9246 13.4143 21.7812 14.0879C21.2944 16.3802 20.0224 18.3818 18.2604 19.7983L18.2598 19.7978L15.4065 19.6522L15.0027 17.1313C16.1719 16.4456 17.0857 15.3725 17.567 14.0879H12.2197V10.1318H17.645H21.8252Z" fill="#518EF8"/>
<path d="M18.26 19.7975L18.2606 19.798C16.5469 21.1755 14.3699 21.9996 12.0001 21.9996C8.19189 21.9996 4.88092 19.8711 3.19189 16.7387L6.43256 14.0859C7.27705 16.3398 9.45123 17.9442 12.0001 17.9442C13.0957 17.9442 14.1221 17.648 15.0029 17.131L18.26 19.7975Z" fill="#28B446"/>
<path d="M18.383 4.30219L15.1434 6.95437C14.2319 6.38461 13.1544 6.05547 12 6.05547C9.39344 6.05547 7.17859 7.73348 6.37641 10.0681L3.11871 7.40109H3.11816C4.78246 4.1923 8.1352 2 12 2C14.4264 2 16.6511 2.8643 18.383 4.30219Z" fill="#F14336"/>
</svg>
