<svg width="24" height="24" viewBox="0 0 24 24" fill="none" xmlns="http://www.w3.org/2000/svg">
<rect width="24" height="24" rx="4" fill="#2878B7"/>
<path d="M20 12.7444V18.2601H16.7713V13.0807C16.7713 11.8027 16.3004 10.9283 15.157 10.9283C14.2825 10.9283 13.7444 11.5336 13.5426 12.0718C13.4753 12.2735 13.4081 12.5426 13.4081 12.8789V18.2601H10.1794C10.1794 18.2601 10.2466 9.5157 10.1794 8.64126H13.4081V9.98655C13.8117 9.3139 14.6188 8.3722 16.3004 8.3722C18.3856 8.3722 20 9.78475 20 12.7444ZM6.81614 4C5.73991 4 5 4.73991 5 5.68161C5 6.62332 5.67264 7.36323 6.74888 7.36323C7.89238 7.36323 8.56502 6.62332 8.56502 5.68161C8.63229 4.67265 7.95964 4 6.81614 4ZM5.20179 18.2601H8.43049V8.64126H5.20179V18.2601Z" fill="white"/>
</svg>
