<svg width="56" height="56" viewBox="0 0 56 56" fill="none" xmlns="http://www.w3.org/2000/svg">
<path d="M0.475051 29.1469C-0.15835 28.5135 -0.15835 27.4865 0.47505 26.8531L26.8531 0.475051C27.4865 -0.15835 28.5135 -0.15835 29.1469 0.47505L55.5249 26.8531C56.1583 27.4865 56.1584 28.5135 55.525 29.1469L29.1469 55.5249C28.5135 56.1583 27.4865 56.1584 26.8531 55.525L0.475051 29.1469Z" fill="#6EA3C9"/>
<path d="M37 21.25L28.0676 29.4381C28.0293 29.4731 27.9707 29.4731 27.9324 29.4381L19 21.25M37 21.25H19M37 21.25V34.65C37 34.7052 36.9552 34.75 36.9 34.75H19.1C19.0448 34.75 19 34.7052 19 34.65V21.25M26.2302 28.0929L19.4707 34.2883M36.577 34.3027L29.6992 28.0664" stroke="white" stroke-width="1.5" stroke-linecap="round" stroke-linejoin="round"/>
</svg>
