<svg width="200" height="152" viewBox="0 0 200 152" fill="none" xmlns="http://www.w3.org/2000/svg">
<rect width="200" height="152" fill="white"/>
<g clip-path="url(#clip0_354_946)">
<path d="M77.0791 66.5221C77.0447 67.556 77.1821 68.5899 77.4567 69.5893C77.7657 70.4509 78.1434 71.278 78.5553 72.0707C78.6927 72.3119 78.7957 72.5876 78.7957 72.8633C78.7613 73.2769 78.521 73.6904 78.1434 73.8972L75.9804 75.3447C75.7058 75.517 75.3968 75.6548 75.0878 75.6548C74.7101 75.6204 74.3325 75.448 74.0578 75.1723C73.6115 74.6899 73.1652 74.1384 72.8219 73.5526C72.4785 72.9667 72.1352 72.3119 71.7576 71.5193C69.0796 74.6899 65.7151 76.2752 61.6639 76.2752C58.78 76.2752 56.4797 75.448 54.7974 73.7938C53.1151 72.1396 52.2568 69.934 52.2568 67.1769C52.2568 64.2476 53.2868 61.8696 55.3811 60.0775C57.4753 58.2854 60.2563 57.3894 63.7925 57.3894C64.9941 57.3894 66.2301 57.4928 67.4317 57.6651C68.702 57.8374 70.0066 58.1131 71.3799 58.4233V55.9075C71.3799 53.2883 70.8306 51.4618 69.7663 50.3934C68.702 49.3251 66.8137 48.8081 64.1701 48.8081C62.9342 48.8081 61.6639 48.946 60.4622 49.2561C59.192 49.5663 57.956 49.9454 56.7544 50.4279C56.3767 50.6002 55.9647 50.738 55.5527 50.8759C55.3811 50.9448 55.1751 50.9793 55.0034 50.9793C54.5228 50.9793 54.2824 50.6346 54.2824 49.9109V48.2222C54.2481 47.8087 54.3511 47.3951 54.5228 47.016C54.7974 46.7059 55.1064 46.4646 55.4841 46.2923C56.8574 45.603 58.2993 45.0861 59.8099 44.7415C61.5609 44.2934 63.3805 44.0867 65.1658 44.0867C69.2513 44.0867 72.2382 45.0172 74.1608 46.8782C76.0834 48.7392 77.0104 51.5652 77.0104 55.3561V66.5221H77.0791ZM63.1402 71.7605C64.3418 71.7605 65.5434 71.5537 66.6764 71.1402C67.9467 70.6921 69.0453 69.934 69.938 68.9345C70.4873 68.3142 70.8993 67.556 71.1052 66.7289C71.3456 65.7639 71.4486 64.73 71.4486 63.7306V62.2832C70.4186 62.0419 69.3543 61.8351 68.29 61.6973C67.2257 61.5594 66.1271 61.4905 65.0628 61.4905C62.7625 61.4905 61.0802 61.9385 59.9473 62.869C58.8143 63.7995 58.265 65.1091 58.265 66.8323C58.265 68.452 58.677 69.6583 59.5353 70.4854C60.3936 71.3125 61.5609 71.7605 63.1402 71.7605ZM90.709 75.4825C90.2627 75.517 89.782 75.4136 89.4043 75.1379C89.061 74.7588 88.7864 74.3108 88.6834 73.7938L80.6153 47.1539C80.4436 46.7059 80.3406 46.2578 80.3063 45.7754C80.272 45.3618 80.5466 44.9827 80.9586 44.9138H84.5292C85.1815 44.9138 85.6278 45.0172 85.8681 45.2584C86.1084 45.4997 86.3488 45.9477 86.5548 46.6025L92.2883 69.417L97.6441 46.6025C97.8158 45.9132 98.0217 45.4652 98.2964 45.2584C98.7084 45.0172 99.189 44.8793 99.6697 44.9138H102.416C103.069 44.9138 103.515 45.0172 103.79 45.2584C104.133 45.6375 104.373 46.0855 104.442 46.6025L109.866 69.6927L115.806 46.6025C115.909 46.0855 116.149 45.6375 116.493 45.2584C116.904 45.0172 117.351 44.8793 117.831 44.9138H121.024C121.436 44.8449 121.814 45.155 121.883 45.5686V45.7754C121.883 45.9477 121.848 46.1545 121.814 46.3268C121.745 46.6369 121.677 46.9126 121.574 47.1883L113.3 73.8283C113.094 74.5175 112.853 74.9656 112.579 75.1723C112.201 75.4136 111.72 75.5514 111.274 75.517H108.321C107.669 75.517 107.223 75.4136 106.948 75.1723C106.605 74.7932 106.364 74.3108 106.296 73.7938L100.974 51.5652L95.6871 73.7594C95.6185 74.2763 95.3782 74.7588 95.0348 75.1379C94.6228 75.4136 94.1422 75.517 93.6615 75.4825H90.709ZM134.826 76.413C133.041 76.413 131.255 76.2062 129.539 75.7927C127.822 75.3791 126.483 74.9311 125.591 74.4142C125.144 74.2074 124.767 73.8627 124.526 73.4492C124.389 73.139 124.32 72.8289 124.32 72.4842V70.7266C124.32 70.0029 124.595 69.6583 125.11 69.6583C125.316 69.6583 125.522 69.6927 125.728 69.7616C125.934 69.8306 126.243 69.9684 126.586 70.1063C127.788 70.6577 129.058 71.0368 130.363 71.3125C131.702 71.5882 133.075 71.726 134.448 71.726C136.611 71.726 138.293 71.3469 139.461 70.5888C140.594 69.8995 141.28 68.6588 141.246 67.3148C141.28 66.4187 140.937 65.5571 140.319 64.9024C139.701 64.2476 138.534 63.6617 136.852 63.1103L131.873 61.5594C129.367 60.7668 127.513 59.595 126.38 58.0442C125.282 56.5968 124.664 54.8736 124.664 53.0471C124.629 51.703 124.938 50.3934 125.591 49.2217C126.209 48.1188 127.033 47.1539 128.062 46.3957C129.127 45.5686 130.328 44.9827 131.633 44.6036C133.041 44.1901 134.483 43.9833 135.959 44.0177C136.714 44.0177 137.504 44.0522 138.259 44.1556C139.049 44.259 139.77 44.3968 140.491 44.5347C141.212 44.6725 141.83 44.8793 142.448 45.0861C142.963 45.2584 143.443 45.4652 143.89 45.7064C144.302 45.9132 144.645 46.1889 144.92 46.568C145.16 46.9126 145.263 47.2917 145.229 47.7053V49.3251C145.229 50.0488 144.954 50.4279 144.439 50.4279C143.993 50.3589 143.546 50.2211 143.134 50.0143C141.074 49.0838 138.808 48.6358 136.543 48.6703C134.586 48.6703 133.041 48.9804 131.976 49.6352C130.912 50.29 130.363 51.2894 130.363 52.7024C130.328 53.6329 130.706 54.529 131.393 55.1493C132.079 55.8041 133.35 56.4589 135.169 57.0448L140.044 58.5956C142.516 59.3883 144.302 60.4911 145.366 61.9041C146.43 63.2826 146.98 65.0057 146.945 66.7289C146.98 68.1074 146.671 69.4859 146.053 70.7266C145.435 71.8984 144.576 72.9322 143.546 73.7594C142.413 74.6554 141.109 75.3102 139.735 75.6893C138.156 76.1718 136.508 76.413 134.826 76.413Z" fill="#252F3E"/>
<path d="M141.315 93.162C130.02 101.537 113.609 105.982 99.4986 105.982C79.7233 105.982 61.9048 98.6416 48.4466 86.4417C47.3823 85.4768 48.3436 84.1672 49.6139 84.9254C64.1707 93.4033 82.1265 98.5383 100.7 98.5383C114.09 98.4693 127.342 95.7468 139.667 90.5428C141.556 89.6813 143.169 91.7835 141.315 93.162Z" fill="#FF9900"/>
<path d="M146.019 87.7858C144.577 85.9248 136.474 86.8898 132.801 87.3378C131.702 87.4756 131.53 86.5107 132.526 85.7869C138.981 81.2378 149.589 82.5474 150.825 84.0638C152.061 85.5802 150.482 96.2637 144.439 101.364C143.512 102.157 142.62 101.743 143.032 100.709C144.405 97.2976 147.461 89.6123 146.019 87.7858Z" fill="#FF9900"/>
</g>
<defs>
<clipPath id="clip0_354_946">
<rect width="105" height="62" fill="white" transform="translate(48 44)"/>
</clipPath>
</defs>
</svg>
