<svg width="200" height="152" viewBox="0 0 200 152" fill="none" xmlns="http://www.w3.org/2000/svg">
<rect width="200" height="152" fill="white"/>
<g clip-path="url(#clip0_354_951)">
<path d="M89.1134 94.8917V100.592C89.1134 102.212 88.3231 103.076 86.8871 103.076C85.443 103.076 84.648 102.187 84.648 100.523V94.8979H82.6612V100.592C82.6612 103.394 84.192 105 86.8609 105C89.5551 105 91.1002 103.364 91.1002 100.51V94.8917H89.1134ZM96.4231 94.8917L92.108 104.845H94.136L94.969 102.917L95.0286 102.773H99.5113L100.39 104.845H102.474L98.1987 94.9506L98.1603 94.8917L96.4231 94.8917ZM108.236 94.8917L106.013 101.74L103.848 94.8968H101.734L105.147 104.851H106.792L109.02 98.3119L111.246 104.851H112.905L116.31 94.8968H114.25L112.081 101.74L109.857 94.8917H108.236ZM127.679 94.8917V104.836H129.639V94.8917H127.679ZM71.4443 94.8923V104.851H73.4317V100.806H77.9188V104.851H79.9067V94.8923H77.9188V98.9096H73.4317V94.8923H71.4443ZM117.912 94.899V104.844H125.309V103.03H119.873V100.565H123.488V98.7509H119.873V96.7123H125.12V94.899H117.912ZM97.2649 97.4118L98.6817 100.746H98.6767L98.7731 100.976H95.7674L95.8626 100.746H95.8609L97.2649 97.4118Z" fill="#232527"/>
<path d="M96.192 43.9998C95.4037 44.0707 93.2736 44.5636 93.2736 44.5636H93.2727C88.4714 45.8254 87.3366 50.2552 87.3366 50.2552C87.1022 51.0001 86.9957 51.7635 86.9643 52.4828V53.4617C87.028 54.9741 87.3589 56.1034 87.3589 56.1034C88.9627 63.3338 96.8482 75.2142 98.5429 77.7099C98.6632 77.8312 98.7594 77.7874 98.7594 77.7874C98.9424 77.736 98.928 77.5576 98.928 77.5576L98.9315 77.5585C101.542 51.0313 96.192 43.9998 96.192 43.9998L96.192 43.9998ZM104.817 43.9998C104.817 43.9998 99.4438 51.035 102.056 77.5777H102.06C102.08 77.7462 102.197 77.7813 102.197 77.7813C102.372 77.8501 102.462 77.6794 102.462 77.6794L102.463 77.6811C104.201 75.1217 112.042 63.3059 113.638 56.1033C113.638 56.1033 114.504 52.6172 113.668 50.2551C113.668 50.2551 112.481 45.7566 107.674 44.5678C107.674 44.5678 106.289 44.2103 104.817 43.9996L104.817 43.9998ZM80.033 51.9633C80.033 51.9633 75.4583 56.3779 75.2309 61.058H75.2327V61.7672C75.2362 61.8206 75.2388 61.8746 75.2421 61.929C75.4392 65.7029 78.2316 67.9365 78.2316 67.9365C82.7307 72.3947 93.6247 78.0234 96.1562 79.3005C96.1916 79.314 96.3224 79.3574 96.3992 79.2588C96.3992 79.2588 96.4392 79.2279 96.4574 79.1725V79.055C96.4556 79.0483 96.4521 79.0415 96.4488 79.0341H96.4497C89.5171 63.6364 80.0331 51.9631 80.0331 51.9631L80.033 51.9633ZM120.965 51.9633C120.965 51.9633 111.509 63.5999 104.58 78.9664L104.583 78.9655C104.583 78.9655 104.501 79.1437 104.633 79.2588C104.633 79.2588 104.673 79.2891 104.727 79.3014H104.823C104.84 79.2963 104.859 79.2896 104.877 79.2769V79.2786C107.477 77.9665 118.287 72.3748 122.765 67.9372C122.765 67.9372 125.601 65.6219 125.749 61.9045C126.077 56.7414 120.965 51.9631 120.965 51.9631L120.965 51.9633ZM129.475 67.25C129.475 67.25 114.06 75.6608 106.09 81.127L106.091 81.1279L106.092 81.1296C106.092 81.1296 105.948 81.2259 105.998 81.3984C105.998 81.3984 106.074 81.5377 106.184 81.5377V81.5386C109.039 81.5436 119.842 81.5559 120.113 81.5046C120.113 81.5046 121.51 81.4478 123.236 80.7737C123.236 80.7737 127.078 79.5316 129.074 75.096C129.074 75.096 129.986 73.2413 129.999 70.6356V70.5252C129.993 69.5203 129.853 68.4079 129.475 67.25H129.475ZM71.5183 67.2892C70.1157 71.7037 72.0039 75.2609 72.0069 75.2666C73.9747 79.4938 77.7308 80.7746 77.7308 80.7746C79.4649 81.499 81.1995 81.5491 81.1995 81.5491C81.4703 81.5994 91.9855 81.5541 94.8029 81.5406C94.9222 81.5398 94.9878 81.4179 94.9878 81.4179C94.9961 81.4044 95.0034 81.3909 95.0067 81.3787V81.2682C94.9833 81.1943 94.9211 81.1421 94.9211 81.1421L94.9229 81.1412C86.9565 75.6769 71.5184 67.2894 71.5184 67.2894L71.5183 67.2892ZM94.4811 82.8978L76.3469 83.5443C78.3135 87.1086 81.6254 89.8787 85.0755 89.0279C87.4565 88.4228 92.8503 84.5976 94.6309 83.305L94.625 83.3C94.7634 83.1735 94.714 83.072 94.714 83.072C94.6684 82.9065 94.4812 82.9066 94.4812 82.9066L94.4811 82.8978ZM106.492 82.9112L106.49 82.918C106.49 82.918 106.331 82.9385 106.286 83.0598C106.286 83.0598 106.248 83.2255 106.355 83.3077L106.353 83.3094C108.089 84.5752 113.352 88.3164 115.888 89.0428C115.888 89.0428 116.272 89.1756 116.916 89.1994H117.303C119.001 89.1388 121.961 88.2515 124.65 83.5539L106.492 82.9112Z" fill="#CF0A2C"/>
</g>
<defs>
<clipPath id="clip0_354_951">
<rect width="59" height="61" fill="white" transform="translate(71 44)"/>
</clipPath>
</defs>
</svg>
