<svg width="200" height="152" viewBox="0 0 200 152" fill="none" xmlns="http://www.w3.org/2000/svg">
<rect width="200" height="152" fill="white"/>
<path d="M124.572 54.3755L117.849 52.593L118.447 54.0166C125.792 56.2537 130.566 59.9025 130.566 63.9101C130.566 70.6693 117.035 76.1485 100.359 76.1485C83.6699 76.1485 70.1396 70.6693 70.1396 63.9101C70.1396 59.8785 74.9009 56.2298 82.3181 53.9926L81.7199 52.569L77.6405 53.6218L71.5632 56.7561C65.8448 59.0292 63.3564 61.996 63.3564 65.2859C63.3564 72.4877 79.9255 78.3258 100.359 78.3258C120.792 78.3258 137.361 72.4877 137.361 65.2859C137.361 61.996 133.903 59.0292 128.197 56.7681" fill="#B3B7B8"/>
<path d="M99.6889 76.5433V76.4117H94.7003V76.2801H92.2V76.1485H90.7524V76.0169H89.1733V75.8853H87.9889V75.7537H86.9481V75.6221H86.027V75.4905H84.9742V75.3589H84.1846V75.2273H83.395V75.0957H82.6055V74.9641H81.9475V74.8325H81.2895V74.7009H80.6316V74.5693H79.9736V74.4377H79.4472V74.3062H78.7892V74.1746H78.2628V74.043H77.7365V73.9114H77.3417V73.7917H76.8273V73.6601H76.3009V73.5285H75.7745V73.3969H75.3797V73.2654H74.9849V73.1338H74.5901V73.0022H74.1954V72.8706H73.8006V72.739H73.4058V72.6074H73.011V72.4758H72.6162V72.3442H72.353V72.2126H71.9582V72.081H71.5635V71.9494H71.3003V71.8178H70.9055V71.6862H70.6423V71.5546H70.3791V71.423H70.1159V71.2914H69.8527V71.1598H69.5895V71.0282H69.1947V70.8966H68.9316V70.765H68.8V70.6334H68.5368V70.5019H68.2736V70.3703H68.0104V70.2387H67.8788V70.1071H67.6156V69.9755H67.3524V69.8439H67.1012V69.7123H66.9696V69.5807H66.838V69.4491H66.5748V69.3175H66.4432V69.1859H66.18V69.0543H66.0484V68.9227H65.9168V68.7911H65.6536V68.6595H65.522V68.5279H65.3905V68.3963H65.2589V68.2647H65.1273V68.1331H64.9957V68.0015H64.8641V67.87H64.7325V67.7384H64.6009V67.6068H64.4693V67.4752H64.3377V67.3436H64.2061V67.212H64.0745V67.0804H63.9429V66.8172H63.8113V66.6856H63.6797V66.554H63.5481V66.2908H63.4165V66.0276H63.2849V65.7644H63.1533V65.5012H63.0217V65.1065H62.8901V64.5801H62.7585V63.6709H62.627V63.5393H62.7585V62.8813H62.8901V62.2233H63.0217V61.6969H63.1533V61.5654H63.2849V61.3022H63.4165V61.039H63.5481V60.9074H63.6797V60.6442H63.8113V60.381H63.9429V60.2494H64.0745V59.9862H64.3377V59.8546H64.4693V59.723H64.6009V59.5914H64.7325V59.4598H64.8641V59.3282H64.9957V59.1966H65.1273V59.065H65.2589V58.9334H65.3905V58.8019H65.522V58.6703H65.6536V58.5387H65.7852V58.4071H66.0484V58.2755H66.18V58.1439H66.4432V58.0123H66.5748V57.8807H66.838V57.7491H66.9696V57.6175H67.2328V57.4859H67.3524V57.3543H67.6156V57.2227H67.7472V57.0911H68.0104V56.9595H68.2736V56.8279H68.5368V56.6963H68.8V56.5647H69.0631V56.4331H69.3263V56.3015H69.5895V56.17H69.8527V56.0384H70.1159V55.9068H70.3791V55.7752H70.6423V55.6436H71.0371V55.512H71.3003V55.3804H71.6951V55.2488H71.9582V55.1172H72.353V54.9856H72.7478V54.854H73.011V54.7224H73.4058V54.5908H73.8006V54.4592H74.1954V54.3276H74.5901V54.196H75.1165V54.0644H75.5113V53.9328H75.9061V53.8132H76.4325V53.6816H76.8273V53.55H77.3417V53.4184H77.8681V53.2868H78.3944V53.1552H78.9208V53.0236H79.5788V52.892H80.1052V52.7604H80.7631V52.6288H81.2895V52.4973H81.8159V52.6288H81.5527V52.7604H81.1579V52.892H80.7631V53.0236H80.3684V53.1552H79.9736V53.2868H79.5788V53.4184H79.184V53.55H78.9208V53.6816H78.526V53.8132H78.2628V53.9328H77.9997V54.0644H77.6049V54.196H77.3417V54.3276H76.9589V54.4592H76.6957V54.5908H76.4325V54.7224H76.1693V54.854H75.9061V54.9856H75.7745V55.1172H75.5113V55.2488H75.2481V55.3804H74.9849V55.512H74.7217V55.6436H74.5901V55.7752H74.327V55.9068H74.1954V56.0384H73.9322V56.17H73.8006V56.3015H73.5374V56.4331H73.4058V56.5647H73.1426V56.6963H73.011V56.8279H72.8794V56.9595H72.7478V57.0911H72.4846V57.2227H72.353V57.3543H72.2214V57.4859H72.0898V57.6175H71.9582V57.7491H71.8266V57.8807H71.6951V58.0123H71.5635V58.1439H71.4319V58.2755H71.3003V58.4071H71.1687V58.6703H71.0371V58.8019H70.9055V58.9334H70.7739V59.1966H70.6423V59.3282H70.5107V59.4598H70.3791V59.8546H70.2475V60.1178H70.1159V60.381H69.9843V60.6442H69.8527V61.1706H69.7211V62.0917H69.5895V62.6181H69.7211V63.5393H69.8527V63.8025H69.9843V64.1853H70.1159V64.4485H70.2475V64.7117H70.3791V64.9749H70.5107V65.1065H70.6423V65.3696H70.7739V65.5012H70.9055V65.7644H71.0371V65.896H71.1687V66.0276H71.3003V66.1592H71.4319V66.2908H71.5635V66.4224H71.6951V66.6856H71.8266V66.8172H71.9582V66.9488H72.2214V67.0804H72.353V67.212H72.4846V67.3436H72.6162V67.4752H72.7478V67.6068H73.011V67.7384H73.1426V67.87H73.2742V68.0015H73.5374V68.1331H73.669V68.2647H73.9322V68.3963H74.0638V68.5279H74.327V68.6595H74.4585V68.7911H74.7217V68.9227H74.9849V69.0543H75.1165V69.1859H75.3797V69.3175H75.6429V69.4491H75.9061V69.5807H76.1693V69.7123H76.4325V69.8439H76.6957V69.9755H76.9589V70.1071H77.3417V70.2387H77.6049V70.3703H77.8681V70.5019H78.1312V70.6334H78.526V70.765H78.9208V70.8966H79.184V71.0282H79.5788V71.1598H79.9736V71.2914H80.3684V71.423H80.6316V71.5546H81.1579V71.6862H81.5527V71.8178H82.0791V71.9494H82.4739V72.081H82.8687V72.2126H83.395V72.3442H84.053V72.4758H84.5794V72.6074H85.1058V72.739H85.6322V72.8706H86.4217V73.0022H87.0797V73.1338H87.7257V73.2654H88.5153V73.3969H89.4365V73.5285H90.3576V73.6601H91.4104V73.7917H92.7263V73.9114H94.1739V74.043H96.411V74.1746H103.11V74.043H105.348V73.9114H106.795V73.7917H108.099V73.6601H109.152V73.5285H110.073V73.3969H110.994V73.2654H111.784V73.1338H112.442V73.0022H113.1V72.8706H113.889V72.739H114.416V72.6074H114.942V72.4758H115.468V72.3442H116.126V72.2126H116.653V72.081H117.048V71.9494H117.43V71.8178H117.957V71.6862H118.351V71.5546H118.878V71.423H119.141V71.2914H119.536V71.1598H119.931V71.0282H120.325V70.8966H120.72V70.765H120.983V70.6334H121.378V70.5019H121.641V70.3703H121.905V70.2387H122.168V70.1071H122.563V69.9755H122.826V69.8439H123.089V69.7123H123.352V69.5807H123.615V69.4491H123.878V69.3175H124.142V69.1859H124.405V69.0543H124.536V68.9227H124.8V68.7911H125.063V68.6595H125.194V68.5279H125.458V68.3963H125.589V68.2647H125.852V68.1331H125.984V68.0015H126.247V67.87H126.379V67.7384H126.51V67.6068H126.774V67.4752H126.905V67.3436H127.037V67.212H127.156V67.0804H127.288V66.9488H127.551V66.8172H127.683V66.6856H127.814V66.4224H127.946V66.2908H128.078V66.1592H128.209V66.0276H128.341V65.896H128.472V65.7644H128.604V65.6328H128.736V65.3696H128.867V65.1065H128.999V64.9749H129.13V64.7117H129.262V64.5801H129.394V64.1853H129.525V63.8025H129.657V63.5393H129.788V62.6181H129.92V61.9601H129.788V61.1706H129.657V60.6442H129.525V60.381H129.394V60.1178H129.262V59.8546H129.13V59.4598H128.999V59.3282H128.867V59.1966H128.736V58.9334H128.604V58.8019H128.472V58.6703H128.341V58.4071H128.209V58.2755H128.078V58.1439H127.946V58.0123H127.814V57.8807H127.683V57.7491H127.551V57.6175H127.42V57.4859H127.288V57.3543H127.156V57.2227H126.905V57.0911H126.774V56.9595H126.642V56.8279H126.51V56.6963H126.379V56.5647H126.116V56.4331H125.984V56.3015H125.721V56.17H125.589V56.0384H125.326V55.9068H125.194V55.7752H124.931V55.6436H124.8V55.512H124.536V55.3804H124.273V55.2488H124.01V55.1172H123.747V54.9856H123.484V54.854H123.352V54.7224H123.089V54.5908H122.826V54.4592H122.431V54.3276H122.168V54.196H121.905V54.0644H121.51V53.9328H121.247V53.8132H120.983V53.6816H120.589V53.55H120.325V53.4184H119.931V53.2868H119.536V53.1552H119.141V53.0236H118.746V52.892H118.351V52.7604H117.957V52.6288H117.825V52.4973H118.22V52.6288H118.746V52.7604H119.404V52.892H119.931V53.0236H120.457V53.1552H121.115V53.2868H121.641V53.4184H122.168V53.55H122.694V53.6816H123.089V53.8132H123.615V53.9328H124.01V54.0644H124.405V54.196H124.931V54.3276H125.326V54.4592H125.721V54.5908H126.116V54.7224H126.51V54.854H126.774V54.9856H127.156V55.1172H127.551V55.2488H127.814V55.3804H128.209V55.512H128.604V55.6436H128.867V55.7752H129.13V55.9068H129.394V56.0384H129.657V56.17H129.92V56.3015H130.183V56.4331H130.446V56.5647H130.709V56.6963H130.973V56.8279H131.236V56.9595H131.499V57.0911H131.762V57.2227H131.894V57.3543H132.157V57.4859H132.289V57.6175H132.552V57.7491H132.683V57.8807H132.947V58.0123H133.078V58.1439H133.341V58.2755H133.473V58.4071H133.736V58.5387H133.868V58.6703H133.999V58.8019H134.131V58.9334H134.263V59.065H134.394V59.1966H134.526V59.3282H134.657V59.4598H134.789V59.5914H134.921V59.723H135.184V59.8546H135.315V59.9862H135.447V60.2494H135.578V60.381H135.71V60.6442H135.842V60.9074H135.973V61.039H136.105V61.3022H136.236V61.5654H136.368V61.6969H136.5V62.2233H136.631V62.8813H136.763V63.5393H136.894V63.6709H136.763V64.5801H136.631V65.1065H136.5V65.5012H136.368V65.7644H136.236V66.0276H136.105V66.2908H135.973V66.554H135.842V66.6856H135.71V66.8172H135.578V67.0804H135.447V67.212H135.315V67.3436H135.184V67.6068H134.921V67.7384H134.789V67.87H134.657V68.0015H134.526V68.1331H134.394V68.2647H134.263V68.3963H134.131V68.5279H133.999V68.6595H133.868V68.7911H133.605V68.9227H133.473V69.0543H133.341V69.1859H133.078V69.3175H132.947V69.4491H132.683V69.5807H132.552V69.7123H132.42V69.8439H132.157V69.9755H131.894V70.1071H131.631V70.2387H131.499V70.3703H131.236V70.5019H130.973V70.6334H130.709V70.765H130.578V70.8966H130.315V71.0282H129.92V71.1598H129.657V71.2914H129.394V71.423H129.13V71.5546H128.867V71.6862H128.604V71.8178H128.209V71.9494H127.946V72.081H127.551V72.2126H127.156V72.3442H126.905V72.4758H126.51V72.6074H126.116V72.739H125.852V72.8706H125.326V73.0022H124.931V73.1338H124.536V73.2654H124.142V73.3969H123.747V73.5285H123.221V73.6601H122.694V73.7917H122.299V73.9114H121.773V74.043H121.247V74.1746H120.72V74.3062H120.062V74.4377H119.536V74.5693H118.878V74.7009H118.22V74.8325H117.562V74.9641H116.916V75.0957H116.126V75.2273H115.337V75.3589H114.547V75.4905H113.494V75.6221H112.573V75.7537H111.521V75.8853H110.336V76.0169H108.757V76.1485H107.309V76.2801H104.821V76.4117H99.8205V76.5433" fill="url(#paint0_linear_354_976)"/>
<path d="M110.205 51.3846L110.181 50.8822L110.145 50.4037L110.086 49.9251L109.99 49.4466L109.894 48.98L109.763 48.5254L109.607 48.0828L109.452 47.6402L109.26 47.2214L109.033 46.8147L108.818 46.396L108.554 46.0251L108.303 45.6423L108.016 45.2834L107.693 44.9365L107.382 44.5895L107.059 44.2665L106.712 43.9794L106.329 43.7043L105.946 43.4172L105.564 43.154L105.157 42.9386L104.738 42.7472L104.331 42.5199L103.889 42.3644L103.434 42.2089L102.992 42.0773L102.513 41.9816L102.046 41.8859L101.568 41.8261L101.089 41.7902H100.108L99.594 41.8261L99.1154 41.8859L98.6369 41.9816L98.1943 42.0773L97.7157 42.2089L97.2731 42.3644L96.8664 42.5199L96.4118 42.7472L96.005 42.9386L95.6222 43.154L95.2035 43.4172L94.8565 43.7043L94.4737 43.9794L94.1268 44.2665L93.8157 44.5895L93.4927 44.9365L93.1697 45.2834L92.8826 45.6423L92.6314 46.0251L92.3802 46.396L92.1529 46.8147L91.9375 47.2214L91.7461 47.6402L91.5547 48.0828L91.4231 48.5254L91.3035 48.98L91.1719 49.4466L91.1121 49.9251L91.0403 50.4037L91.0164 50.8822L90.9805 51.3846L91.0164 51.8632L91.0403 52.3776L91.1121 52.8561L91.1719 53.3227L91.3035 53.7773L91.4231 54.2438L91.5547 54.6984L91.7461 55.1411L91.9375 55.5478L92.1529 55.9665L92.3802 56.3733L92.6314 56.7561L92.8826 57.1389L93.1697 57.4859L93.4927 57.8448L93.8157 58.1917L94.1268 58.5027L94.4737 58.7899L94.8565 59.077L95.2035 59.3641L95.6222 59.5914L96.005 59.8426L96.4118 60.034L96.8664 60.2254L97.2731 60.4169L97.7157 60.5724L98.1943 60.704L98.6369 60.7997L99.1154 60.8954L99.594 60.9552L100.108 60.9791H101.089L101.568 60.9552L102.046 60.8954L102.513 60.7997L102.992 60.704L103.434 60.5724L103.889 60.4169L104.331 60.2254L104.738 60.034L105.157 59.8426L105.564 59.5914L105.946 59.3641L106.329 59.077L106.712 58.7899L107.059 58.5027L107.382 58.1917L107.693 57.8448L108.016 57.4859L108.303 57.1389L108.554 56.7561L108.818 56.3733L109.033 55.9665L109.26 55.5478L109.452 55.1411L109.607 54.6984L109.763 54.2438L109.894 53.7773L109.99 53.3227L110.086 52.8561L110.145 52.3776L110.181 51.8632L110.205 51.3846Z" stroke="#737A7B" stroke-width="2.1239" stroke-miterlimit="10"/>
<path d="M102.931 44.5298L102.895 44.3623L102.835 44.2068L102.776 44.0752L102.68 43.9196L102.417 43.7043L102.106 43.477L101.759 43.2856L101.34 43.154L100.897 43.0942H100.419L99.9402 43.1301L99.4976 43.2497L99.0789 43.4172L98.7319 43.6086L98.4448 43.8598L98.2295 44.111L98.1697 44.2666L98.0979 44.4341L98.0381 44.5896V44.9006L98.074 45.0681L98.1338 45.2236L98.2295 45.3552L98.3252 45.4749L98.4448 45.6064L98.7319 45.8337L99.1148 46.0132L99.5335 46.1089L100.012 46.1807L100.55 46.2046L101.053 46.1448L101.495 46.0132L101.95 45.8577L102.297 45.6423L102.584 45.415L102.68 45.2595L102.776 45.1279L102.871 44.9724L102.895 44.8408L102.931 44.6853V44.5298Z" stroke="#737A7B" stroke-width="2.1239" stroke-miterlimit="10"/>
<path d="M105.121 44.8408L105.097 44.5297L105.001 44.1708L104.833 43.8837L104.678 43.6086L104.451 43.3214L104.199 43.0583L103.912 42.807L103.625 42.6156L103.278 42.4003L102.931 42.2328L102.549 42.0773L102.142 41.9816L101.723 41.8859L101.304 41.8261L100.862 41.7902H100.383L99.9405 41.8261L99.4979 41.8859L99.0911 41.9816L98.6724 42.1132L98.2896 42.2687L97.9068 42.4601L97.5599 42.6515L97.2368 42.9027L96.9617 43.154L96.6985 43.4172L96.4473 43.7043L96.2559 43.9794L96.1003 44.3024L96.0046 44.6494L95.9089 44.9724L95.873 45.3193L95.9089 45.6662L95.9688 45.9892L96.0645 46.3003L96.2319 46.5874L96.4114 46.8745L96.6746 47.1616L96.9258 47.3889L97.2368 47.6043L97.5599 47.7957L97.9427 47.9871L98.3255 48.1187L98.7681 48.2383L99.1869 48.3101L99.6534 48.3699L100.132 48.4058L100.646 48.3699L101.125 48.334L101.591 48.2383L102.046 48.1426L102.489 48.023L102.895 47.8316L103.278 47.676L103.625 47.4487L103.948 47.2214L104.235 46.9702L104.487 46.6831L104.714 46.4319L104.869 46.1089L105.025 45.8337L105.097 45.5107L105.156 45.1638L105.121 44.8408Z" stroke="#737A7B" stroke-width="2.1239" stroke-miterlimit="10"/>
<path d="M91.04 50.5951V50.9779L91.0759 51.3248L91.1357 51.7076L91.2075 52.0546L91.3032 52.4015L91.4229 52.7604L91.5903 53.1073L91.7459 53.4543L91.9373 53.7773L92.1526 54.0883L92.3799 54.4113L92.6311 54.7224L92.8824 55.0095L93.1695 55.2966L93.4925 55.5478L93.8155 55.811L94.1624 56.0622L94.5094 56.2776L94.8563 56.5049L95.2391 56.6963L95.6578 56.8877L96.0646 57.0791L96.4833 57.2346L96.9259 57.3662L97.3686 57.4859L97.8112 57.5816L98.2897 57.6533L98.7683 57.7132L99.2468 57.773H100.766L101.281 57.7132L101.783 57.6533L102.262 57.5816L102.74 57.4859L103.219 57.3662L103.697 57.2346L104.582 56.9116L105.408 56.5408L106.209 56.0981L106.939 55.6196L107.597 55.0693L107.884 54.7941L108.171 54.507L108.458 54.184L108.71 53.8969L108.937 53.5859L109.164 53.2628L109.344 52.9159L109.511 52.5929L109.667 52.246L109.798 51.899L109.894 51.5521L109.954 51.1932L110.014 50.8463L110.05 50.4635V49.7696" stroke="#737A7B" stroke-width="2.1239" stroke-miterlimit="10"/>
<path d="M91.0166 52.0306L91.0405 52.4374L91.1123 52.8561L91.1721 53.2628L91.2678 53.6456L91.3994 54.0285L91.5549 54.4113L91.7105 54.7582L91.9019 55.1051L92.0933 55.4521L92.3206 55.811L92.5718 56.122L92.823 56.4091L93.0743 56.6963L93.3614 56.9834L93.6844 57.2705L94.0074 57.5217L94.3543 57.749L94.7013 57.9643L95.0841 58.1916L95.4669 58.3831L95.8497 58.5745L96.2565 58.73L96.6752 58.8616L97.1178 58.9812L97.5605 59.1128L98.0031 59.1726L98.4816 59.2683L98.9602 59.3042L99.4387 59.364H100.456L100.958 59.3282L101.472 59.2683L101.975 59.2085L102.489 59.1367L102.968 59.0171L103.434 58.9214L103.889 58.7659L104.332 58.5984L104.774 58.4429L105.193 58.2515L105.6 58.0601L106.018 57.8447L106.401 57.6174L106.748 57.3662L107.131 57.115L107.442 56.8278L107.765 56.5647L108.076 56.2536L108.363 55.9665L108.626 55.6435L108.878 55.3324L109.093 54.9855L109.284 54.6625L109.476 54.3156L109.643 53.9328L109.799 53.5858L109.918 53.203L110.014 52.8561L110.086 52.4732L110.146 52.0545L110.182 51.6717V51.2889L110.146 50.8821" stroke="#737A7B" stroke-width="2.1239" stroke-miterlimit="10"/>
<path d="M91.71 47.7359L91.5544 48.2144L91.4348 48.657L91.363 49.1356L91.3271 49.6021V49.961L91.363 50.2721L91.3989 50.631L91.4946 50.942L91.5903 51.265L91.71 51.576L91.8416 51.8632L91.9971 52.1862L92.1885 52.4733L92.3799 52.7245L92.6072 53.0116L92.8584 53.2629L93.1097 53.4902L93.3968 53.7414L94.0069 54.184L94.6649 54.5668L95.3707 54.9138L96.1603 55.2009L96.9857 55.4282L97.8471 55.5837L98.7683 55.7153L99.7253 55.7392L100.67 55.7153L101.663 55.6196L102.585 55.4521L103.47 55.2368L104.331 54.9856L105.157 54.6267L105.886 54.2797L106.592 53.8371L107.226 53.3944L107.788 52.88L108.303 52.3776L108.53 52.0905L108.71 51.8033L108.913 51.5162L109.069 51.1932L109.224 50.9061L109.356 50.5951L109.451 50.2721L109.511 49.961L109.571 49.638L109.607 49.2911V48.9681L109.571 48.6211L109.511 48.2144L109.415 47.8316L109.32 47.4129L109.164 47.03" stroke="#737A7B" stroke-width="2.1239" stroke-miterlimit="10"/>
<path d="M93.4927 44.9365L93.2415 45.2834L93.0142 45.6423L92.7988 46.0251L92.6314 46.396L92.5117 46.7788L92.416 47.1616L92.3442 47.5445L92.3203 47.9512V48.2742L92.3442 48.5613L92.3801 48.8484L92.4758 49.1356L92.5357 49.4227L92.6672 49.6739L92.7988 49.961L92.9185 50.2122L93.074 50.4635L93.2654 50.6908L93.6841 51.1334L94.1626 51.576L94.701 51.9589L95.3111 52.3058L95.9691 52.5929L96.639 52.8561L97.4047 53.0356L98.1703 53.203L98.9958 53.2987L99.8452 53.3227L100.707 53.2987L101.568 53.203L102.417 53.0714L103.255 52.88L104.008 52.6647L104.738 52.3776L105.408 52.0187L106.042 51.6718L106.652 51.265L107.155 50.8224L107.597 50.3678L107.98 49.8653L108.148 49.6141L108.303 49.3509L108.435 49.0997L108.53 48.8125L108.626 48.5254L108.686 48.2742L108.71 47.9871V47.4129L108.686 47.1257L108.626 46.7788L108.53 46.4678L108.399 46.1089L108.207 45.7619L108.016 45.4509L107.765 45.092L107.514 44.781L107.191 44.434" stroke="#737A7B" stroke-width="2.1239" stroke-miterlimit="10"/>
<path d="M97.8836 42.173L97.429 42.3285L97.0582 42.5199L96.6395 42.7113L96.2925 42.9386L95.9456 43.1898L95.6226 43.4411L95.3116 43.7043L95.0125 43.9794L94.7613 44.3024L94.5459 44.6254L94.3545 44.9365L94.199 45.2834L94.0674 45.6064L93.9717 45.9533L93.8999 46.3362L93.876 46.6831L93.8999 47.1616L94.0076 47.6043L94.1631 48.0469L94.3545 48.4656L94.6416 48.8484L94.9886 49.1954L95.3714 49.5423L95.814 49.8294L96.2925 50.1165L96.8309 50.3438L97.3692 50.5592L97.9794 50.7267L98.6134 50.8104L99.2833 50.9061L99.9413 50.942L100.671 50.9061L101.377 50.8463L102.047 50.7267L102.705 50.5951L103.315 50.4036L103.913 50.1763L104.463 49.9251L104.966 49.6141L105.408 49.2911L105.827 48.9681L106.21 48.5972L106.485 48.2144L106.748 47.7957L106.94 47.353L107.059 46.9343L107.131 46.4678V46.0132L107.095 45.726L107.035 45.4748L106.94 45.2236L106.844 44.9365L106.712 44.6852L106.557 44.4579L106.389 44.2067L106.234 43.9794L105.827 43.5368L105.349 43.154L104.81 42.807L104.236 42.496" stroke="#737A7B" stroke-width="2.1239" stroke-miterlimit="10"/>
<path d="M99.4385 41.85L99.5342 41.9457L99.6299 42.0773L99.7256 42.3046L99.8811 42.6515L100.073 43.13L100.264 43.7282L100.455 44.5297L100.647 45.3791L100.862 46.3362L101.245 48.5613L101.592 50.8463L101.759 51.8991L101.879 52.88L101.975 54.0883L102.046 55.1411V56.9834L102.011 57.7491L101.915 58.407L101.855 58.9813L101.759 59.4598L101.664 59.8785L101.532 60.2254L101.377 60.704L101.245 60.9193" stroke="#737A7B" stroke-width="2.1239" stroke-miterlimit="10"/>
<path d="M91.5549 54.7583L91.4233 54.0883L91.3037 53.4184L91.208 52.8202V52.1862L91.2319 51.8632L91.2678 51.5162L91.3635 51.1932L91.4592 50.8224L91.6148 50.4635L91.8062 50.0806L92.0335 49.6739L92.2847 49.2552L92.6077 48.8125L92.9786 48.3699L93.3614 47.9512L93.816 47.5444L94.2586 47.1616L94.7371 46.7788L95.2755 46.396L95.7779 46.0849L96.3522 45.7619L96.9264 45.4748L97.5006 45.2236L98.0749 44.9963L98.673 44.8408L99.2712 44.6852L99.8813 44.5895L100.456 44.5297H101.628L102.238 44.5537L102.8 44.6254L103.41 44.6852L103.985 44.781L104.523 44.9006L105.061 45.0681L105.6 45.2595L106.114 45.4509L106.593 45.6662L107.059 45.9294L107.478 46.2046L107.885 46.4917L108.268 46.8386L108.591 47.1975L108.902 47.5803L109.165 47.9871L109.38 48.4058L109.536 48.8125L109.703 49.2552L109.823 49.6739L109.918 50.0806L109.99 50.4994L110.086 51.1932L110.146 51.7675V52.2819" stroke="#737A7B" stroke-width="2.1239" stroke-miterlimit="10"/>
<path d="M97.7154 60.5365L97.2369 60.2493L96.9617 60.0699L96.6746 59.8426L96.3875 59.5914L96.1004 59.3042L95.8491 58.9573L95.6218 58.5745L95.3945 58.096L95.239 57.5576L95.1433 56.9475L95.1074 56.2177L95.1433 55.4282L95.239 54.5309L95.4304 53.5499L95.7175 52.4015L95.9688 51.6119L96.232 50.8822L96.5071 50.1763L96.8301 49.5423L97.1172 48.9441L97.4283 48.3699L97.7513 47.8555L98.0743 47.3889L98.7083 46.4917L99.3424 45.7619L99.9047 45.1279L100.455 44.5297L100.838 44.1708L101.089 43.9794L101.34 43.7999L101.663 43.5966L101.974 43.4411L102.321 43.2855L102.704 43.13L103.087 43.0343L103.506 42.9625L103.948 42.9386L104.391 42.9625L104.869 43.0343L105.312 43.1898L105.791 43.3812L106.305 43.6684" stroke="#737A7B" stroke-width="2.1239" stroke-miterlimit="10"/>
<path d="M92.5723 46.1447L92.9551 45.7021L93.2063 45.4509L93.4934 45.1637L93.8404 44.8766L94.2232 44.5895L94.6658 44.3383L95.1444 44.0751L95.6588 43.8837L96.233 43.7282L96.8312 43.6324H97.4652L97.8121 43.6683L98.171 43.7042L98.518 43.764L98.9008 43.8597L99.2836 43.9794L99.6545 44.1469L100.037 44.3383L100.456 44.5297L101.628 45.1877L102.645 45.8576L103.531 46.4677L104.296 47.0659L105.002 47.6401L105.564 48.1785L106.079 48.7168L106.485 49.2312L106.808 49.7337L107.096 50.2122L107.323 50.6548L107.514 51.0975L107.67 51.5521L107.766 51.9588L107.957 52.7245L108.017 53.1312L108.077 53.5499V54.4113L108.053 54.8898L108.017 55.3324L107.921 55.811L107.825 56.2775L107.67 56.7321L107.514 57.1748L107.323 57.6174L107.096 58.0361L106.844 58.407L106.593 58.7659L106.27 59.1128L105.947 59.3999" stroke="#737A7B" stroke-width="2.1239" stroke-miterlimit="10"/>
<path d="M98.4813 45.6663L98.2899 45.762L97.7875 46.1089L97.0577 46.6831L96.639 47.0301L96.1605 47.4488L95.7179 47.9512L95.2393 48.5015L94.7608 49.0638L94.3182 49.7337L93.8994 50.4635L93.5286 51.2291L93.2056 52.0546L93.074 52.4972L92.9544 52.9399L92.8586 53.3945L92.7629 53.8012L92.7271 54.2199L92.7031 54.6028V54.9497L92.7271 55.2966L92.7629 55.6436L92.8228 55.9666L93.0142 56.5408L93.2056 57.0791L93.4568 57.5577L93.7439 57.9644L94.0669 58.3472L94.354 58.6702L94.6412 58.9215L94.8924 59.1368L95.3111 59.4L95.4666 59.4957" stroke="#737A7B" stroke-width="2.1239" stroke-miterlimit="10"/>
<path d="M99.8811 46.1806L99.6897 47.03L99.4624 47.987L99.2112 49.2312L98.96 50.6548L98.7088 52.2459L98.5173 53.8969L98.4216 54.7582L98.3499 55.5837L98.29 56.7561V57.7729L98.3857 58.6343L98.4216 58.9812L98.5173 59.3281L98.5772 59.6153L98.6729 59.9024L98.8045 60.1297L98.9241 60.345L99.0557 60.5364L99.2112 60.7039L99.3787 60.8235L99.5581 60.9193" stroke="#737A7B" stroke-width="2.1239" stroke-miterlimit="10"/>
<path d="M101.532 46.0132L101.664 46.1089L102.047 46.4678L102.262 46.719L102.549 47.0301L102.836 47.4129L103.147 47.8555L103.47 48.3699L103.793 48.9442L104.104 49.5782L104.427 50.308L104.679 51.1095L104.93 51.9589L105.121 52.8801L105.289 53.8969L105.384 54.6626L105.408 55.3923V56.0623L105.384 56.6604L105.289 57.2107L105.193 57.7132L105.061 58.1558L104.906 58.5745L104.714 58.9574L104.487 59.2684L104.296 59.5914L104.044 59.8426L103.817 60.0939L103.566 60.2853L103.064 60.6681" stroke="#737A7B" stroke-width="2.1239" stroke-miterlimit="10"/>
<path d="M98.0746 44.3383L97.9072 44.3622L97.4645 44.3981L96.8305 44.4938L96.4476 44.5895L96.0409 44.6853L95.5863 44.8408L95.1078 45.0322L94.6412 45.2595L94.1627 45.5466L93.72 45.8576L93.2415 46.2405L92.7989 46.6831L92.3802 47.1975L92.093 47.6402L91.8418 48.0589L91.6504 48.4656L91.459 48.8843L91.3274 49.2552L91.2078 49.6021L91.0403 50.3079L90.9805 50.8822V51.6718" stroke="#737A7B" stroke-width="2.1239" stroke-miterlimit="10"/>
<path d="M102.74 45.1279L102.991 45.1877L103.661 45.4748L104.104 45.6662L104.618 45.9294L105.193 46.2046L105.755 46.5635L106.329 46.9343L106.903 47.3889L107.442 47.8555L107.92 48.3699L108.172 48.657L108.363 48.9681L108.554 49.2552L108.746 49.5782L108.877 49.9251L108.997 50.2481L109.093 50.595L109.164 50.9779L109.26 51.7076L109.284 52.3776V53.0355L109.26 53.6098L109.188 54.184L109.093 54.6984L108.997 55.165L108.913 55.5837L108.65 56.2776L108.435 56.792L108.267 57.115L108.207 57.2107" stroke="#737A7B" stroke-width="2.1239" stroke-miterlimit="10"/>
<path d="M102.645 43.8837L102.836 43.8598L103.338 43.8239H104.104L104.583 43.8598L105.061 43.9555L105.564 44.0512L106.078 44.2067L106.616 44.434L107.131 44.7212L107.633 45.0681L107.884 45.2595L108.112 45.4748L108.339 45.7261L108.554 46.0132L108.746 46.3003L108.937 46.6233" stroke="#737A7B" stroke-width="2.1239" stroke-miterlimit="10"/>
<path d="M100.958 43.0941L100.994 43.0343L101.09 42.8668L101.245 42.6156L101.377 42.5199L101.508 42.4003L101.664 42.3046L101.855 42.2089L102.071 42.1132L102.298 42.0773L102.585 42.0414L102.872 42.0773L103.219 42.1371L103.566 42.2687" stroke="#737A7B" stroke-width="2.1239" stroke-miterlimit="10"/>
<path d="M99.2472 43.2855L98.9959 43.0941L98.7088 42.9027L98.326 42.7472L98.0987 42.6515L97.8475 42.5797L97.5962 42.5558H97.3091L97.022 42.5797L96.699 42.6515L96.3879 42.7711L96.041 42.9386" stroke="#737A7B" stroke-width="2.1239" stroke-miterlimit="10"/>
<path d="M92.391 56.6126C92.4628 56.6604 92.4628 56.493 92.5226 56.5647C92.5585 56.6126 92.6781 56.481 92.714 56.5408C92.7858 56.6485 92.8934 56.5169 92.9891 56.6126C93.049 56.6844 93.1327 56.7083 93.1925 56.7801C93.2643 56.8519 93.4916 56.9954 93.5634 57.0672C93.5873 57.0911 93.671 57.2108 93.695 57.2347C93.8625 57.4141 93.8984 57.1629 94.0778 57.3184C94.1735 57.4022 94.3769 57.6175 94.4487 57.6893C94.5683 57.8209 94.4726 58.2755 94.6161 58.3831C94.5922 58.3951 94.5444 58.9574 94.5204 58.9693C93.7428 58.3712 93.0729 57.5816 92.4628 56.7442C92.4508 56.7203 92.379 56.6006 92.391 56.6126Z" fill="#0056A4"/>
<path d="M104.522 48.9202C104.725 48.8963 104.845 48.9322 104.701 49.0399C104.689 49.0399 104.677 49.0997 104.665 49.0997C104.462 49.1595 103.983 48.992 104.522 48.9202Z" fill="#0056A4"/>
<path d="M102.213 48.8485C102.489 48.8007 102.273 49.1237 102.249 49.1835C102.213 49.1715 102.178 49.1715 102.142 49.1715C102.13 49.1356 102.154 49.1237 102.118 49.1117C102.118 49.0997 102.118 49.0997 102.118 49.0997C101.998 49.0519 101.723 49.1237 101.878 48.9681C101.974 48.8724 101.986 48.9562 102.094 48.9322C102.118 48.9203 102.166 48.8605 102.213 48.8485Z" fill="#0056A4"/>
<path d="M103.816 48.5613C103.828 48.5613 103.876 48.6212 103.888 48.6331C103.96 48.657 104.079 48.6451 104.127 48.681C104.223 48.7288 104.091 48.7767 104.091 48.7767C104.079 48.8604 104.187 48.9083 104.055 48.9322C103.9 48.9681 103.685 48.7647 103.589 48.657C103.637 48.6451 103.649 48.6451 103.673 48.6331C103.709 48.6092 103.78 48.5613 103.816 48.5613Z" fill="#0056A4"/>
<path d="M100.945 48.1905C100.969 48.2025 101.041 48.2144 101.053 48.2264C101.089 48.4896 101.161 48.669 100.957 48.8006C100.742 48.9322 100.885 48.6331 100.862 48.5255C100.814 48.2862 100.73 48.3699 100.945 48.1905Z" fill="#0056A4"/>
<path d="M100.921 47.7957C100.969 47.9512 100.945 48.2384 100.718 47.9393C100.79 47.8914 100.861 47.8436 100.921 47.7957Z" fill="#0056A4"/>
<path d="M94.6644 43.6564C94.6763 43.788 94.9395 43.9555 94.7362 44.0393C94.7242 44.0393 94.6883 44.123 94.7601 44.111C94.7601 44.111 95.0472 44.0153 94.9276 44.0632C94.8797 44.0751 94.8199 44.2187 94.796 44.2546C94.8438 44.2187 95.0831 44.0871 95.107 44.0512C95.0472 44.1469 94.8438 44.6255 94.7362 44.6135C94.7362 44.6135 94.7721 44.757 94.7721 44.769C94.6644 45.0202 94.5926 44.769 94.6405 45.104C94.7003 45.104 94.784 45.1399 94.8917 45.1159C94.6883 45.4031 94.7362 45.4031 94.9276 45.6662C94.9156 45.6902 94.8199 45.7739 94.8558 45.8098C94.6524 46.0012 94.6405 46.0371 94.4849 45.8218C94.3294 45.9414 94.3055 45.9534 94.138 45.9175C94.138 45.8935 94.1978 45.8098 94.126 45.8098C94.0184 45.8218 93.9466 45.9773 93.8748 46.073C93.8509 46.061 93.7671 46.0132 93.7432 46.0251C93.815 45.9055 93.8509 45.8337 93.9346 45.7141C93.8987 45.6662 93.8509 45.7141 93.8868 45.6304C93.9227 45.5466 94.2337 45.1877 94.3294 45.0561C94.7242 44.5058 94.0184 45.3193 93.8748 45.415C93.6116 45.5825 93.4441 45.7141 93.2168 45.9893C93.2886 45.9653 93.2767 45.9414 93.3724 45.9414C93.3724 45.9414 93.2527 46.073 93.3006 46.085C93.181 46.2524 93.0135 46.4319 92.9297 46.6831C93.1092 46.4797 93.3484 46.6233 93.181 46.9343C93.1331 47.0301 92.9537 47.054 92.8819 47.1138C92.6905 47.2813 92.5708 47.5325 92.4392 47.7598C92.4392 47.7598 92.3794 47.6402 92.3914 47.6402C92.4512 47.4966 92.5589 47.3411 92.6426 47.2095C92.6785 47.2574 92.7144 47.054 92.7264 47.0301C92.6067 47.2215 92.4512 47.4607 92.3196 47.6521C92.0205 48.1067 91.8411 47.3052 91.4463 48.023C91.865 47.1497 92.2239 46.4439 92.4871 46.0371C93.0733 45.1279 93.5877 44.6494 94.6644 43.6564Z" fill="#0056A4"/>
<path d="M97.8466 45.3672C97.8705 45.3672 97.9184 45.415 97.9423 45.415C98.2294 45.4868 98.0261 45.5466 98.0261 45.6782C98.0141 45.7979 98.05 45.7739 98.0021 45.8936C97.727 45.9055 97.6552 45.9773 97.4399 46.0252C97.3202 45.8338 97.3681 45.8816 97.5117 45.738C97.2126 45.6423 97.5236 45.5586 97.6672 45.5586C97.6791 45.427 97.6791 45.3672 97.8466 45.3672Z" fill="#0056A4"/>
<path d="M98.3254 44.7212C98.5886 44.7332 98.8877 44.7212 98.5168 44.8767L98.5288 44.9365C98.9236 44.9963 98.8039 44.9724 98.6484 45.1638C98.5766 45.2595 98.6125 45.2595 98.7322 45.2954C98.5647 45.3433 98.9355 45.5586 98.9714 45.5825C98.9355 45.6663 98.9595 45.6902 98.9236 45.774C99.0552 45.8457 99.438 45.9414 99.1868 46.085C99.0791 46.1448 99.2466 46.1328 99.2825 46.1328C99.2825 46.1448 99.2705 46.1927 99.2705 46.1927C99.0671 46.3601 98.78 46.2525 98.5049 46.2764C98.469 46.2764 98.2895 46.3841 98.3134 46.3721C98.2536 46.3841 97.9067 46.4798 97.9785 46.42C98.0503 46.3601 98.1579 46.2166 98.2417 46.1927C98.3254 46.1687 98.4211 46.2046 98.5049 46.1807C98.5049 46.1807 98.5527 46.1448 98.5647 46.1328C98.5647 46.1328 98.5766 46.085 98.5766 46.073C98.4331 46.0611 98.1938 46.0491 98.0861 46.0491C98.2297 45.9534 98.3972 45.9055 98.1699 45.8098C98.445 45.762 98.4211 45.7261 98.5766 45.6184C98.5527 45.6065 98.469 45.5945 98.457 45.5825C98.4331 45.5586 98.469 45.5108 98.469 45.4868C98.3733 45.4749 98.3254 45.4629 98.2656 45.439C98.2895 45.3911 98.3613 45.2595 98.2776 45.2117C98.2656 45.2236 98.2058 45.2117 98.1938 45.2236C98.1819 45.3313 98.2058 45.4151 98.1101 45.3074C98.0861 45.2715 98.0622 45.2476 98.0383 45.1997C98.0742 45.1638 98.2058 45.0681 98.2177 45.0322C98.2297 44.9844 98.1819 44.9246 98.1938 44.8767C98.1819 44.8647 98.3134 44.7451 98.3254 44.7212Z" fill="#0056A4"/>
<path d="M101.591 42.1371C101.603 42.2807 100.992 42.0893 101.016 42.1969C101.04 42.1491 101.088 42.5439 100.885 42.3046C100.885 42.3285 100.897 42.3405 100.897 42.3644C100.526 42.2567 99.9995 41.862 99.7363 42.0294C99.6047 42.1132 99.6286 42.4362 99.509 42.5678C99.4731 42.6037 99.5808 42.1012 99.0065 42.161C98.54 41.9098 98.9946 41.7902 99.0424 41.7782C99.2578 41.6945 101.507 41.3954 101.591 42.1371Z" fill="#0056A4"/>
<path d="M96.7583 43.2617C96.7583 43.3334 96.7583 43.3693 96.7583 43.4172C96.9497 43.3933 97.0693 43.4411 97.2368 43.4052C97.3445 43.3933 97.2368 43.3334 97.4641 43.3693C97.4402 43.477 97.4402 43.5009 97.5119 43.5966C97.4282 43.6325 97.0334 43.8 96.8659 43.788C96.7941 43.7761 96.6267 43.6804 96.5549 43.6564C96.5668 43.6086 96.5788 43.6206 96.5908 43.5607C96.4113 43.489 96.4711 43.489 96.6506 43.477C96.2558 43.4531 96.6745 43.3095 96.7583 43.2617Z" fill="#0056A4"/>
<path d="M104.761 42.5798C105.12 42.7592 106.113 43.2856 106.879 43.9675C108.063 45.0322 109.391 46.4319 109.965 48.7528C110.061 49.1356 110.193 49.7098 110.265 50.1884C110.229 50.1764 110.145 50.2123 110.121 50.1884C109.953 50.3439 109.882 50.2841 109.702 50.3319C109.678 50.1884 109.642 50.1525 109.535 50.1046C109.487 50.1764 109.415 50.2362 109.367 50.308C109.307 50.1644 109.152 50.0687 108.996 49.997C108.949 49.973 108.877 49.985 108.841 49.9491C108.769 49.8893 108.733 49.7577 108.673 49.6979C108.626 49.8055 108.59 49.8295 108.482 49.8295C108.542 50.1166 108.685 50.308 108.841 50.4994C108.841 50.4994 108.973 50.4396 108.901 50.4396C108.901 50.4396 108.996 50.4516 109.008 50.4516C109.056 50.5712 109.176 50.7865 109.319 50.619C109.427 50.4874 109.427 50.4037 109.571 50.296C109.583 50.5473 109.607 50.6908 109.822 50.631C109.87 50.6789 109.906 50.7865 109.965 50.8224C109.977 50.8344 109.894 51.0138 109.894 51.0378C110.025 51.0976 109.834 51.2292 109.822 51.2292C109.822 51.4565 109.762 51.3608 109.702 51.4804C109.642 51.6 109.714 51.6598 109.63 51.7675C109.571 51.8393 109.427 51.8871 109.379 51.9589C109.331 52.0187 109.331 52.1503 109.331 52.2221C109.296 52.2221 109.272 52.2101 109.224 52.2341L109.2 52.258C109.14 52.3059 109.116 52.4016 109.056 52.4494C108.973 52.5332 108.853 52.581 108.769 52.6647C108.745 52.6887 108.745 52.7485 108.709 52.7605C108.661 52.7844 108.602 52.7605 108.566 52.7724C108.506 52.7844 108.422 52.8562 108.35 52.8801C108.267 52.9279 108.231 52.9638 108.195 53.0476C108.171 53.0356 108.111 53.0595 108.087 53.0595C108.063 53.0117 108.003 52.9279 107.992 52.8801C107.98 52.8322 108.027 52.8203 108.003 52.7724L107.92 52.7246C107.932 52.5451 107.908 52.3657 107.812 52.246C107.776 52.1982 107.692 52.1982 107.657 52.1503C107.573 52.0068 107.657 51.8513 107.573 51.7436L107.489 51.7316C107.429 51.6957 107.238 51.5043 107.214 51.4325C107.178 51.3368 107.226 51.2052 107.19 51.1335C107.166 51.0736 107.011 51.0497 106.987 50.9899C106.939 50.8583 107.011 50.7626 106.903 50.6549C106.855 50.619 106.676 50.5592 106.628 50.5233C106.52 50.4276 106.568 50.308 106.52 50.2123C106.52 50.2123 106.376 50.0807 106.317 50.0328L106.281 49.9611C106.293 49.9611 106.293 49.9611 106.305 49.9611C106.353 49.7697 106.317 49.6261 106.245 49.4347C106.233 49.3988 106.149 49.2433 106.149 49.2433C106.233 49.1715 106.317 49.0279 106.341 48.9322C106.353 48.8844 106.317 48.8485 106.353 48.8246C106.377 48.7887 106.46 48.7887 106.508 48.7767C106.508 48.6332 106.52 48.5973 106.592 48.4896C106.137 48.37 106.388 48.5973 106.137 48.5733C105.982 48.5614 105.97 48.3101 105.85 48.2503C105.707 48.1666 105.611 48.2384 105.551 48.3221C105.431 48.2025 105.407 48.2623 105.216 48.2503C105.216 48.2503 105.132 48.2264 105.132 48.2144C104.977 48.1187 105.001 47.8436 104.833 47.7598C104.905 47.7359 104.953 47.712 105.001 47.6881C105.001 47.6881 105.049 47.6043 104.977 47.5924C104.965 47.5924 104.953 47.5684 104.941 47.5684L104.917 47.4966C104.965 47.4727 105.001 47.4249 105.049 47.4249C105.156 47.4129 105.228 47.4608 105.3 47.4847C105.312 47.4727 105.348 47.4847 105.36 47.4847L105.396 47.389C105.527 47.4129 105.599 47.4129 105.707 47.4368L105.719 47.3651C105.766 47.3292 105.934 47.2933 106.018 47.3052C106.101 47.3172 106.329 47.4129 106.388 47.4727C106.412 47.4967 106.424 47.5804 106.46 47.6043C106.52 47.6402 106.604 47.6163 106.688 47.6282C106.723 47.6282 106.831 47.6881 106.843 47.6881C107.023 47.7 107.094 47.5804 107.322 47.5565C107.19 47.4249 107.106 47.2215 106.963 47.0899C106.903 47.042 106.831 47.0301 106.783 46.9703C106.676 46.8506 106.616 46.8746 106.46 46.8028C106.412 46.7789 106.365 46.7071 106.317 46.6832C106.137 46.5994 105.814 46.5635 105.611 46.5157C105.623 46.396 105.611 46.408 105.707 46.3243V46.2525C105.683 46.2405 105.623 46.2525 105.599 46.2644C105.599 46.2405 105.563 46.2286 105.575 46.1927C105.587 46.1328 105.79 46.097 105.611 46.0252C105.515 46.085 105.431 46.1807 105.336 46.2525C105.276 46.2884 105.108 46.3243 105.216 46.3721C105.252 46.396 105.276 46.408 105.336 46.42C105.336 46.42 105.396 46.5037 105.324 46.5157C105.204 46.5276 105.061 46.408 104.941 46.4319C104.845 46.4439 104.666 46.6233 104.582 46.6832C104.642 46.7071 104.415 47.3292 104.797 47.4847L104.869 47.5325C104.893 47.5325 104.881 47.5684 104.905 47.5565L104.917 47.6043C104.714 47.5924 104.594 47.8197 104.474 47.9034C104.534 47.7 104.45 47.724 104.259 47.6761C104.175 47.8197 104.271 47.7718 104.032 47.8077L104.044 47.8675C104.092 47.8555 104.175 47.9991 103.828 47.9393C103.84 47.9752 103.816 47.9991 103.84 48.035C103.852 48.0709 103.96 48.0948 103.984 48.1187C104.008 48.1666 103.972 48.2862 104.044 48.3221C104.08 48.3341 104.139 48.3101 104.175 48.3101C104.211 48.3221 104.283 48.4178 104.319 48.4298C104.355 48.4417 104.331 48.4417 104.343 48.4896C104.187 48.4417 103.804 48.4657 103.661 48.4657C103.673 48.4178 103.673 48.4059 103.697 48.346C103.649 48.3341 103.434 48.3101 103.386 48.2503C103.362 48.2264 103.374 48.1427 103.374 48.1187C103.302 48.1068 103.218 48.0589 103.17 48.035C103.194 47.9034 103.242 47.8197 103.146 47.7479C103.063 47.6881 102.979 47.7 102.871 47.6761C102.68 47.6163 102.333 47.4129 102.237 47.2454C102.058 47.3052 102.082 47.3292 101.926 47.2813C101.926 47.2813 101.902 47.2215 101.902 47.2095C101.938 47.2215 101.914 47.1736 101.914 47.1617C101.83 47.1617 101.807 47.1378 101.699 47.1736C101.759 47.2933 101.747 47.3292 101.711 47.4608C101.795 47.5086 101.914 47.5445 101.986 47.6163C102.07 47.6881 102.106 47.7957 102.201 47.8436C102.297 47.8914 102.357 47.8555 102.5 47.8795C102.608 47.9034 102.74 48.047 102.847 48.0828C102.979 48.1307 103.123 48.1307 103.23 48.1905L103.218 48.2623C103.087 48.2384 102.967 48.2384 102.847 48.2503C102.859 48.2862 102.835 48.2982 102.835 48.3341C102.895 48.358 102.991 48.3939 103.063 48.4059C102.979 48.5853 102.943 48.7289 102.776 48.8485C102.764 48.8126 102.728 48.8126 102.704 48.7887C102.716 48.7289 102.764 48.6571 102.752 48.5733C102.728 48.4657 102.548 48.2862 102.441 48.2503C102.405 48.2384 102.357 48.2503 102.333 48.2384C102.321 48.2384 102.333 48.1666 102.333 48.1666C102.237 48.1427 102.118 48.0709 102.034 48.0589C101.914 48.035 101.83 48.0828 101.723 48.035C101.711 48.035 101.699 47.9632 101.699 47.9632C101.615 47.9393 101.519 47.9871 101.448 47.9393C101.292 47.8555 101.328 47.5325 101.101 47.5206C100.981 47.5206 100.658 47.5804 100.622 47.6522C100.61 47.6881 100.646 47.7718 100.622 47.8077C100.61 47.8197 100.515 47.8197 100.491 47.8316C100.431 47.8675 100.407 47.9632 100.359 48.0111L100.335 48.047C100.096 48.1427 99.8207 48.023 99.5694 48.1068C99.4139 48.1546 99.4618 48.3101 99.5216 48.4298C99.4618 48.4657 99.402 48.5135 99.3541 48.5374C99.2225 48.6092 98.8277 48.7169 98.7918 48.8246C98.7799 48.8605 98.8158 48.8963 98.8038 48.9322C98.7559 49.0638 98.7201 49.0519 98.7799 49.2433C98.744 49.2552 98.6842 49.2313 98.6483 49.2552C98.5765 49.2911 98.4329 49.5902 98.2774 49.6141C98.1937 49.6261 98.086 49.5424 98.0023 49.5424C97.8109 49.5424 97.6912 49.6381 97.5118 49.674C97.44 49.6022 97.3204 49.5304 97.2605 49.4586C97.2486 49.4347 97.2486 49.3629 97.2247 49.339L97.0931 49.3151C96.9615 49.3151 96.8299 49.3629 96.6983 49.339C96.7342 49.1954 96.7701 49.1476 96.8299 49.0279C96.6863 48.992 96.7222 49.0399 96.6624 48.9203C96.782 48.8006 96.9136 48.6212 96.9974 48.4776C97.0811 48.3221 96.9734 48.2264 96.9375 48.023C96.9734 48.023 97.0811 48.023 97.129 48.0111C97.1648 47.9991 97.1648 47.9154 97.2247 47.9034C97.2845 47.8914 97.3084 47.9273 97.3443 47.9393C97.4041 47.9513 97.4998 48.0111 97.5477 48.023C97.6314 48.023 97.6912 47.9871 97.7391 47.9871C97.9185 47.9991 98.1578 48.2144 98.4569 48.0948C98.5286 48.0589 98.5286 47.9273 98.5645 47.8555C98.6124 47.7359 98.6244 47.724 98.7679 47.7479C98.6483 47.5684 98.5885 47.4727 98.3851 47.377C98.4329 47.2813 98.4449 47.2215 98.3372 47.1617C98.2535 47.1258 98.1099 47.1378 98.0382 47.0899C97.9783 47.054 97.9783 46.9463 97.9783 46.9224C98.086 46.9344 98.2296 46.8985 98.3731 46.9344C98.5765 46.9822 98.5885 46.9463 98.4449 46.8028C98.4808 46.7789 98.5167 46.7669 98.5645 46.731C98.6363 46.8147 98.7799 46.9224 98.9593 46.8746C99.079 46.8387 99.0191 46.7669 98.9832 46.6951C99.079 46.6233 99.1268 46.5157 99.2225 46.4439C99.2704 46.408 99.3302 46.408 99.3661 46.3841C99.4379 46.3243 99.5216 46.1448 99.6053 46.1209C99.701 46.085 99.8326 46.097 99.9164 46.073C99.9164 46.073 99.9283 45.9773 99.9283 45.9534C99.9164 45.9534 99.8566 45.9654 99.8446 45.9654C99.8446 45.9055 99.8566 45.8218 99.8446 45.7381C99.9523 45.7141 100.168 45.7381 100.239 45.7141C100.311 45.6902 100.192 45.6184 100.251 45.5825C100.311 45.5466 100.491 45.5347 100.562 45.5227C100.562 45.3433 100.503 45.3074 100.419 45.1878C100.263 44.9724 100.73 45.0801 100.395 45.0203C100.395 44.9963 100.407 44.9365 100.407 44.9365C100.598 44.8767 100.706 44.8289 100.658 45.0203C100.694 45.0322 100.754 45.0322 100.802 45.0442C100.802 45.0562 100.802 45.092 100.814 45.104C100.778 45.1519 100.682 45.2117 100.67 45.2835C100.634 45.4509 100.838 45.3672 100.897 45.4749C100.909 45.4988 100.885 45.5347 100.909 45.5466C101.137 45.5108 101.244 45.4749 101.448 45.5347C101.567 45.3792 101.83 45.3074 101.974 45.1758C101.998 45.1878 102.034 45.1638 102.058 45.1638C102.082 45.1638 102.118 45.2356 102.13 45.2356C102.285 45.2476 102.237 45.1519 102.237 45.1519V45.116C102.309 45.116 102.405 45.1399 102.393 45.092C102.381 45.0681 102.405 45.0681 102.369 45.0801L102.381 45.0203C102.429 45.0203 102.441 45.0442 102.5 45.0322C102.369 44.9485 102.333 44.8647 102.309 44.6614C102.321 44.6614 102.393 44.6255 102.417 44.6135C102.333 44.4341 102.441 44.3623 102.656 44.3264C102.68 44.3264 102.811 44.3144 102.811 44.3144C102.835 44.2905 102.859 44.2427 102.871 44.2187C103.015 44.2427 103.087 44.2307 102.931 44.1589C102.453 43.9436 102.512 44.5417 102.034 44.2546C101.962 44.2068 102.034 44.1589 101.974 44.0871C101.902 43.9914 101.723 44.0154 101.771 43.8359C101.795 43.7402 101.902 43.6206 101.962 43.5368C101.819 43.4292 101.854 43.3933 101.711 43.477C101.699 43.489 101.639 43.477 101.615 43.477C101.591 43.5966 101.627 43.7043 101.531 43.7881C101.484 43.8239 101.46 43.8479 101.376 43.8718C101.34 44.2427 101.484 44.2068 101.771 44.3623C101.747 44.4101 101.723 44.446 101.711 44.4819C101.603 44.446 101.555 44.446 101.412 44.458C101.412 44.458 101.412 44.5059 101.412 44.5178C101.484 44.5178 101.687 44.5537 101.687 44.5537C101.555 44.6016 101.46 44.6255 101.364 44.6853C101.472 44.8408 101.603 45.0203 101.34 45.1279C101.376 45.1758 101.388 45.2236 101.4 45.2356C101.244 45.2476 101.065 45.2595 101.029 45.1399C101.017 45.092 101.065 45.104 101.041 45.0681C101.017 45.0203 100.909 44.9963 100.873 44.9605C100.802 44.8767 100.778 44.781 100.706 44.7092C100.682 44.6853 100.658 44.6374 100.658 44.6374C100.562 44.3623 100.622 44.5776 100.419 44.7092C100.383 44.7332 100.335 44.8049 100.299 44.8049C100.06 44.8647 99.9403 44.7092 99.9762 44.5537C99.8566 44.4819 99.8326 44.4939 99.9642 44.4221C99.9762 44.4101 99.9523 44.3743 99.9642 44.3623C99.9164 44.3144 99.8207 44.2905 99.7489 44.2666C99.8446 44.2068 99.8566 44.147 99.8326 44.0513C99.8925 44.0393 100.012 44.0393 100.084 44.0154L100.072 43.9436C100.072 43.9436 100.144 43.9555 100.168 43.9555C100.18 43.9316 100.156 43.8838 100.156 43.8598C100.239 43.8359 100.311 43.812 100.419 43.7881C100.359 43.6924 100.359 43.7043 100.443 43.5966C100.527 43.6086 100.586 43.6206 100.622 43.6086C100.646 43.5966 100.622 43.477 100.61 43.477C100.646 43.3335 100.73 43.3215 100.754 43.1301C100.682 43.1181 100.61 43.0822 100.562 43.0703C100.67 43.0463 100.73 43.0583 100.814 43.0703V43.1301C100.838 43.142 100.885 43.1181 100.909 43.1301C100.945 43.0583 100.981 43.0105 101.029 42.9506C101.161 42.9746 101.256 42.9746 101.316 42.8789C101.352 42.831 101.328 42.831 101.352 42.7592C101.496 42.7592 101.591 42.7712 101.699 42.7951C101.747 42.7473 101.699 42.7473 101.735 42.7233C101.854 42.7712 101.866 42.7712 101.866 42.8669C101.998 42.831 102.07 42.7592 102.177 42.8071C102.189 42.8071 102.249 42.8789 102.249 42.8789C102.309 42.8908 102.405 42.8549 102.5 42.8669C102.752 42.8908 102.883 42.9387 103.039 43.0463C103.087 43.0822 103.182 43.2138 103.099 43.154C103.087 43.154 103.111 43.2258 103.111 43.2258C102.811 43.2856 102.584 43.2138 102.357 43.142C102.393 43.2019 102.369 43.2378 102.441 43.2736C102.536 43.3215 102.656 43.2976 102.74 43.3454C102.835 43.4052 102.883 43.477 103.003 43.5249C103.146 43.5727 103.23 43.5847 103.422 43.5966C103.398 43.5727 103.362 43.5249 103.35 43.5129C103.35 43.5129 103.314 43.4651 103.302 43.4411C103.314 43.4292 103.386 43.4292 103.386 43.4172C103.386 43.4052 103.374 43.3693 103.374 43.3574C103.17 43.2856 103.23 43.2258 103.23 43.0583C103.051 42.9865 103.182 43.0703 103.087 42.9506C103.027 42.8908 102.752 42.7951 102.979 42.8071C103.123 42.819 103.087 42.8789 103.17 42.9267C103.194 42.9387 103.206 42.9267 103.242 42.9387C103.362 42.9626 103.434 43.0105 103.589 43.0344C103.577 43.0224 103.541 42.9746 103.541 42.9746C103.505 42.9506 103.469 42.9267 103.446 42.9028C103.505 42.7832 103.577 42.7473 103.589 42.6635C103.673 42.7832 103.792 42.8549 103.888 42.9506C103.888 42.9387 103.888 42.8789 103.888 42.8789C103.864 42.819 103.804 42.6994 103.769 42.6396C103.792 42.6396 104.02 42.6276 104.02 42.6276C103.936 42.6157 103.912 42.5559 103.852 42.5439C103.852 42.5439 103.78 42.5559 103.769 42.5678C103.733 42.4482 103.685 42.4601 103.792 42.3764C103.984 42.4362 104.127 42.5439 104.331 42.5678C104.45 42.5798 104.367 42.5559 104.307 42.5319C104.331 42.52 104.319 42.508 104.331 42.508C104.367 42.496 104.426 42.508 104.462 42.496M106.257 49.9611C106.245 49.9491 106.269 49.985 106.269 49.985C106.329 50.1166 106.508 50.8463 106.257 50.6789C106.161 50.619 106.042 50.4994 105.958 50.4157C105.97 50.7267 106.149 50.6071 106.245 50.7865C106.269 50.8224 106.245 50.8942 106.257 50.942C106.269 50.954 106.592 51.2531 106.628 51.277C106.676 51.289 106.747 51.277 106.783 51.3009C106.843 51.3488 106.927 51.5522 106.999 51.624C107.058 51.6838 107.19 51.7197 107.25 51.7675C107.298 51.8273 107.286 51.8991 107.31 51.9709C107.381 52.1503 107.441 52.3298 107.537 52.5212C107.549 52.5571 107.633 52.593 107.645 52.6289C107.704 52.7246 107.68 52.8681 107.764 52.9399C107.824 52.9878 107.956 52.9638 108.003 53.0236C108.135 53.1552 107.992 53.1193 108.219 53.2151C108.207 53.3945 108.243 53.5381 108.303 53.6577C108.47 53.562 108.494 53.4663 108.59 53.4065C108.638 53.3825 108.673 53.4065 108.709 53.3706C108.769 53.3227 108.769 53.2031 108.829 53.1552C108.973 53.0356 109.116 53.0595 109.176 52.8681C109.176 53.1313 109.104 53.3347 109.08 53.55C109.08 53.574 109.104 53.6457 109.092 53.7175C109.068 53.8013 108.961 53.897 108.937 53.9687C108.889 54.0764 108.925 54.1601 108.889 54.2678C108.865 54.3396 108.769 54.4832 108.709 54.5669C108.661 54.6267 108.554 54.6865 108.506 54.7463C108.434 54.842 108.41 54.9378 108.35 55.0454C108.291 55.1411 108.171 55.2488 108.111 55.3445C108.075 55.4282 108.087 55.5 108.039 55.5718C108.003 55.6316 107.92 55.6795 107.884 55.7393C107.812 55.8589 107.764 56.0144 107.716 56.0862C107.692 56.1221 107.633 56.146 107.621 56.17C107.549 56.2657 107.513 56.3733 107.453 56.469C107.429 56.493 107.346 56.5408 107.334 56.5767C107.31 56.6485 107.369 56.6605 107.357 56.7203C107.357 56.7442 107.298 56.7801 107.286 56.804C107.346 56.8399 107.274 56.9356 107.274 56.9595V57.0074C107.31 57.0074 107.322 56.9954 107.357 56.9835C107.298 57.2706 107.286 57.5218 107.106 57.7371C106.975 57.8927 106.747 57.9884 106.592 58.1439C106.544 58.1798 106.556 58.2396 106.52 58.2874C106.448 58.3832 106.317 58.443 106.233 58.5147C106.185 58.5506 106.293 58.9694 106.293 58.9813C106.185 59.1009 106.137 59.3641 106.006 59.4718C105.431 59.9264 104.738 60.2135 103.924 60.5126C103.78 60.5724 103.434 60.3571 103.23 60.3451C103.158 60.3451 102.991 60.2255 102.931 60.1776C102.943 60.0819 102.931 60.0819 102.979 59.9862C102.788 59.9503 102.8 59.9264 102.74 59.7589C102.692 59.7589 102.644 59.7709 102.596 59.7709C102.632 59.747 102.524 59.6034 102.524 59.5914C102.524 59.5914 102.512 59.5316 102.524 59.5316C102.548 59.5197 102.608 59.1009 102.644 59.0411C102.68 58.9694 102.8 58.9215 102.871 58.8856C102.788 58.7181 102.823 58.5746 102.74 58.3712C102.728 58.3473 102.62 58.2755 102.608 58.2516C102.572 58.1439 102.644 58.096 102.632 58.0243C102.596 57.8927 101.938 57.5098 101.771 57.4381C101.771 57.4022 101.747 57.3663 101.759 57.3304C101.783 57.2586 102.058 57.139 102.082 57.0552C102.106 56.9835 102.094 56.8997 102.106 56.8519C102.07 56.8279 101.986 56.804 101.974 56.7681C101.926 56.6605 101.998 56.6365 101.914 56.5647C101.783 56.4571 101.543 56.469 101.304 56.5408C101.244 56.5528 101.173 56.6246 101.113 56.6365C100.79 56.6605 100.921 56.5169 100.838 56.3494C100.838 56.3494 100.526 56.1101 100.467 56.0384L100.443 56.0025C100.383 55.9905 100.263 56.0144 100.192 56.0264C99.9164 56.0743 99.8207 56.2059 99.7489 56.3853C99.7369 56.4212 99.7609 56.4571 99.7369 56.481C99.6771 56.5289 99.5694 56.5049 99.4977 56.5408C99.4498 56.5647 99.402 56.6246 99.3661 56.6485C99.1507 56.7442 98.8875 56.6365 98.6244 56.6844C98.5645 56.6963 98.3971 56.7083 98.3133 56.7322C98.1817 56.7801 98.074 56.9835 97.8587 56.9835C97.6314 56.9715 96.8179 56.3374 96.5906 56.1939C96.471 56.1101 96.3155 56.0743 96.1839 56.0025C96.0523 55.9187 96.1001 55.7991 95.9087 55.6795L95.8848 55.6436C95.8609 55.5838 95.8848 55.5359 95.8848 55.4761C95.7771 55.4641 95.7293 55.4402 95.6694 55.4043C95.7053 55.2847 95.7173 55.2368 95.7532 55.1292C95.6336 55.0095 95.5378 54.9617 95.4541 54.7942C95.49 54.7583 95.5977 54.6626 95.5977 54.6267C95.6096 54.519 95.478 54.4592 95.4541 54.3874C95.4182 54.2917 95.49 54.0405 95.502 53.9089C95.478 53.897 95.478 53.897 95.4541 53.897C95.4541 53.885 95.4541 53.885 95.4541 53.873C95.3225 53.7175 95.3823 53.873 95.3823 53.6457C95.3823 53.6098 95.3464 53.55 95.3464 53.55C95.3225 53.4424 95.2627 53.3227 95.2627 53.2509C95.2627 53.1313 95.5259 52.916 95.6096 52.8322C95.6694 52.7844 95.7891 52.7365 95.825 52.6647C95.8369 52.6289 95.9207 52.3178 95.9326 52.3059C95.9326 52.258 95.8967 52.1982 95.9087 52.1503C95.9446 52.0666 96.1599 52.0068 96.2317 51.947C96.4231 51.8034 96.5906 51.5881 96.7701 51.4206C96.8418 51.3488 96.9136 51.2651 96.9974 51.1933C96.9017 51.0976 96.8059 51.0138 96.8897 50.8822C96.9495 50.7985 97.2366 50.6789 97.2127 50.5712C97.2127 50.5712 97.2127 50.5592 97.2127 50.5473C97.2964 50.4994 97.4041 50.4994 97.4878 50.4516C97.6075 50.3678 97.5237 50.2601 97.5836 50.1644C97.6553 50.0448 97.8348 49.973 97.9185 49.8534C97.9305 49.8654 97.9903 49.8534 98.0023 49.8534C98.0501 49.9252 98.0382 49.985 98.1578 49.997C98.2655 49.997 98.8517 49.9252 98.9713 49.8773C99.0311 49.8534 99.0909 49.7577 99.1507 49.7338C99.3302 49.6381 99.5455 49.5184 99.7609 49.4825C99.8326 49.4706 100.012 49.4347 100.084 49.4586C100.096 49.4586 100.12 49.5184 100.132 49.5184C100.287 49.5304 100.299 49.4466 100.359 49.4227C100.443 49.3988 100.634 49.3868 100.706 49.3749C100.718 49.3868 100.754 49.4227 100.754 49.4347C100.873 49.4347 100.861 49.3629 100.933 49.3509C101.113 49.2911 101.196 49.3509 101.316 49.3988C101.388 49.327 101.364 49.339 101.484 49.2911C101.472 49.4347 101.484 49.4108 101.388 49.4825C101.4 49.4825 101.4 49.5424 101.4 49.5543C101.615 49.5902 101.627 49.5782 101.663 49.8055C101.472 49.8654 101.448 49.8654 101.4 50.0328C101.436 50.0568 101.711 50.2482 101.723 50.2601C101.902 50.296 102.106 50.2123 102.285 50.2003C102.357 50.2841 102.488 50.4276 102.608 50.4396C102.704 50.4516 102.811 50.3798 102.931 50.3917C102.943 50.3917 102.967 50.4396 102.979 50.4396C103.087 50.4635 103.254 50.5114 103.398 50.4635C103.577 50.4037 103.469 50.2243 103.41 50.1405C103.481 50.0209 103.517 49.9013 103.78 49.9252C103.816 49.9252 104.115 49.9491 104.175 49.973C104.223 49.985 104.247 50.0687 104.295 50.0807C104.426 50.1046 104.606 50.0448 104.75 50.0448C104.989 50.0568 105.252 50.1046 105.491 50.1405C105.515 50.1046 105.551 49.997 105.587 49.985C105.754 49.9132 105.958 50.0328 106.065 50.0568C106.089 50.0448 106.125 49.985 106.149 49.973C106.197 49.9611 106.221 49.9491 106.269 49.9611H106.257Z" fill="#0056A4"/>
<path d="M63.6797 93.7583H68.6205C74.1594 93.7583 79.0524 95.2537 79.0524 100.984C79.0524 106.726 74.1594 108.21 68.6205 108.21H63.6797M67.3045 105.937H69.3263C72.353 105.937 75.284 104.13 75.284 100.984C75.284 97.8378 72.365 96.0313 69.3263 96.0313H67.3045V105.937Z" fill="#737A80"/>
<path d="M109.547 108.006C108.027 108.258 106.377 108.461 104.797 108.461C98.0382 108.461 93.3486 106.116 93.3486 101.235C93.3486 96.2825 97.7152 93.519 104.797 93.519C106.173 93.519 107.992 93.6985 109.523 94.1172L109.224 96.5577C107.645 95.9356 106.209 95.792 104.714 95.792C100.407 95.792 97.7152 98.077 97.7152 101.032C97.7152 103.975 100.347 106.188 104.797 106.188C106.436 106.188 108.386 105.937 109.367 105.59" fill="#737A80"/>
<path d="M132.767 93.7583H129.143V108.21H132.767V93.7583Z" fill="#737A80"/>
<defs>
<linearGradient id="paint0_linear_354_976" x1="62.758" y1="64.5181" x2="136.761" y2="64.5181" gradientUnits="userSpaceOnUse">
<stop stop-color="#0056A4"/>
<stop offset="0.1472" stop-color="#6A83C0"/>
<stop offset="0.3222" stop-color="#BCC3E2"/>
<stop offset="0.4458" stop-color="#EDEFF8"/>
<stop offset="0.5056" stop-color="white"/>
<stop offset="0.555" stop-color="#FEF4EE"/>
<stop offset="0.6528" stop-color="#F9D3BE"/>
<stop offset="0.7897" stop-color="#EF9972"/>
<stop offset="0.9589" stop-color="#E44222"/>
<stop offset="1" stop-color="#E12014"/>
</linearGradient>
</defs>
</svg>
