<svg width="200" height="152" viewBox="0 0 200 152" fill="none" xmlns="http://www.w3.org/2000/svg">
<rect width="200" height="152" fill="white"/>
<path fill-rule="evenodd" clip-rule="evenodd" d="M40 51V54.2857H63.1767V51H40ZM66.435 51V54.2857H99.4433C99.4433 54.2857 96.0717 51 91.595 51H66.435ZM105.932 51V54.2857H125.907L124.717 51H105.932ZM140.215 51L139.025 54.2857H158.802V51H140.215ZM40 57.4V60.6857H63.1767V57.4H40ZM66.435 57.4V60.6857H103.268C103.268 60.6857 102.843 58.1714 102.078 57.4H66.435ZM105.932 57.4V60.6857H128.088L126.983 57.4H105.932ZM137.835 57.4L136.73 60.6857H158.802V57.4H137.835ZM46.6583 63.7714V67.0571H56.6883V63.7714H46.6583ZM73.0933 63.7714V67.0571H83.1233V63.7714H73.0933ZM92.8983 63.7714V67.0571H102.928C102.928 67.0571 103.552 65.3143 103.552 63.7714H92.8983ZM112.59 63.7714V67.0571H130.383L129.193 63.7714H112.59ZM135.653 63.7714L134.463 67.0571H152.342V63.7714H135.653ZM46.6583 70.1714V73.4571H56.6883V70.1714H46.6583ZM73.0933 70.1714V73.4571H98.7067C98.7067 73.4571 100.86 71.7714 101.54 70.1714H73.0933ZM112.59 70.1714V73.4571H122.62V71.6286L123.243 73.4571H141.632L142.312 71.6286V73.4571H152.342V70.1714H133.5L132.508 72.9429L131.517 70.1714H112.59ZM46.6583 76.5429V79.8286H56.6883V76.5429H46.6583ZM73.0933 76.5429V79.8286H101.54C100.86 78.2286 98.7067 76.5429 98.7067 76.5429H73.0933ZM112.59 76.5429V79.8286H122.62V76.5429H112.59ZM124.433 76.5429L125.652 79.8286H139.422L140.583 76.5429H124.433ZM142.312 76.5429V79.8286H152.342V76.5429H142.312ZM46.6583 82.9429V86.2286H56.6883V82.9429H46.6583ZM73.0933 82.9429V86.2286H83.1233V82.9429H73.0933ZM92.8983 82.9429V86.2286H103.58C103.58 84.6857 102.957 82.9429 102.957 82.9429H92.8983ZM112.59 82.9429V86.2286H122.62V82.9429H112.59ZM126.728 82.9429L127.89 86.2286H137.127L138.317 82.9429H126.728ZM142.312 82.9429V86.2286H152.342V82.9429H142.312ZM40.17 89.3143V92.6H63.3467V89.3143H40.17ZM66.435 89.3143V92.6H102.107C102.843 91.8571 103.297 89.3143 103.297 89.3143H66.435ZM106.102 89.3143V92.6H122.62V89.3143H106.102ZM128.995 89.3143L130.213 92.6H134.917L136.05 89.3143H128.995ZM142.312 89.3143V92.6H159V89.3143H142.312ZM40.17 95.7143V99H63.3467V95.7143H40.17ZM66.435 95.7143V99H91.595C96.0717 99 99.4433 95.7143 99.4433 95.7143H66.435ZM106.102 95.7143V99H122.62V95.7143H106.102ZM131.29 95.7143L132.452 99H132.65L133.84 95.7143H131.29ZM142.312 95.7143V99H159V95.7143H142.312Z" fill="#1F70C1"/>
</svg>
