<svg width="200" height="152" viewBox="0 0 200 152" fill="none" xmlns="http://www.w3.org/2000/svg">
<rect width="200" height="152" fill="white"/>
<path d="M99.8165 114C121.46 114 139 96.4602 139 74.8232C139 53.1863 121.46 35.64 99.8165 35.64C78.1795 35.64 60.6396 53.1863 60.6396 74.8232C60.6396 96.4602 78.1795 114 99.8165 114Z" fill="white"/>
<path d="M108.609 64.6188C108.609 60.1635 111.625 55.8425 113.27 56.6565C115.146 57.5968 111.865 61.7931 108.609 64.6188ZM88.0992 66.242C88.0992 62.6598 91.6334 55.8537 93.7923 56.5733C96.3446 57.4241 91.6782 64.2894 88.0992 66.242ZM84.5155 91.8609C82.8907 91.9345 81.8032 90.895 81.8032 89.1599C81.8032 84.4983 88.2719 80.0445 93.1574 77.6538C92.2907 84.1624 90.0918 91.6098 84.5155 91.8609ZM114.359 76.6703C110.67 76.6703 107.851 79.3841 107.851 82.6384C107.851 85.3522 109.482 87.5223 111.646 87.5223C112.412 87.5223 113.17 87.0858 113.17 86.1166C113.17 84.6982 111.299 84.3575 111.439 82.2482C111.534 80.8569 112.845 79.9262 114.147 79.9262C116.749 79.9262 117.966 82.4481 117.966 85.05C117.86 89.0687 114.902 91.8593 111.435 91.8593C106.874 91.8593 103.944 87.5223 103.944 82.8543C103.944 75.9043 108.505 73.192 110.894 72.5444C110.916 72.5444 117.134 73.6494 116.941 70.9084C116.851 69.7026 115.058 69.2389 113.763 69.1893C112.322 69.1333 110.867 69.6515 110.867 69.6515C110.112 69.2677 109.587 68.5176 109.263 67.6541C113.713 64.2862 116.861 61.0335 116.861 57.3425C116.861 55.3899 115.556 53.6532 113.059 53.6532C108.609 53.6532 105.244 59.2967 105.244 64.3981C105.244 65.2633 105.244 66.1348 105.468 66.8929C102.644 68.9526 100.544 70.2368 96.7492 72.5156C96.7492 72.0406 96.8484 70.8141 97.1682 69.2277C98.4683 67.8156 100.255 65.6999 100.255 64.0703C100.255 63.3123 99.8244 62.6582 98.9481 62.6582C96.7812 62.6582 95.1564 65.9174 94.7215 68.1962C93.7444 69.3956 91.7901 70.9148 90.159 70.9148C88.8588 70.9148 88.4223 69.7202 88.3119 69.2836C92.4378 67.8716 97.5392 62.228 97.5392 57.1266C97.5392 56.044 97.1042 53.6532 93.8499 53.6532C88.966 53.6532 84.8465 60.9279 84.8465 66.565C83.105 66.565 82.4573 64.7228 82.4573 63.3107C82.4573 61.897 82.9994 60.4913 82.9994 60.0548C82.9994 59.6198 82.7819 59.0792 82.1279 59.0792C80.5031 59.0792 79.526 61.2493 79.526 63.7457C79.638 67.2191 81.9152 69.3956 84.952 69.6083C85.387 71.6728 87.2293 73.627 89.5065 73.627C90.9202 73.627 92.6553 73.192 93.8499 72.1094C93.7444 72.8674 93.6388 73.5215 93.5269 74.1691C88.7485 76.6703 85.2751 78.4054 82.1279 81.2263C79.6379 83.5084 78.2259 86.5452 78.2259 88.9296C78.2259 92.1903 80.2856 95.2272 84.5171 95.2272C89.5065 95.2272 93.3094 91.2132 95.1564 85.6753C96.0216 83.0734 96.3686 79.2833 96.5909 75.8051C101.577 72.9794 103.944 71.3514 106.551 69.5027C106.875 70.0449 107.203 70.4782 107.633 70.8029C105.356 71.9975 99.93 75.3637 99.93 83.2845C99.93 88.928 103.725 95.2256 111.219 95.2256C117.404 95.2256 121.636 90.1226 121.636 85.2371C121.634 80.7914 119.138 76.6703 114.359 76.6703ZM133.02 85.9935C133.004 86.0271 132.944 86.0719 132.82 86.0319C132.724 85.9983 132.704 85.9535 132.704 85.8912C132.708 85.8304 134.015 81.9668 134.004 77.5402C133.993 72.7555 132.051 69.8242 129.561 69.8242C128.037 69.8242 126.953 70.9132 126.953 72.5444C126.953 75.4741 130.532 75.6932 130.532 82.0947C130.532 84.6966 129.99 87.1929 129.126 89.9051C125.106 103.469 112.3 109.767 99.8244 109.767C94.069 109.767 89.9815 108.584 88.7661 108.038C88.7165 108.009 88.6701 107.915 88.7101 107.819C88.7373 107.747 88.8221 107.691 88.8716 107.714C89.3642 107.904 92.8744 109.009 97.2178 109.009C101.991 109.009 104.815 107.056 104.815 104.666C104.815 103.148 103.621 101.953 102.103 101.953C99.172 101.953 98.9497 105.643 92.6569 105.643C89.9447 105.643 87.5555 105.101 84.7361 104.229C71.2742 100.106 64.8663 87.412 64.8711 74.8232C64.8759 68.6887 66.5966 63.8032 66.6238 63.7585C66.6462 63.7265 66.7229 63.6913 66.8173 63.7265C66.9132 63.7585 66.934 63.8368 66.9292 63.8656C66.7741 64.3741 65.6339 67.8748 65.6339 72.2181C65.6339 76.9965 67.5865 79.8159 70.0828 79.8159C71.4901 79.8159 72.6847 78.7332 72.6847 77.214C72.6847 74.2795 69.1009 73.9549 69.1009 67.6589C69.1009 64.9451 69.6479 62.5559 70.513 59.7365C74.6389 46.2778 87.3396 39.9706 99.8213 39.8731C105.621 39.8283 110.696 41.565 110.891 41.7201C110.924 41.7489 110.958 41.8225 110.924 41.9104C110.878 42.016 110.811 42.0272 110.779 42.0208C110.718 42.016 107.417 40.6359 102.422 40.6359C97.7551 40.6311 94.8238 42.5853 94.8238 45.0848C94.8238 46.4921 95.9128 47.6867 97.536 47.6867C100.467 47.6867 100.685 44.1077 106.982 44.1077C109.688 44.1077 112.079 44.6434 114.898 45.515C128.469 49.6393 134.643 62.4455 134.76 74.8216C134.824 81.1592 133.038 85.9535 133.02 85.9935ZM99.8228 37.4871C79.2014 37.4871 62.4883 54.1953 62.4883 74.8216C62.4883 95.4431 79.2014 112.151 99.8228 112.151C120.44 112.151 137.153 95.4431 137.153 74.8216C137.153 54.3073 120.44 37.4871 99.8228 37.4871ZM99.8228 114C78.2243 114 60.6396 96.5273 60.6396 74.8232C60.6396 53.2182 78.2243 35.64 99.8228 35.64C121.415 35.64 139 53.2182 139 74.8232C139 96.5273 121.415 114 99.8228 114Z" fill="#3B73B9"/>
</svg>
