<svg width="16" height="16" viewBox="0 0 16 16" fill="none" xmlns="http://www.w3.org/2000/svg">
<path d="M7.99995 8L12.6437 3.35625C12.7143 3.28668 12.7627 3.19768 12.7826 3.10056C12.8026 3.00344 12.7932 2.90259 12.7557 2.81081C12.7182 2.71904 12.6542 2.64049 12.572 2.58515C12.4897 2.5298 12.3928 2.50017 12.2937 2.5H3.7062C3.60705 2.50017 3.51019 2.5298 3.42793 2.58515C3.34567 2.64049 3.28172 2.71904 3.2442 2.81081C3.20669 2.90259 3.19731 3.00344 3.21725 3.10056C3.23719 3.19768 3.28555 3.28668 3.3562 3.35625L7.99995 8ZM7.99995 8L12.6437 12.6438C12.7143 12.7133 12.7627 12.8023 12.7826 12.8994C12.8026 12.9966 12.7932 13.0974 12.7557 13.1892C12.7182 13.281 12.6542 13.3595 12.572 13.4149C12.4897 13.4702 12.3928 13.4998 12.2937 13.5H3.7062C3.60705 13.4998 3.51019 13.4702 3.42793 13.4149C3.34567 13.3595 3.28172 13.281 3.2442 13.1892C3.20669 13.0974 3.19731 12.9966 3.21725 12.8994C3.23719 12.8023 3.28555 12.7133 3.3562 12.6438L7.99995 8Z" stroke="#DA9C50" stroke-linecap="round" stroke-linejoin="round"/>
</svg>
