<svg width="16" height="16" viewBox="0 0 16 16" fill="none" xmlns="http://www.w3.org/2000/svg">
<path d="M7.9999 6.50001V9.00001M7.1374 2.50001L1.6374 12C1.54978 12.1518 1.50357 12.3239 1.50342 12.4991C1.50326 12.6744 1.54916 12.8466 1.63651 12.9985C1.72386 13.1504 1.8496 13.2767 2.00113 13.3647C2.15266 13.4527 2.32466 13.4994 2.4999 13.5H13.4999C13.6751 13.4994 13.8471 13.4527 13.9987 13.3647C14.1502 13.2767 14.2759 13.1504 14.3633 12.9985C14.4506 12.8466 14.4965 12.6744 14.4964 12.4991C14.4962 12.3239 14.45 12.1518 14.3624 12L8.8624 2.50001C8.77543 2.34805 8.64987 2.22176 8.49841 2.13393C8.34695 2.0461 8.17498 1.99985 7.9999 1.99985C7.82481 1.99985 7.65284 2.0461 7.50138 2.13393C7.34992 2.22176 7.22436 2.34805 7.1374 2.50001Z" stroke="#D04C60" stroke-linecap="round" stroke-linejoin="round"/>
<path d="M8 11.875C8.34518 11.875 8.625 11.5952 8.625 11.25C8.625 10.9048 8.34518 10.625 8 10.625C7.65482 10.625 7.375 10.9048 7.375 11.25C7.375 11.5952 7.65482 11.875 8 11.875Z" fill="#D04C60"/>
</svg>
